{"glyphs":{"0":{"ha":593,"x_min":28,"x_max":567,"o":"m 144 79 q 135 79 137 79 q 132 81 132 79 q 133 87 132 83 q 134 96 134 90 q 110 110 122 96 q 87 143 98 123 q 66 189 76 163 q 50 237 57 214 q 38 280 42 261 q 34 309 34 299 l 39 319 q 34 324 39 324 q 35 346 35 336 q 33 363 34 355 q 30 379 31 371 q 28 399 28 387 l 28 425 q 35 433 35 429 q 34 441 34 437 q 31 458 34 450 q 28 474 28 467 q 31 481 28 479 q 34 487 34 482 q 33 491 34 490 q 28 496 33 493 l 39 516 l 32 516 q 35 535 32 526 q 41 551 37 543 q 47 567 44 559 q 50 583 50 575 l 50 586 l 44 591 q 46 605 44 599 q 51 616 48 610 q 54 629 53 623 q 54 644 56 635 l 66 650 l 60 656 q 73 684 71 669 q 83 714 76 699 q 78 716 80 714 q 76 720 76 718 q 81 745 76 730 q 93 773 85 759 q 108 798 100 787 q 124 816 117 810 q 120 818 121 816 q 119 821 119 820 q 136 873 119 845 q 178 925 153 901 q 233 966 203 949 q 286 982 262 982 l 291 982 q 309 978 295 981 q 338 974 322 976 q 368 969 354 971 q 387 966 382 967 l 393 966 l 393 956 l 408 956 q 412 952 409 956 q 420 945 416 949 q 429 936 425 941 q 435 928 433 931 q 447 910 439 923 q 465 883 456 897 q 482 855 474 868 q 494 837 490 842 q 503 824 498 836 q 512 798 508 813 q 522 764 517 782 q 530 730 526 745 q 536 704 534 714 q 541 693 539 693 q 542 662 539 676 q 550 634 545 648 q 558 607 554 621 q 562 576 562 593 l 557 566 q 560 554 557 562 q 567 543 564 545 l 567 441 q 562 424 562 433 q 562 404 562 415 q 565 374 562 389 q 567 345 567 359 q 565 330 567 341 q 561 307 563 319 q 555 286 558 295 q 551 277 553 277 q 556 274 555 277 q 557 267 557 271 q 557 260 557 263 q 557 256 557 256 q 555 237 557 243 q 541 227 553 232 q 546 225 545 226 q 547 220 547 224 q 539 192 547 206 q 523 165 532 178 q 507 141 515 153 q 500 121 500 130 q 500 115 500 117 q 505 111 501 113 l 500 105 q 490 101 496 105 q 484 95 484 96 l 488 85 l 488 80 q 484 75 488 79 q 474 65 479 71 q 463 53 468 59 q 455 45 457 47 q 452 42 454 44 q 447 39 450 41 q 439 35 444 37 l 435 40 q 404 17 422 25 q 365 6 386 9 q 322 3 344 3 q 283 3 301 3 q 271 4 281 3 q 251 7 262 5 q 232 10 241 8 q 221 14 223 12 q 202 27 215 18 q 176 45 189 35 q 154 63 163 54 q 144 79 144 73 m 291 129 l 311 139 l 311 134 q 349 159 333 143 q 375 194 365 174 q 390 235 385 213 q 395 279 395 256 q 406 290 401 279 q 417 319 412 301 q 426 358 422 336 q 433 400 430 380 q 438 437 436 420 q 439 463 439 454 q 432 551 439 511 q 403 631 425 592 q 389 673 393 648 q 382 719 385 699 q 378 730 380 722 q 373 747 376 738 q 369 763 371 755 q 365 774 366 771 q 361 778 363 776 q 359 785 358 781 q 355 792 359 787 q 347 804 351 798 q 339 815 343 810 q 333 823 335 821 q 329 827 332 825 q 324 833 327 830 q 317 839 321 836 q 306 836 314 839 q 296 833 298 833 l 293 833 q 288 834 289 833 q 286 839 288 835 q 274 819 282 825 q 258 802 265 812 q 248 784 255 798 q 234 756 241 770 q 221 730 227 741 q 216 718 216 718 l 216 714 l 221 709 q 219 701 220 705 q 217 695 218 698 q 216 692 216 692 q 208 672 214 686 q 194 643 201 659 q 181 613 187 627 q 172 593 174 599 q 172 550 174 572 q 166 506 170 528 q 159 461 163 484 q 156 418 156 439 q 157 414 156 418 q 158 408 157 411 q 160 401 159 404 q 161 397 161 397 l 161 354 q 166 349 164 351 q 172 347 168 346 q 166 340 171 346 q 161 331 161 334 q 164 308 159 320 q 177 284 170 296 q 190 259 184 271 q 197 234 197 246 l 197 230 l 192 220 q 196 214 193 217 q 202 209 199 212 q 207 202 205 205 q 207 193 209 198 l 244 153 l 244 148 l 291 129 z "},"1":{"ha":593,"x_min":33,"x_max":536,"o":"m 338 2 l 338 7 l 317 18 l 277 18 q 251 19 267 18 q 219 19 235 20 q 187 14 202 18 q 164 2 172 11 l 164 7 l 159 7 q 152 5 157 7 q 145 3 146 3 q 139 8 142 9 q 133 7 136 7 l 127 7 l 123 14 l 111 7 q 91 17 102 7 q 68 39 79 26 q 51 64 58 52 q 43 83 43 77 q 50 115 43 100 q 67 139 56 129 q 93 155 78 149 q 123 160 107 160 q 130 158 128 160 q 138 155 132 155 q 144 154 142 155 q 151 153 147 153 q 159 149 153 149 q 174 147 168 147 q 184 146 179 146 q 194 144 189 145 q 206 139 199 142 l 208 139 q 221 143 214 139 q 228 155 228 148 l 222 155 l 222 165 q 225 181 222 171 q 231 200 227 191 l 238 222 l 243 229 l 243 281 q 245 288 243 282 q 248 296 248 294 q 245 306 248 298 q 243 317 243 315 l 243 323 q 248 349 243 335 q 254 376 254 363 q 253 379 254 376 q 251 385 252 382 q 249 392 250 389 q 248 396 248 395 l 248 412 q 251 424 248 418 q 254 435 254 429 q 253 444 254 441 q 248 450 252 446 l 248 513 q 242 520 243 515 q 241 534 241 526 q 240 549 241 542 q 239 560 240 555 q 244 576 242 565 q 247 600 245 587 q 248 624 248 613 q 248 639 248 635 l 243 645 l 243 671 l 248 682 q 246 685 248 684 q 243 686 244 686 l 248 692 q 247 711 247 697 q 250 734 247 725 q 253 752 252 743 q 254 774 254 761 l 254 791 l 245 826 q 235 820 242 823 q 220 812 228 816 q 208 804 213 808 q 201 799 202 801 q 173 770 189 781 q 133 751 157 759 q 124 754 130 751 q 117 756 119 756 l 81 756 q 65 765 71 758 q 55 779 60 772 q 46 792 51 787 q 33 799 41 798 l 33 865 q 44 871 39 867 q 52 881 48 876 q 58 890 55 886 q 64 896 60 894 q 92 906 77 903 q 123 911 107 909 q 156 915 140 913 q 185 922 172 917 q 194 929 189 924 q 204 938 199 934 q 216 944 210 942 q 228 944 222 947 q 244 957 235 949 q 262 970 253 964 q 282 981 272 977 q 303 985 292 985 q 337 978 320 985 q 369 959 355 971 q 391 931 382 947 q 400 899 400 916 q 397 875 400 887 q 390 851 394 863 q 383 826 386 839 q 380 802 380 814 q 382 780 380 790 q 385 755 385 769 q 380 690 385 722 q 374 627 374 659 q 375 611 374 621 q 377 590 376 601 q 379 569 378 578 q 380 555 380 559 q 380 547 380 553 q 379 535 380 541 q 377 524 378 529 q 374 517 376 519 l 374 481 q 376 417 374 446 q 380 361 378 389 q 384 304 382 333 q 385 239 386 275 q 387 225 385 237 q 390 199 389 213 q 394 173 392 185 q 395 158 395 161 l 390 144 l 390 142 q 408 137 396 138 q 436 134 420 136 q 467 131 451 133 q 496 124 483 129 l 496 119 q 497 113 496 117 q 499 109 498 111 l 510 109 q 526 96 521 101 q 534 84 532 90 q 536 71 536 79 q 536 52 536 64 q 531 22 536 34 q 516 4 526 11 q 494 -5 507 -3 q 464 -8 480 -8 q 439 -8 456 -8 q 403 -5 422 -7 q 368 1 384 -3 q 348 14 353 5 l 338 2 z "},"2":{"ha":593,"x_min":36,"x_max":580,"o":"m 104 5 q 95 3 101 5 q 87 1 90 1 q 76 12 82 3 q 63 30 69 20 q 54 49 58 40 q 50 62 50 58 q 50 71 50 69 q 56 76 51 73 q 45 77 48 76 l 44 78 q 50 105 44 92 q 64 129 56 118 q 83 150 73 140 q 104 168 94 159 q 106 181 102 172 q 117 199 111 191 q 129 215 123 208 q 136 220 135 221 q 143 229 138 222 q 154 243 149 235 q 165 259 160 252 q 172 270 170 267 q 188 295 176 275 q 214 340 199 314 q 245 396 229 367 q 274 451 261 426 q 295 495 287 477 q 301 515 302 513 q 309 529 303 519 q 320 551 314 539 q 332 573 327 562 q 340 589 338 583 q 342 597 341 591 q 343 608 342 602 q 345 621 344 614 l 340 627 q 348 634 342 627 q 359 649 353 641 q 369 666 366 658 q 369 677 372 674 l 364 682 l 364 745 q 368 749 368 747 q 369 752 369 751 l 369 755 l 353 772 q 356 782 353 776 q 358 789 358 787 l 358 794 l 348 794 l 348 813 q 341 816 346 813 q 332 822 336 819 q 322 830 327 826 q 316 838 318 834 l 275 838 q 261 831 273 836 q 235 822 250 827 q 209 813 221 817 q 193 810 196 810 l 193 800 q 178 782 185 790 q 164 768 171 774 q 151 758 157 762 q 126 748 142 752 q 99 743 111 743 q 86 748 95 743 q 68 760 77 753 q 52 774 59 767 q 42 785 44 781 q 37 807 36 795 q 37 829 37 819 q 37 837 37 831 q 37 848 37 842 q 38 861 37 854 q 42 871 39 867 q 91 910 62 895 q 146 941 119 926 q 154 944 149 941 q 161 951 160 948 q 188 963 170 958 q 224 970 205 968 q 262 973 244 972 q 291 972 281 973 q 295 976 291 975 q 301 977 298 977 q 320 972 310 977 q 338 967 330 967 l 349 972 l 355 967 q 370 957 361 961 q 386 949 378 953 q 403 943 395 946 q 419 935 412 940 q 438 915 427 929 q 462 887 450 901 q 485 863 474 873 q 505 852 496 852 l 505 848 q 502 840 505 844 q 500 833 500 835 q 506 824 500 830 q 515 813 512 817 q 521 791 519 804 q 524 763 523 778 q 525 734 525 748 q 526 710 526 720 q 526 697 526 706 q 525 677 526 688 q 523 656 524 666 q 520 641 522 646 q 514 625 519 639 q 503 596 509 612 q 493 567 497 581 q 488 552 488 554 q 490 548 488 550 q 494 546 492 546 q 486 536 491 544 q 476 521 481 529 q 467 508 471 513 q 461 504 463 502 q 449 472 460 486 q 425 446 439 457 l 429 439 q 415 422 421 435 q 405 396 410 410 q 396 368 399 382 q 388 347 392 355 l 376 330 q 373 326 375 330 q 368 318 370 322 q 363 310 366 314 q 359 304 361 306 l 355 304 q 349 295 353 304 q 342 275 345 286 q 336 255 338 264 q 333 245 333 245 q 314 223 326 234 q 291 199 302 212 q 271 173 280 186 q 260 142 262 159 l 296 142 l 307 137 l 317 142 l 332 142 q 335 142 332 142 q 340 142 338 142 q 346 141 343 142 q 349 137 348 140 q 357 140 351 138 q 368 144 362 142 q 380 147 374 146 q 387 149 385 149 q 393 148 388 149 q 406 146 399 147 q 420 144 413 145 q 429 142 427 143 q 462 140 444 139 q 497 142 479 142 q 530 139 514 142 q 557 124 545 136 q 564 116 559 122 q 568 108 568 111 q 574 103 571 106 q 580 98 577 100 l 580 73 q 580 56 580 65 q 578 38 580 47 q 571 22 576 29 q 557 12 566 15 q 542 6 551 9 q 523 -1 532 3 q 507 -6 514 -4 q 500 -9 500 -9 l 485 -9 q 440 -4 463 -9 q 396 6 418 1 q 352 16 374 12 q 307 18 330 20 l 301 22 q 289 18 300 21 q 263 10 279 14 q 230 2 248 6 q 196 -6 212 -3 q 166 -12 179 -9 q 149 -14 154 -14 q 126 -10 138 -14 q 104 -5 115 -5 l 104 5 z "},"3":{"ha":593,"x_min":64,"x_max":514,"o":"m 205 -16 q 190 -14 196 -16 q 179 -9 184 -12 q 170 -2 174 -6 q 158 5 165 1 q 154 1 155 1 q 150 0 153 0 l 148 0 l 153 7 l 132 7 q 122 17 132 10 q 102 32 113 24 q 81 47 91 40 q 69 58 71 54 q 68 63 68 60 q 70 69 69 66 q 69 75 70 72 q 64 79 68 77 l 64 137 q 72 153 64 147 q 90 163 79 159 q 111 168 100 167 q 127 170 121 170 q 163 161 146 170 q 196 142 180 153 q 229 124 212 132 q 267 115 246 115 q 288 119 278 115 q 307 128 298 123 q 324 140 315 134 q 343 151 333 146 q 356 175 349 161 q 370 205 363 189 q 380 236 376 220 q 386 262 385 251 q 377 276 380 269 q 373 293 374 284 q 371 310 372 301 q 368 326 370 318 q 351 363 363 342 q 322 403 339 385 q 287 433 306 421 q 250 441 268 444 l 229 441 q 211 444 219 443 q 197 445 203 444 q 183 448 190 446 q 169 454 177 450 q 159 469 165 462 q 145 483 152 476 q 135 497 139 490 q 132 513 130 505 q 163 577 136 559 q 237 592 191 595 l 243 597 l 297 590 q 302 601 297 597 q 313 601 307 604 l 342 629 l 346 647 q 353 654 350 647 q 357 672 355 661 q 361 698 359 684 q 366 726 363 712 q 358 754 360 741 q 357 779 357 768 q 355 787 357 783 q 353 797 354 792 q 351 806 351 802 q 355 812 351 810 l 345 807 l 345 812 l 340 812 l 330 833 q 317 834 324 831 q 301 840 309 837 q 287 847 294 844 q 274 850 279 850 q 249 847 258 850 q 233 839 239 844 q 220 828 227 834 q 205 814 214 821 q 197 812 201 812 q 187 812 192 812 q 179 810 182 812 q 173 804 175 808 l 151 804 q 128 808 142 804 q 101 820 114 812 q 79 837 88 827 q 69 857 69 846 l 69 859 q 72 868 69 863 q 75 876 75 874 l 69 880 l 69 884 l 69 886 q 77 900 71 892 q 89 913 82 907 q 101 924 95 919 q 111 932 107 929 q 122 935 114 930 q 139 945 130 939 q 156 957 148 951 q 169 964 165 962 q 201 978 182 970 q 237 985 219 985 l 253 985 q 256 985 254 985 q 262 983 259 984 q 269 981 266 982 q 274 981 273 981 q 280 982 275 981 q 285 985 285 983 l 285 982 q 291 982 287 982 q 298 981 294 981 q 306 981 302 981 q 311 981 309 981 q 318 983 312 981 q 327 985 324 985 q 333 977 328 985 q 337 964 337 969 l 342 964 l 352 970 q 371 965 360 970 q 393 952 382 960 q 410 935 403 944 q 417 919 417 926 q 424 921 420 919 q 432 922 429 922 q 441 910 434 921 q 457 888 449 900 q 473 865 466 876 q 479 854 479 855 l 473 849 q 479 841 476 847 q 486 827 483 835 q 492 813 490 820 q 494 802 494 806 l 489 791 l 494 786 l 494 781 l 499 758 l 499 742 l 494 731 l 499 726 l 499 701 l 499 691 l 494 681 l 499 676 l 499 663 q 493 630 499 648 q 478 596 487 612 q 458 568 469 580 q 437 551 447 555 q 417 528 435 541 q 376 505 399 515 q 398 495 387 502 q 420 481 410 488 q 436 468 430 474 q 442 460 443 462 q 473 428 463 444 q 488 395 483 412 q 498 361 493 378 q 514 326 503 344 l 514 220 q 511 210 513 218 q 509 200 509 201 l 514 195 q 511 184 514 186 q 506 181 509 182 q 502 175 503 179 q 503 158 500 170 q 473 111 485 131 q 449 73 461 90 q 418 41 436 56 q 368 10 399 26 q 353 2 359 6 q 341 -6 347 -3 q 328 -13 335 -10 q 311 -16 321 -16 l 311 -10 q 300 -11 301 -7 q 295 -20 299 -16 q 290 -18 294 -21 q 285 -16 286 -16 l 205 -16 z "},"4":{"ha":593,"x_min":12,"x_max":576,"o":"m 317 138 q 322 143 318 138 q 327 150 327 147 l 321 160 q 323 162 321 161 q 327 165 325 163 q 332 170 330 168 l 332 175 q 333 181 332 176 q 335 193 334 186 q 336 205 336 199 q 337 212 337 211 l 337 218 l 342 229 q 341 242 342 232 q 339 255 340 252 l 307 255 q 260 251 286 255 q 206 242 233 247 q 153 233 178 237 q 108 229 127 229 q 95 230 104 229 q 77 234 86 231 q 62 241 68 237 q 56 250 56 245 q 31 256 39 250 q 18 270 22 261 q 13 292 14 279 q 12 319 12 304 q 12 329 12 322 q 12 342 12 335 q 14 355 13 349 q 18 365 16 361 q 26 372 19 366 q 33 380 33 378 l 33 391 l 48 394 q 74 428 60 405 q 101 477 88 451 q 125 527 115 503 q 144 566 136 551 l 149 571 l 270 817 q 278 834 271 825 q 286 849 286 844 q 283 853 286 852 q 280 854 281 854 q 283 858 281 855 q 287 865 285 861 q 292 872 290 869 q 296 876 294 875 l 296 880 l 291 891 q 294 896 291 892 q 301 906 298 901 q 309 916 305 911 q 312 922 312 921 q 323 943 318 933 q 334 959 328 952 q 351 971 341 966 q 377 975 361 975 l 396 975 q 402 970 397 973 q 414 964 408 968 q 428 955 421 960 q 437 944 434 950 q 442 939 439 941 q 449 939 445 936 q 463 921 456 930 q 469 902 469 911 q 480 895 475 902 q 485 880 485 888 l 479 870 q 489 860 486 867 q 496 847 493 854 q 499 834 498 840 q 500 827 500 829 q 495 791 500 808 q 490 755 490 773 l 495 744 l 495 742 q 494 738 495 739 q 490 734 494 736 l 492 671 q 489 667 491 671 q 488 660 488 663 q 490 653 488 659 q 492 645 492 648 l 492 633 q 490 609 492 622 q 488 585 488 597 l 488 576 l 492 571 q 489 562 492 567 q 482 555 486 557 l 484 418 q 485 394 484 404 q 490 379 487 385 q 496 371 492 374 q 505 366 500 368 q 507 367 504 364 q 517 371 511 369 q 531 374 523 374 q 548 370 539 375 q 567 343 557 359 q 576 312 576 328 q 574 303 576 310 q 570 287 572 296 q 566 272 568 279 q 564 262 564 264 q 534 243 550 245 q 503 245 519 241 q 475 234 487 249 q 464 193 464 219 q 465 186 464 189 q 469 181 465 182 l 464 175 l 469 170 q 470 143 467 157 q 475 115 472 129 q 481 88 478 102 q 484 60 484 74 q 479 39 484 52 q 469 18 475 26 l 464 18 l 433 -14 q 422 -16 427 -15 q 414 -17 418 -16 q 408 -17 410 -17 q 360 -5 378 -17 q 332 24 342 6 q 320 66 323 43 q 317 115 317 90 l 317 138 m 195 382 q 202 373 195 376 q 217 368 208 370 q 235 366 226 366 q 250 365 245 365 l 265 365 q 301 366 286 366 q 325 370 315 366 q 340 384 335 374 q 349 416 345 394 q 349 438 349 420 q 348 477 349 456 q 349 518 348 499 q 354 545 350 538 l 345 545 q 345 551 345 546 q 344 561 344 555 q 345 570 344 566 q 351 574 347 574 q 357 608 351 591 q 364 643 364 625 q 361 656 364 650 q 359 671 359 663 l 359 682 q 359 689 359 683 q 361 703 360 696 q 363 717 362 711 q 364 724 364 724 q 359 728 361 726 q 354 734 355 731 l 351 734 q 343 720 350 734 q 326 683 336 706 q 301 629 315 659 q 272 567 287 599 q 244 504 258 535 q 219 447 230 472 q 202 404 208 421 q 195 382 195 386 z "},"5":{"ha":593,"x_min":59,"x_max":530,"o":"m 248 -10 q 242 -17 245 -14 q 235 -20 238 -20 q 224 -15 229 -20 q 212 -10 219 -10 l 143 -10 q 130 -5 138 -10 q 115 6 122 0 q 102 18 107 12 q 96 26 96 24 l 91 26 l 91 42 q 81 45 83 42 q 77 53 78 49 q 75 62 76 58 q 70 68 74 66 l 70 111 q 84 125 79 117 q 97 141 90 134 q 112 153 103 148 q 134 158 120 158 q 150 156 140 158 q 170 150 159 153 q 189 143 180 146 q 201 137 197 140 q 201 131 199 134 q 205 126 202 128 q 211 123 208 124 q 216 121 214 122 q 237 114 228 117 q 258 111 247 111 q 301 122 281 111 q 337 153 321 134 q 365 193 353 171 q 380 237 376 216 l 380 279 q 381 286 380 281 q 384 297 382 291 q 387 308 385 302 q 390 315 389 313 q 384 334 382 323 q 385 352 386 345 q 373 383 382 366 q 351 415 364 400 q 322 440 338 430 q 290 450 306 450 q 242 446 268 450 q 195 434 216 441 q 186 427 194 430 q 170 422 179 425 q 154 419 161 420 q 143 418 146 418 q 109 424 121 418 q 89 438 97 429 q 75 458 81 447 q 59 481 68 469 l 59 516 q 63 547 59 533 q 72 572 67 560 q 81 597 77 585 q 85 623 85 609 l 85 812 q 89 817 87 812 q 91 823 91 821 q 88 835 91 829 q 82 847 85 841 q 77 860 79 853 q 75 876 75 867 q 78 894 75 884 q 85 914 81 904 q 91 935 88 924 q 91 954 93 945 q 97 961 93 956 q 106 970 102 965 q 115 979 111 975 q 121 985 119 983 q 124 990 121 987 q 127 996 127 994 q 145 990 139 992 q 156 986 151 987 q 168 984 161 985 q 190 981 175 983 q 193 979 191 981 q 195 975 195 977 l 317 975 q 339 979 328 975 q 360 986 349 982 q 381 994 370 990 q 406 996 392 997 q 462 980 438 992 q 504 939 486 968 l 504 924 q 502 891 504 907 q 490 859 499 875 q 482 859 486 861 q 473 852 477 857 q 463 844 468 848 q 453 839 458 840 q 447 838 452 839 q 436 836 441 837 q 427 834 431 835 q 422 833 422 833 l 407 833 l 400 833 l 395 844 q 387 841 393 844 q 380 839 381 839 q 371 844 376 839 q 363 849 365 849 q 329 858 348 857 q 292 859 311 859 q 259 854 274 859 q 227 849 244 849 q 229 842 227 844 q 232 833 232 840 q 222 828 226 833 q 216 817 218 823 q 213 803 214 810 q 212 791 212 795 l 216 786 l 212 776 l 216 770 q 214 741 215 753 q 213 719 213 729 q 212 707 212 709 l 206 696 l 212 686 l 212 680 q 211 672 212 675 q 206 665 210 668 l 206 581 q 215 582 206 581 q 234 586 224 583 q 253 592 245 589 q 260 597 262 595 q 289 594 270 596 q 328 586 309 591 q 361 573 347 581 q 376 553 376 565 q 399 550 391 553 q 407 529 407 547 l 416 529 q 430 525 420 528 q 442 518 439 522 l 442 513 q 445 512 443 513 q 451 511 448 512 q 456 510 454 511 q 458 507 458 509 l 458 487 q 465 479 458 486 q 479 464 471 473 q 494 448 487 456 q 504 439 502 441 l 495 434 l 504 424 q 500 420 500 423 q 499 413 499 416 q 501 406 500 409 q 502 401 502 402 q 509 390 504 401 q 518 367 513 380 q 527 340 523 353 q 530 322 530 327 l 530 320 l 525 310 l 530 299 l 525 294 l 530 283 l 530 254 l 530 237 l 519 226 l 519 168 q 493 138 504 155 q 472 101 482 120 q 452 64 463 83 q 427 32 441 46 l 422 29 q 416 26 418 26 q 408 23 410 25 q 403 19 405 22 q 398 15 401 17 q 390 10 396 12 q 381 6 387 10 q 374 0 375 1 q 341 -6 355 -3 q 316 -12 328 -9 q 292 -16 304 -14 q 264 -20 280 -18 l 258 -20 q 254 -14 256 -14 q 248 -10 252 -13 z "},"6":{"ha":593,"x_min":47,"x_max":570,"o":"m 246 3 q 219 20 237 8 q 183 48 201 33 q 148 78 164 63 q 125 103 132 93 q 123 110 125 104 q 120 119 120 116 q 104 140 114 132 q 89 161 94 149 q 82 180 87 165 q 72 210 77 194 q 62 241 66 227 q 57 260 58 255 l 62 271 q 60 293 62 281 q 55 317 58 304 q 49 341 52 329 q 47 366 47 353 q 52 397 47 381 q 57 427 57 414 q 54 436 57 430 q 52 443 52 441 l 57 453 l 52 458 l 52 473 q 54 485 52 480 q 57 499 57 490 q 56 503 57 500 q 52 506 56 505 q 56 510 56 509 q 57 516 57 512 q 54 525 57 522 q 52 536 52 528 l 52 537 q 56 557 54 545 q 61 582 58 570 q 67 611 64 595 l 75 611 l 75 668 l 89 678 q 87 709 86 693 q 99 736 89 725 q 95 739 96 736 q 94 742 94 741 q 100 754 94 749 q 110 763 106 759 q 123 795 117 777 q 136 825 128 812 q 156 858 142 838 q 187 900 170 879 q 223 936 204 920 q 258 956 241 952 l 257 941 q 278 956 265 947 q 303 972 290 964 q 330 985 317 980 q 353 991 342 991 q 386 987 364 991 q 428 977 407 984 q 466 956 450 969 q 481 924 481 943 l 487 928 q 493 923 488 928 q 498 918 498 919 l 498 892 l 498 870 l 492 859 l 498 854 l 498 852 q 492 843 498 848 q 479 834 486 838 q 465 826 472 829 q 455 823 458 823 q 434 827 446 822 q 408 838 422 832 q 381 848 395 844 q 356 849 368 852 q 340 843 351 848 q 320 831 330 838 q 303 819 311 825 q 295 812 296 813 l 286 783 l 262 752 q 258 743 262 751 q 247 724 253 734 q 236 705 241 714 q 231 694 231 696 l 235 694 q 230 665 235 679 q 225 635 225 651 q 228 620 225 627 q 231 605 231 613 q 254 621 240 612 q 285 638 269 630 q 318 651 301 646 q 351 656 336 656 q 382 649 366 656 q 414 640 399 642 q 419 638 416 640 q 426 636 422 637 q 433 633 429 634 l 433 625 q 458 620 447 625 q 479 606 469 614 q 498 586 489 597 q 516 564 507 575 q 524 560 519 563 q 530 553 529 557 q 532 536 532 547 q 535 518 532 526 q 543 502 538 509 q 550 488 547 495 q 556 473 554 481 q 559 455 559 465 l 559 411 q 561 399 559 408 q 564 388 563 391 l 570 376 q 569 370 570 374 q 564 366 568 367 l 563 367 q 562 360 563 365 q 561 349 562 355 q 560 337 561 342 q 559 330 559 332 q 562 321 559 328 q 564 313 564 314 q 563 301 564 307 q 559 289 561 295 q 556 277 557 282 q 554 267 554 271 q 557 260 554 264 q 564 256 561 257 q 560 251 562 254 q 558 244 559 248 q 557 238 557 241 q 557 234 557 235 l 553 234 q 553 222 553 231 q 554 208 554 212 l 549 202 q 531 166 541 189 q 511 119 522 143 q 491 74 501 94 q 471 45 481 54 q 453 30 464 38 q 429 15 441 22 q 405 2 417 7 q 382 -7 393 -4 q 373 -8 379 -8 q 360 -7 367 -7 q 346 -8 353 -7 q 336 -13 340 -9 q 323 -13 332 -13 q 306 -11 315 -12 q 288 -9 296 -10 q 277 -7 280 -8 q 270 -4 273 -6 q 262 -1 266 -3 q 254 3 258 1 q 246 3 250 4 m 241 182 q 252 169 245 178 q 269 152 260 161 q 289 136 279 142 q 309 129 300 129 q 331 135 318 129 q 356 151 343 142 q 378 170 368 160 q 393 187 389 180 q 402 203 398 195 q 414 218 407 212 q 409 224 409 218 q 413 246 409 233 q 422 273 417 259 q 431 301 427 288 q 435 323 435 314 l 435 329 l 429 334 q 430 337 429 334 q 432 344 431 340 q 434 351 433 347 q 435 355 435 354 q 430 382 435 363 q 417 420 425 400 q 404 457 410 440 q 393 479 397 474 l 383 489 q 377 496 380 492 q 374 500 374 499 q 365 503 370 500 q 354 508 359 505 q 342 514 348 511 q 330 516 336 516 q 260 492 294 516 q 204 421 227 467 q 198 399 197 411 q 199 376 199 388 l 199 349 q 202 348 200 349 q 204 345 204 346 q 199 326 204 336 q 194 307 194 316 l 199 297 q 207 257 203 279 q 220 218 212 235 q 227 209 222 213 q 234 201 231 205 q 240 193 238 197 q 241 182 243 188 z "},"7":{"ha":593,"x_min":36,"x_max":561,"o":"m 151 20 q 134 26 141 20 q 121 42 126 33 q 113 62 116 51 q 110 82 110 73 l 110 87 q 115 94 110 88 q 121 102 121 100 l 115 113 q 133 149 119 132 q 157 181 146 165 q 164 194 161 185 q 171 212 168 202 q 176 231 174 221 q 178 246 178 240 q 181 255 180 254 q 183 256 182 256 q 185 256 184 256 q 189 261 186 256 q 212 319 199 283 q 235 393 224 355 q 256 467 246 431 q 272 527 265 503 q 305 636 288 583 q 340 742 323 690 q 348 768 345 755 q 353 793 351 781 q 360 818 356 806 q 372 842 364 830 q 355 857 364 856 q 334 857 345 857 q 274 857 306 857 q 215 852 243 856 q 188 846 201 850 q 162 840 175 843 q 137 833 150 836 q 110 831 123 831 q 104 837 104 831 q 104 845 104 842 q 78 854 90 845 q 56 877 65 863 q 41 906 47 890 q 36 936 36 922 q 45 957 36 947 q 67 975 55 967 q 93 987 80 982 q 115 994 106 991 q 127 989 115 991 q 160 983 140 986 q 202 977 179 980 q 247 972 226 975 q 282 968 267 970 q 302 967 298 967 q 320 967 310 967 q 341 968 331 968 q 361 970 352 969 q 377 972 371 971 q 395 979 387 975 q 412 988 404 983 q 430 996 420 992 q 450 999 439 999 q 473 997 463 999 q 491 991 482 994 q 509 985 500 988 q 529 979 517 981 l 529 969 q 545 965 541 969 q 549 954 549 960 q 547 940 549 947 q 545 926 545 932 l 561 926 q 557 884 561 902 q 541 847 553 867 l 529 842 q 525 834 526 840 q 524 825 524 828 l 519 825 q 507 810 513 825 q 494 778 500 796 q 483 743 488 760 q 475 720 477 726 q 472 714 473 714 q 471 715 471 713 q 469 718 470 717 q 465 715 467 719 l 462 711 q 459 705 459 707 q 455 694 458 703 q 450 677 452 686 q 445 659 447 668 q 442 647 443 650 q 433 630 439 646 q 418 590 427 614 q 401 539 410 567 q 386 488 393 512 q 374 446 378 464 q 372 425 370 429 l 299 197 q 292 174 296 186 q 289 149 289 161 l 289 134 q 290 130 289 133 q 291 123 290 126 q 293 116 292 119 q 294 113 294 113 l 289 108 l 289 98 q 288 91 289 96 q 285 82 287 87 q 282 72 283 77 q 279 66 280 68 q 284 59 285 63 q 283 52 283 56 l 283 45 q 271 22 277 32 q 256 6 264 12 q 237 -4 248 -1 q 210 -7 226 -7 q 192 -7 202 -7 q 172 -4 181 -7 q 157 4 163 -1 q 151 20 151 10 z "},"8":{"ha":593,"x_min":55,"x_max":539,"o":"m 123 77 q 106 84 117 77 q 86 103 96 92 q 69 126 77 115 q 60 145 61 138 l 65 155 q 61 161 65 157 q 55 165 58 165 l 55 185 q 60 207 55 195 q 65 224 65 218 q 62 232 65 227 q 60 241 60 238 l 60 247 q 67 284 60 262 q 85 330 74 307 q 109 373 96 353 q 133 406 121 394 q 140 414 136 409 q 145 421 145 420 l 145 433 q 156 439 149 437 q 172 445 163 442 q 191 450 181 447 q 208 460 200 454 q 203 472 208 464 q 192 487 199 479 q 179 500 185 494 q 168 506 172 506 q 162 512 168 508 q 150 522 157 516 q 139 533 144 527 q 138 546 135 540 l 106 578 q 103 591 107 581 q 93 612 99 601 q 82 631 87 623 q 75 642 77 640 l 80 648 q 65 667 70 654 q 60 696 61 680 q 59 726 58 711 q 59 750 59 741 l 59 780 q 65 785 62 780 q 69 791 69 789 l 69 795 q 68 801 69 798 q 64 806 67 803 q 69 815 66 808 q 75 828 72 821 q 81 842 79 836 q 85 850 84 848 q 93 866 87 854 q 107 889 99 877 q 122 908 115 901 q 134 913 130 916 q 137 925 134 916 q 144 937 141 933 q 150 934 145 938 q 157 930 155 930 q 172 955 157 944 q 206 973 186 966 q 244 985 225 981 q 271 989 262 989 q 323 972 300 989 q 357 930 347 956 q 361 911 361 921 q 368 892 362 901 l 384 892 l 401 892 l 412 897 q 439 885 423 895 q 469 861 454 875 q 493 830 483 846 q 503 802 503 814 q 499 794 503 800 q 496 785 496 788 q 499 768 496 779 q 505 754 503 758 q 509 730 509 743 q 510 705 510 716 q 508 687 510 696 q 503 669 505 678 q 497 650 500 659 q 495 631 495 640 l 490 631 q 490 601 490 614 q 481 572 490 587 q 464 548 476 562 q 441 517 452 533 q 421 486 429 501 q 414 460 412 471 q 424 445 415 455 q 442 425 432 435 q 459 403 452 414 q 464 385 466 392 l 474 391 l 474 385 q 479 377 474 383 q 485 369 485 370 l 485 361 q 492 356 488 359 q 496 349 496 352 q 495 346 496 348 q 490 342 494 344 q 497 336 494 340 q 502 326 500 332 q 506 316 505 321 q 507 309 507 311 q 512 310 509 309 q 517 304 515 311 q 522 288 519 294 q 527 276 524 281 q 532 266 529 271 q 539 252 535 260 l 539 248 q 536 243 539 244 q 534 236 534 241 q 536 227 534 229 q 539 218 539 225 q 538 213 539 215 q 534 208 538 211 l 539 202 l 539 135 q 535 130 536 135 q 534 122 534 125 q 536 115 534 121 q 539 106 539 109 q 532 99 538 104 q 522 87 527 94 q 513 72 516 81 q 513 54 509 64 q 499 39 507 48 q 480 22 490 31 q 460 5 471 13 q 442 -5 450 -2 q 430 -7 435 -8 q 422 -6 426 -6 q 415 -7 419 -5 q 406 -16 412 -8 l 292 -16 q 289 -20 292 -18 q 282 -22 285 -22 q 266 -20 270 -22 q 259 -15 261 -18 q 254 -10 256 -13 q 245 -5 252 -7 q 215 0 227 -1 q 193 2 203 1 q 172 8 182 3 q 149 26 162 13 q 141 36 145 29 q 132 51 136 43 q 125 65 128 58 q 123 77 123 73 m 190 164 q 203 142 194 153 q 224 124 212 132 q 248 112 235 117 q 271 109 261 108 l 279 101 q 303 113 291 110 q 328 118 315 116 q 351 126 340 121 q 370 144 361 131 q 387 165 378 153 q 397 197 396 177 l 397 201 l 397 202 q 396 209 397 203 q 392 221 394 215 q 388 233 390 228 q 387 239 387 239 q 380 258 385 245 q 369 284 376 270 q 353 314 361 299 q 335 342 345 330 q 314 363 325 355 q 293 371 303 371 q 268 354 277 363 q 250 336 258 346 q 235 314 243 326 q 218 288 228 302 l 223 283 q 205 260 211 273 q 198 234 200 248 q 195 206 195 220 q 195 179 195 192 q 192 171 195 176 q 190 164 190 165 m 277 595 q 285 593 280 595 q 294 587 290 591 q 302 579 299 584 q 302 570 304 574 q 319 577 311 573 q 330 593 328 581 q 334 604 331 596 q 340 620 337 611 q 346 636 343 629 q 348 648 348 644 q 356 659 353 650 q 360 677 359 667 q 362 696 362 687 q 363 710 363 705 q 359 733 363 721 q 351 759 355 746 q 343 785 347 772 q 340 809 340 798 l 340 814 l 346 825 q 341 829 345 826 q 334 837 338 833 q 327 845 330 841 q 323 850 323 848 q 278 835 298 842 q 244 817 258 828 q 220 790 230 806 q 207 747 211 773 l 201 741 l 201 735 l 207 735 q 208 721 207 730 q 212 702 210 711 q 216 683 214 692 q 222 668 219 674 q 234 653 225 663 q 252 632 243 643 q 270 610 262 621 q 277 595 277 600 z "},"9":{"ha":593,"x_min":47,"x_max":555,"o":"m 157 -5 q 146 4 151 1 q 136 10 140 7 q 130 17 132 13 q 127 32 127 22 q 109 36 115 32 q 98 47 102 41 q 90 60 94 53 q 78 74 86 68 q 86 95 83 85 q 92 111 90 103 q 94 121 94 119 q 93 124 94 122 q 90 126 91 126 q 108 141 101 135 q 123 152 115 148 q 143 158 132 156 q 175 160 155 160 q 197 157 186 160 q 218 150 208 153 q 238 142 228 146 q 258 139 248 139 q 281 145 269 139 q 307 160 294 151 q 332 182 319 170 q 353 207 344 194 l 358 207 q 359 217 358 208 q 363 228 361 225 q 367 237 363 229 q 373 256 370 245 q 379 275 376 266 q 382 285 382 283 l 376 296 q 378 300 376 296 q 383 307 380 303 q 389 314 386 311 q 393 319 391 317 l 393 320 q 392 333 393 323 q 388 347 392 344 q 396 357 393 350 q 400 371 398 363 q 405 384 402 378 q 413 391 407 389 q 411 396 412 392 q 411 405 411 400 q 410 415 410 410 q 409 420 410 419 l 370 388 q 341 381 357 388 q 309 374 326 374 l 299 379 q 295 380 298 380 q 290 382 292 380 q 283 384 287 382 l 278 379 l 273 379 q 239 385 258 379 q 202 399 220 391 q 172 414 185 406 q 157 425 159 421 l 163 430 q 155 434 159 431 q 148 440 151 437 q 140 444 144 443 q 131 444 136 446 l 121 470 q 109 472 113 468 q 102 482 105 476 q 96 493 99 488 q 90 502 94 499 l 78 502 q 70 515 73 507 q 65 531 68 523 q 59 547 62 539 q 47 559 55 555 q 56 564 55 558 q 58 574 58 570 q 53 591 58 583 q 47 612 47 600 l 47 617 q 50 626 47 620 q 52 633 52 632 l 47 644 l 47 663 l 47 680 l 52 690 q 50 699 52 693 q 47 707 47 705 l 47 722 q 55 766 47 743 q 72 812 62 789 q 94 856 83 835 q 115 896 106 878 l 121 901 q 130 909 125 903 q 138 922 134 916 q 146 935 142 929 q 157 943 151 941 q 174 950 163 945 q 195 963 184 956 q 215 974 206 969 q 228 979 224 979 q 339 952 291 979 q 420 881 388 925 q 426 874 420 880 q 435 865 433 868 l 432 861 q 442 859 439 861 q 446 856 445 858 q 448 849 447 853 q 452 839 448 845 q 459 828 454 836 q 470 810 464 820 q 480 792 475 800 q 486 780 485 783 q 488 765 485 771 q 495 753 491 759 q 504 743 500 748 q 507 730 507 737 q 507 726 507 728 q 502 722 506 725 q 510 719 507 721 q 516 715 513 718 q 518 712 518 713 q 516 706 518 711 q 512 701 515 701 q 525 695 522 698 q 528 689 528 693 q 527 679 528 685 q 528 664 526 673 q 533 657 528 663 q 538 648 538 651 q 548 622 545 634 q 552 597 551 610 q 552 570 553 584 q 549 538 551 556 l 555 533 l 555 430 q 551 426 553 430 q 549 420 549 421 q 552 411 549 417 q 555 404 555 405 q 549 378 555 388 q 538 356 543 368 q 531 327 536 347 q 521 286 526 307 q 511 247 515 264 q 507 222 507 229 q 509 218 507 220 q 512 217 511 217 q 499 200 508 214 q 480 166 491 186 q 457 124 469 146 q 434 84 446 102 q 414 56 423 66 q 399 47 404 45 q 385 28 393 33 q 369 20 377 22 q 355 15 361 18 q 347 5 349 13 l 332 -1 q 315 -9 321 -7 q 300 -11 309 -11 l 294 -5 q 285 -8 291 -5 q 278 -11 279 -11 q 270 -10 276 -11 q 257 -8 264 -9 q 244 -6 250 -7 q 236 -5 238 -5 l 157 -5 m 177 680 q 183 627 177 656 q 203 573 190 597 q 238 531 217 548 q 290 515 260 515 q 321 521 309 515 q 344 527 334 527 q 361 538 353 534 q 375 547 369 543 q 388 555 382 551 q 400 565 394 559 l 400 583 q 395 616 400 595 q 382 663 390 637 q 363 714 374 688 q 342 763 353 741 q 320 801 331 785 q 300 821 309 817 q 293 826 298 823 q 282 831 288 829 q 272 837 277 834 q 265 840 267 839 q 245 827 256 835 q 226 808 235 819 q 210 788 217 798 q 200 768 203 777 l 200 751 q 192 740 196 744 q 184 732 188 735 q 179 724 181 728 q 177 710 177 719 l 177 698 l 184 692 l 177 680 z "}," ":{"ha":318,"x_min":0,"x_max":0,"o":""},"!":{"ha":338,"x_min":87,"x_max":259,"o":"m 87 69 q 111 130 87 106 q 174 153 135 153 q 186 151 179 153 q 198 144 193 149 q 208 135 204 140 q 212 123 212 130 q 222 121 215 123 q 238 115 230 118 q 251 107 245 111 q 257 101 257 104 q 255 94 257 98 q 252 90 254 90 l 259 90 q 255 47 259 66 q 241 14 251 28 q 214 -7 231 1 q 174 -15 198 -15 q 139 -8 154 -15 q 115 10 125 -1 q 101 36 106 21 q 96 69 96 52 l 87 69 m 89 375 q 90 387 89 381 q 95 397 90 393 l 95 453 q 105 522 100 491 q 109 548 107 535 q 112 571 111 561 q 114 588 113 581 q 115 595 115 594 q 113 610 115 603 q 111 624 111 616 q 111 644 111 635 q 115 665 112 652 l 115 839 q 112 847 113 842 q 111 854 111 853 l 115 859 l 115 863 q 113 867 115 865 q 107 873 111 870 q 102 883 104 877 q 100 897 100 888 l 91 897 q 109 953 91 930 q 162 976 127 976 q 194 971 179 976 q 221 956 210 966 q 240 932 233 947 q 247 898 247 917 q 241 858 247 880 q 236 818 236 836 q 236 802 236 812 q 237 782 236 792 q 240 762 238 771 q 247 749 243 753 l 247 639 q 250 629 248 637 q 252 618 252 621 q 252 613 252 616 q 250 605 251 609 q 249 597 250 601 q 247 592 248 593 l 252 587 q 242 565 245 578 q 239 536 239 551 q 238 507 239 522 q 236 484 238 493 q 241 476 239 481 q 244 465 243 471 q 246 453 245 458 q 247 447 247 448 q 241 441 241 446 q 242 433 242 437 q 244 424 242 426 q 247 414 247 421 l 247 412 q 244 404 247 409 q 242 397 242 398 l 247 387 l 247 367 q 234 328 247 343 q 205 296 222 313 l 199 296 q 163 301 182 296 q 127 315 144 305 q 100 339 111 324 q 89 375 89 354 z "},"\"":{"ha":424,"x_min":41,"x_max":384,"o":"m 67 700 q 68 708 67 705 q 73 718 68 712 l 67 749 l 63 822 l 58 871 l 58 880 q 57 893 58 888 q 53 903 55 899 q 48 911 50 907 q 45 920 45 915 q 44 925 45 920 q 43 933 43 929 q 41 942 42 938 q 41 947 41 946 q 55 969 41 958 q 101 980 68 980 l 113 980 q 131 975 121 977 q 150 969 141 972 q 165 960 159 966 q 172 944 172 954 q 174 928 172 939 q 178 900 177 918 l 183 867 l 180 835 q 178 804 176 819 q 179 772 179 788 q 177 728 179 751 q 175 684 175 706 q 163 662 175 673 q 160 659 163 661 l 157 658 q 151 657 155 658 q 143 657 147 657 q 134 656 138 656 q 130 656 130 656 l 90 665 q 83 671 87 666 q 76 682 79 676 q 70 693 73 688 q 67 700 67 699 m 376 715 q 375 711 376 714 q 373 703 374 707 q 371 696 372 699 q 370 692 370 692 q 367 685 370 690 q 362 680 364 680 l 354 672 q 339 663 351 669 q 304 658 328 658 q 287 662 294 658 q 275 673 279 667 q 268 686 270 680 q 265 699 265 693 q 264 704 265 701 q 262 710 262 707 l 262 713 q 260 716 262 713 q 258 720 258 720 q 258 724 258 721 q 260 731 259 727 q 262 738 261 734 q 262 742 262 741 q 261 760 262 746 q 259 788 260 773 q 257 817 258 804 q 256 835 256 831 q 258 882 258 860 q 250 932 258 904 l 250 940 q 248 949 248 945 q 248 955 248 952 q 251 956 249 958 q 263 968 255 964 q 279 975 271 972 q 297 977 288 977 q 314 977 307 977 q 327 976 321 977 q 342 975 332 975 q 349 972 342 975 q 362 966 355 970 q 376 958 370 963 q 382 947 382 954 q 381 896 384 924 q 374 842 379 867 l 372 789 l 373 764 l 376 715 z "},"#":{"ha":660,"x_min":33,"x_max":616,"o":"m 95 150 q 102 191 95 168 q 119 237 110 214 q 136 283 128 261 q 144 324 144 306 q 139 329 144 328 q 126 331 134 330 q 110 331 119 331 q 95 332 102 330 q 75 335 86 333 q 55 341 64 336 q 40 354 46 345 q 33 378 33 363 l 33 405 q 49 418 41 413 q 68 423 57 423 q 82 423 73 423 q 99 422 90 422 q 116 422 109 422 q 129 422 124 422 q 151 437 142 422 q 164 473 159 453 q 172 512 170 494 q 174 537 174 531 q 175 552 174 541 q 176 573 176 562 q 174 593 176 585 q 166 602 172 602 l 119 602 l 96 625 q 81 662 81 640 q 93 692 81 678 q 123 706 104 706 q 156 701 139 706 q 190 696 173 696 q 213 709 204 696 q 227 740 222 721 q 234 780 232 758 q 237 820 236 802 q 240 852 239 839 q 245 866 241 865 l 245 929 q 254 937 250 933 l 269 952 q 287 959 275 958 q 302 961 299 961 q 321 953 311 961 q 338 935 330 945 q 350 915 345 925 q 355 899 355 904 l 355 895 q 351 889 355 893 q 345 886 347 886 q 349 882 349 884 q 349 876 349 880 q 343 841 349 862 q 331 798 338 820 q 318 755 323 776 q 312 720 312 734 l 312 703 q 319 703 313 703 q 331 702 324 703 q 342 701 337 701 q 349 701 348 701 q 365 702 354 701 q 386 704 375 703 q 407 707 397 706 q 420 710 417 709 q 432 739 427 720 q 442 785 437 759 q 451 840 447 810 q 457 899 454 869 q 464 933 459 920 q 474 954 468 946 q 487 964 480 961 q 501 966 494 966 q 523 961 513 966 q 541 948 533 956 q 553 930 549 940 q 558 909 558 920 q 556 890 558 899 q 550 872 553 882 q 545 854 547 863 q 543 836 543 846 q 542 829 543 834 q 541 818 541 824 q 540 808 540 812 q 543 802 541 803 q 537 791 540 801 q 531 769 534 781 q 527 745 528 756 q 525 730 525 733 q 529 724 525 724 q 563 726 547 726 q 591 719 579 725 q 609 702 603 713 q 616 669 616 690 q 548 629 616 618 q 529 630 536 631 q 518 627 522 629 q 511 622 514 625 q 505 616 509 619 q 491 587 498 609 q 478 540 484 565 q 469 492 473 515 q 465 460 465 469 l 465 436 q 514 438 494 436 q 558 442 534 440 q 568 443 559 442 q 583 440 576 444 l 583 432 q 589 433 585 432 q 593 436 593 434 q 605 409 604 420 q 607 379 607 397 l 607 355 q 604 352 606 355 q 598 346 601 349 q 592 340 595 343 q 589 337 589 338 q 584 335 586 335 q 580 336 582 336 q 576 336 578 336 q 574 332 575 336 q 555 330 568 332 q 531 321 541 329 q 503 335 518 333 q 473 337 487 337 l 456 337 q 439 333 444 336 q 432 325 433 330 q 430 315 430 320 q 427 304 429 309 q 424 279 425 295 q 424 247 424 264 q 425 214 425 230 q 423 190 425 199 q 416 177 421 184 q 414 170 410 170 l 414 166 q 409 153 414 159 q 404 142 404 148 q 402 123 402 131 q 401 111 402 116 q 396 102 400 106 q 381 96 391 99 q 376 92 378 94 q 373 87 374 90 q 371 83 372 85 q 365 81 369 81 q 333 92 348 81 q 311 115 319 102 q 306 132 311 123 q 301 149 301 141 q 301 154 301 152 q 305 157 302 155 q 301 160 302 159 q 301 163 301 162 q 306 192 301 172 q 315 234 310 212 q 325 277 321 256 q 330 309 330 298 q 324 320 330 317 q 315 332 319 324 l 289 332 q 272 331 279 332 q 260 327 266 330 q 249 320 255 324 q 235 310 243 316 q 232 307 232 307 q 231 305 231 306 q 232 302 231 304 q 231 296 232 300 q 218 250 226 273 q 203 205 210 227 q 197 169 199 189 q 192 131 196 149 q 176 101 187 113 q 142 89 165 89 q 125 95 134 89 q 110 111 117 102 q 99 131 103 121 q 95 150 95 142 m 248 440 q 254 426 248 430 q 272 422 259 422 q 315 422 297 422 q 346 428 333 423 q 366 444 358 433 q 380 475 374 455 q 387 502 383 486 q 394 535 391 517 q 399 570 397 553 q 401 597 401 587 q 400 607 401 603 q 393 612 399 612 l 387 612 q 369 610 383 610 q 337 608 354 609 q 307 606 321 607 q 288 604 292 605 q 276 599 279 601 q 271 588 273 597 q 267 558 269 579 q 257 495 264 536 l 248 468 l 248 450 l 248 440 z "},"$":{"ha":593,"x_min":39,"x_max":537,"o":"m 210 -82 q 214 -66 210 -73 q 218 -52 218 -60 q 213 -21 218 -35 q 195 0 209 -6 q 149 20 173 11 q 104 43 124 30 q 70 76 83 56 q 57 125 57 95 q 61 140 57 130 q 71 160 64 150 q 85 177 77 170 q 103 184 94 184 q 124 176 112 184 q 149 157 136 168 q 175 139 162 147 q 199 131 188 131 q 207 127 203 129 q 213 125 210 125 q 215 125 215 124 q 216 130 215 126 q 219 139 217 134 q 221 148 220 143 q 222 153 222 152 q 222 216 222 186 q 222 273 222 245 q 222 330 222 301 q 222 390 222 358 l 222 445 q 195 458 212 447 q 159 482 177 469 q 129 509 142 496 q 116 530 116 523 q 95 544 106 530 q 73 576 83 557 q 53 613 62 594 q 39 641 43 631 q 43 643 41 641 q 44 646 44 644 q 43 653 44 648 q 39 659 41 659 l 39 754 q 45 767 42 758 q 50 785 47 776 q 53 803 52 795 q 56 812 55 810 q 70 847 62 828 q 88 884 78 866 q 111 918 98 903 q 140 944 124 934 q 163 956 150 950 q 190 967 176 962 q 218 975 204 972 q 243 977 231 977 q 244 985 243 977 q 244 1003 244 992 q 244 1027 244 1015 q 243 1050 243 1040 q 243 1063 243 1053 q 242 1075 242 1072 q 257 1090 248 1083 q 275 1100 264 1095 q 300 1105 286 1105 q 337 1095 319 1105 q 361 1072 355 1085 q 360 1051 361 1061 q 358 1032 359 1042 q 354 1010 357 1022 q 347 984 351 999 q 381 978 359 982 q 425 965 403 974 q 463 941 447 956 q 479 901 479 926 q 479 892 479 900 q 478 877 479 885 q 476 861 477 868 q 474 852 475 853 q 454 834 467 842 q 429 825 441 825 q 415 829 422 825 q 403 837 409 833 q 390 845 397 842 q 376 849 384 849 q 362 852 370 849 q 349 857 354 855 q 347 833 347 848 q 348 799 347 819 q 346 792 347 797 q 343 780 345 787 q 342 767 342 774 q 341 754 341 760 l 348 714 l 348 705 q 347 701 348 705 q 345 694 346 698 q 342 686 343 690 q 341 682 341 683 l 348 649 q 345 603 348 627 q 341 557 341 579 q 350 533 341 545 q 371 510 359 521 q 396 490 383 499 q 417 475 409 481 l 413 470 q 426 466 420 467 q 436 463 432 465 q 444 459 441 462 q 448 450 447 456 q 466 418 454 435 q 490 385 478 401 q 512 351 502 368 q 525 320 522 335 l 517 311 l 528 301 q 532 286 530 294 q 534 273 533 280 q 537 261 536 267 l 537 258 q 534 249 537 254 q 532 240 532 243 q 534 232 532 235 q 537 224 536 230 l 537 159 l 532 155 q 537 144 537 150 q 527 115 537 132 q 501 79 517 98 q 465 42 485 60 q 424 11 444 24 q 385 -9 404 -3 q 353 -12 366 -16 l 326 -16 l 328 -52 l 324 -60 l 324 -65 q 328 -74 325 -68 q 335 -84 331 -79 q 341 -95 338 -90 q 344 -104 344 -100 q 343 -110 344 -105 q 340 -121 342 -115 q 337 -131 338 -126 q 336 -138 336 -136 l 334 -149 q 322 -164 328 -159 q 309 -171 316 -169 q 293 -173 302 -173 q 273 -173 284 -173 q 245 -164 257 -173 q 225 -143 233 -156 q 213 -114 217 -130 q 210 -82 210 -98 m 334 118 q 351 123 341 118 q 369 137 360 129 q 383 153 377 144 q 389 168 389 162 q 390 177 389 171 q 392 189 391 182 q 394 201 393 195 q 395 210 395 206 q 389 259 394 237 q 381 287 384 281 q 376 300 380 292 q 368 316 372 308 q 360 331 364 324 q 353 343 355 338 q 342 352 349 350 q 330 361 335 354 q 328 333 328 350 q 327 298 327 316 q 326 262 326 279 q 326 233 326 244 q 326 223 326 230 q 324 210 325 217 q 322 195 323 202 q 321 185 321 189 l 334 118 m 176 722 q 178 696 176 713 q 185 660 180 680 q 200 624 191 641 q 222 599 209 607 q 225 600 223 598 q 229 603 227 601 q 233 607 231 605 q 235 610 235 609 l 235 698 q 237 719 235 702 q 240 756 239 736 q 242 792 241 776 q 239 810 242 808 l 235 817 q 234 825 233 819 q 235 836 235 831 q 237 846 236 842 q 236 850 237 850 q 213 841 220 850 q 205 823 205 831 q 190 808 195 816 q 183 785 184 800 q 178 759 180 777 q 176 722 176 741 z "},"%":{"ha":911,"x_min":50,"x_max":857,"o":"m 197 -1 q 185 26 193 12 q 178 53 178 40 q 183 74 178 62 q 197 97 189 86 q 214 118 205 109 q 228 133 222 127 l 349 361 q 352 372 349 363 q 354 385 355 380 q 378 419 368 402 q 397 454 388 437 q 414 490 406 472 q 434 528 423 508 q 474 601 454 566 q 512 669 494 635 q 545 740 530 703 q 570 819 560 777 q 566 823 566 821 q 565 829 565 825 q 568 838 565 831 q 574 851 570 844 q 581 864 577 858 q 585 870 584 869 l 578 870 q 576 880 578 875 q 570 886 574 884 q 584 918 577 902 q 600 945 591 933 q 620 963 608 956 q 650 970 632 970 l 650 962 q 680 955 665 962 q 706 937 694 947 q 724 913 717 926 q 730 889 730 901 q 725 870 730 878 q 713 855 720 863 q 700 840 707 848 q 691 821 694 832 q 685 790 688 806 q 680 758 682 773 q 675 743 680 750 q 665 729 671 736 q 654 717 660 723 q 646 706 649 711 q 634 672 639 691 q 621 637 630 652 q 606 613 614 625 q 590 591 598 602 q 573 569 581 581 q 559 546 566 558 q 549 520 557 538 q 532 482 541 502 q 516 444 524 462 q 505 418 508 426 q 497 410 503 415 q 489 401 491 404 q 471 369 481 387 q 451 332 461 351 q 430 296 441 313 q 409 269 420 279 q 400 249 406 262 q 385 219 393 235 q 368 185 377 203 q 352 150 359 167 q 337 120 344 134 q 328 100 331 107 q 313 61 319 81 q 296 24 306 41 q 273 -3 287 7 q 235 -14 258 -14 q 225 -12 230 -14 q 216 -6 220 -9 q 207 -2 212 -3 q 197 -1 201 0 m 510 187 l 514 193 l 510 243 q 504 251 510 244 q 498 260 498 257 l 514 326 l 525 332 q 531 346 528 336 q 537 366 534 355 q 543 386 540 376 q 547 399 545 395 q 563 424 551 410 q 588 453 575 439 q 610 480 600 468 q 621 499 621 493 l 648 499 q 681 496 661 499 q 721 486 701 492 q 758 468 741 479 q 782 443 775 458 q 795 421 789 429 q 809 406 802 413 q 822 391 815 399 q 836 371 828 383 q 849 335 846 353 q 857 299 852 317 l 857 187 q 848 148 849 170 q 842 108 848 127 q 830 91 837 100 q 819 75 823 83 q 805 43 810 55 q 794 23 800 31 q 776 12 787 16 q 739 3 764 7 q 716 -7 728 1 q 690 -14 705 -14 q 663 -9 676 -14 q 637 2 650 -5 q 611 17 624 9 q 584 31 598 24 q 559 58 572 39 q 535 99 546 77 q 517 145 524 122 q 510 184 510 168 l 510 187 m 612 184 q 622 157 612 171 q 646 131 632 142 q 675 111 661 119 q 700 103 690 103 l 713 103 q 738 136 730 119 q 750 170 747 153 q 754 207 754 188 q 755 245 755 225 q 752 267 755 253 q 744 297 749 281 q 732 329 739 313 q 717 358 725 345 q 701 380 709 372 q 683 389 692 389 l 664 374 l 649 370 q 638 357 646 369 q 624 330 631 345 q 611 301 616 315 q 605 284 605 288 q 609 270 605 276 q 613 258 613 264 q 611 243 613 252 q 609 225 610 235 q 609 207 608 216 q 618 189 611 197 q 612 184 612 189 m 157 504 q 140 513 147 507 q 127 526 133 519 q 116 541 121 533 q 104 556 111 549 l 92 560 q 85 588 91 575 q 74 613 80 601 q 62 637 68 625 q 55 661 57 649 l 55 696 q 59 707 60 698 q 57 729 59 716 q 53 755 55 741 q 50 779 50 768 l 50 806 l 55 823 l 50 833 l 50 839 q 72 879 61 855 q 96 925 83 903 q 126 963 109 947 q 168 979 143 979 q 181 977 171 979 q 202 974 191 976 q 222 968 214 971 q 231 962 231 965 l 231 956 q 255 953 240 956 q 284 944 270 950 q 308 929 298 939 q 317 907 317 920 l 322 907 q 330 902 324 907 q 342 889 336 897 q 355 874 349 882 q 364 860 361 866 q 380 834 372 849 q 395 803 388 819 q 409 769 403 786 q 418 739 415 753 l 418 722 l 425 711 q 425 702 425 709 q 427 688 426 695 q 429 675 428 681 q 429 667 429 669 q 428 644 429 656 q 423 618 426 631 q 418 593 420 606 q 414 572 416 581 q 403 565 412 565 q 391 565 394 566 q 387 560 389 564 q 382 546 383 553 q 376 532 382 538 q 351 510 364 521 q 323 490 338 498 q 293 476 309 481 q 260 471 277 471 l 242 471 l 231 476 l 222 471 q 186 480 202 471 q 157 501 170 490 l 157 504 m 213 604 q 231 600 227 604 q 236 583 236 596 q 270 598 254 583 q 295 635 285 614 q 312 680 306 656 q 317 717 317 703 q 311 743 317 729 q 297 772 305 758 q 280 802 289 787 q 265 830 271 817 q 236 854 254 844 q 199 864 219 864 q 190 857 196 864 q 179 839 184 849 q 169 816 173 828 q 165 794 165 804 l 172 783 q 165 779 172 779 l 165 744 q 175 672 165 703 q 210 606 186 640 l 213 604 z "},"&":{"ha":779,"x_min":41,"x_max":739,"o":"m 556 56 q 549 68 556 65 q 528 71 542 71 q 513 65 522 71 q 495 50 504 58 q 477 33 486 41 q 464 22 469 25 l 431 7 l 389 -8 l 340 -16 l 304 -11 q 291 -19 300 -18 q 269 -17 281 -20 q 246 -11 258 -14 q 227 -7 235 -7 l 222 -3 l 212 -3 q 203 -2 208 -3 q 192 1 198 -1 q 181 5 186 3 q 172 8 176 7 q 159 19 163 13 q 146 28 155 25 q 116 50 128 37 q 92 81 104 62 q 83 97 90 83 q 67 128 75 111 q 53 158 59 144 q 46 174 46 172 l 57 191 l 41 202 q 44 214 41 205 q 46 225 46 222 q 44 255 47 241 q 41 286 41 270 q 42 295 41 292 q 44 300 43 298 q 45 306 45 303 q 46 313 46 309 l 46 318 l 41 329 q 46 337 41 331 q 53 345 50 343 l 46 352 q 52 360 48 353 q 61 381 56 368 q 73 408 66 393 q 87 438 79 423 q 102 465 94 452 q 119 484 111 477 q 135 498 127 492 q 150 510 142 505 q 164 521 157 515 q 179 534 172 526 l 179 538 q 190 543 181 541 q 201 547 199 545 q 189 556 195 549 q 179 571 183 563 q 172 587 174 579 q 169 601 169 595 l 168 610 q 157 636 165 625 q 150 659 150 647 q 149 669 150 663 q 148 683 149 676 q 147 697 148 690 q 146 707 146 703 q 145 744 149 734 q 142 756 142 753 q 144 766 142 759 q 147 781 145 774 q 149 795 149 789 q 148 804 150 802 q 157 822 153 812 q 165 842 161 832 q 173 860 170 852 q 179 875 176 869 q 194 895 189 881 q 206 918 200 909 q 234 943 214 931 q 279 965 254 956 q 327 979 303 974 q 363 985 350 985 q 376 985 368 985 q 393 985 385 985 q 410 984 402 985 q 420 981 417 983 l 427 969 q 432 965 427 968 q 443 960 437 962 q 458 953 450 957 q 477 934 466 947 q 500 906 489 921 q 520 877 511 891 q 530 853 528 862 l 530 814 q 534 806 532 809 q 538 802 536 804 q 541 796 540 800 q 543 787 543 793 q 541 779 543 783 q 536 771 540 774 q 541 765 540 767 q 543 760 543 763 q 541 739 543 748 q 535 721 538 729 q 527 705 532 713 q 519 688 523 697 q 514 667 515 679 q 509 648 513 655 q 481 610 496 626 q 447 578 467 593 q 410 546 429 563 q 372 511 390 528 q 388 467 388 493 l 393 467 q 400 453 394 462 q 415 435 407 445 q 433 415 424 425 q 450 396 443 405 q 461 381 457 387 q 464 372 465 374 q 481 353 473 365 q 499 328 490 341 q 518 304 509 315 q 536 290 527 294 q 544 300 543 292 q 547 313 545 309 q 550 319 548 315 q 555 329 553 323 q 561 338 558 334 q 564 345 563 342 l 558 352 q 564 373 562 363 q 574 407 570 392 q 583 442 581 422 q 585 480 585 462 l 585 500 l 593 534 q 601 537 595 534 q 614 544 607 541 q 631 550 622 547 q 650 553 640 553 q 680 529 668 541 q 697 503 691 517 q 705 471 703 489 q 707 429 707 453 q 704 399 707 414 q 696 370 701 384 q 686 342 691 356 q 679 316 682 329 q 674 301 678 309 q 665 285 670 293 q 654 271 659 277 q 647 258 649 264 q 642 251 646 256 q 635 239 639 245 q 628 227 631 233 q 625 218 625 221 l 625 202 q 631 178 625 188 q 647 160 637 168 q 666 145 656 152 q 685 130 677 138 l 685 124 q 692 118 687 122 q 702 108 696 113 q 711 98 707 102 q 719 92 716 94 q 729 80 725 87 q 735 65 732 73 q 738 51 737 58 q 739 41 739 44 q 734 20 739 32 q 723 -3 729 8 l 719 -4 l 715 0 q 706 -9 712 -3 q 691 -21 699 -15 q 676 -31 684 -26 q 663 -35 668 -35 q 650 -28 657 -35 q 635 -19 642 -21 q 615 -11 624 -15 q 599 -2 606 -7 q 586 11 592 3 q 574 29 581 18 l 556 56 m 220 136 q 264 111 239 119 q 319 103 289 103 q 351 110 329 103 q 396 128 374 117 q 436 154 418 140 q 453 184 453 169 q 437 199 448 191 q 420 216 425 206 q 390 262 406 241 q 360 301 374 283 q 333 331 345 318 q 317 352 321 344 q 311 360 315 354 q 301 372 307 366 q 290 386 296 379 q 282 395 285 392 q 277 404 281 398 q 269 417 273 410 q 262 430 265 423 q 259 441 259 437 q 237 430 247 441 q 217 404 227 418 q 199 376 208 390 q 182 358 191 363 l 182 330 l 187 326 q 182 315 185 322 q 176 299 179 307 q 171 283 173 291 q 169 271 169 276 q 171 267 169 270 q 175 259 173 263 q 180 252 178 255 q 182 247 182 248 l 182 224 l 186 193 q 193 181 189 189 q 201 164 197 173 q 210 148 206 155 q 214 136 213 140 l 220 136 m 277 692 q 281 677 277 689 q 292 652 286 666 q 307 618 298 637 l 321 623 q 341 642 329 635 q 360 663 353 649 l 380 684 q 399 695 393 688 q 408 708 405 701 q 412 723 411 715 q 416 736 414 730 q 418 746 418 741 q 418 755 418 751 q 418 762 418 759 q 423 766 419 764 q 422 775 423 767 q 422 787 422 784 q 417 808 422 795 q 403 835 412 822 q 383 858 395 848 q 359 868 372 868 q 325 859 338 868 q 304 837 312 850 q 291 809 296 823 q 282 787 286 795 q 279 766 279 776 q 273 747 279 757 l 277 692 z "},"'":{"ha":258,"x_min":59,"x_max":199,"o":"m 80 702 q 80 715 80 707 q 80 731 80 723 q 78 748 79 740 q 75 760 77 755 l 71 813 l 59 896 l 59 922 q 61 947 59 936 q 69 965 63 958 q 85 978 75 973 q 112 982 96 982 l 124 982 q 151 977 137 981 q 175 965 164 973 q 193 942 186 956 q 199 905 199 928 q 194 884 199 893 q 189 864 189 875 q 188 845 189 854 q 189 827 187 836 q 191 820 191 825 q 190 810 191 815 q 187 802 189 806 q 185 796 186 798 q 181 777 182 788 q 182 754 181 766 q 183 731 182 743 q 184 709 184 719 q 183 690 184 696 q 176 670 182 683 q 174 666 176 669 q 169 662 172 664 q 162 656 166 659 q 146 655 159 655 q 121 654 133 654 q 107 659 114 656 q 96 666 102 662 q 86 675 90 669 q 81 688 82 678 q 80 702 80 697 z "},"(":{"ha":367,"x_min":72,"x_max":363,"o":"m 77 197 q 76 253 79 227 q 72 309 72 279 q 83 418 72 365 q 102 526 94 472 q 127 651 114 589 q 162 774 140 713 q 185 831 172 802 q 209 886 199 859 q 221 916 214 901 q 237 943 227 931 q 261 963 247 956 q 294 970 275 970 l 305 970 q 316 968 309 970 q 328 964 322 966 q 339 959 334 962 q 343 956 343 957 l 343 951 q 351 950 349 951 q 355 945 353 948 q 358 940 357 943 q 363 936 359 938 l 363 869 q 338 843 349 858 q 318 813 328 829 q 300 780 309 797 q 284 748 292 763 l 284 744 q 282 734 284 742 q 279 718 281 726 q 276 702 277 709 q 274 693 274 695 l 274 687 q 266 665 269 675 q 260 645 262 654 q 256 625 258 635 q 252 602 254 614 l 249 591 q 233 536 241 570 q 218 467 224 503 q 208 398 212 431 q 203 342 203 364 q 206 334 203 336 q 208 325 208 332 q 206 306 208 315 q 203 287 203 296 q 207 249 203 277 q 217 185 211 221 q 232 111 224 150 q 250 40 241 73 q 267 -13 258 8 q 283 -33 275 -33 q 286 -39 283 -34 q 291 -50 288 -44 q 295 -61 293 -56 q 297 -68 296 -66 q 304 -77 299 -71 q 314 -91 309 -84 q 325 -103 319 -98 q 334 -109 330 -109 l 334 -163 q 327 -179 334 -173 q 310 -191 319 -186 q 290 -197 300 -195 q 274 -199 280 -199 q 252 -195 263 -199 q 229 -183 240 -190 q 210 -168 218 -176 q 195 -153 201 -160 q 186 -139 189 -147 q 180 -122 183 -131 q 175 -104 178 -113 q 169 -87 173 -96 q 155 -68 163 -76 q 142 -54 146 -60 l 142 -43 q 134 -20 139 -31 q 123 -1 129 -10 q 111 18 117 8 q 102 39 106 27 q 97 77 98 55 q 93 121 95 98 q 88 163 92 143 q 77 197 85 184 z "},")":{"ha":367,"x_min":-5,"x_max":279,"o":"m 43 -105 q 55 -84 47 -103 q 72 -39 62 -66 q 92 20 81 -12 q 110 78 102 51 q 124 125 119 106 q 130 148 130 144 l 125 157 q 127 173 125 161 q 130 190 129 185 l 136 195 q 130 199 134 195 q 125 205 125 203 l 130 216 q 137 275 136 243 q 136 333 138 307 q 139 337 138 333 q 141 345 141 342 l 136 351 l 141 360 l 141 379 q 139 418 141 399 q 133 457 136 438 q 128 496 130 477 q 125 536 125 516 l 123 536 q 119 558 123 550 q 115 578 115 567 q 115 584 115 582 q 116 588 116 586 q 117 592 117 589 q 118 601 118 595 l 115 601 l 115 617 l 112 617 q 110 639 112 630 q 106 654 108 648 q 102 665 104 661 q 100 674 100 670 q 102 682 100 677 q 104 690 104 686 q 100 708 104 697 q 95 724 96 718 q 85 757 91 743 q 72 785 79 772 q 56 811 65 798 q 37 838 47 824 q 27 846 34 842 q 13 856 20 850 q 1 867 6 861 q -5 880 -5 873 l -5 950 q 0 958 -5 953 q 11 969 5 964 q 25 978 18 974 q 37 981 32 981 q 46 980 39 981 q 63 977 54 979 q 80 974 72 975 q 90 970 87 972 q 100 964 94 970 q 113 950 106 958 q 125 938 120 943 q 132 934 131 932 q 134 923 132 931 q 137 912 136 914 q 161 866 149 888 q 183 824 173 845 q 204 779 194 802 q 222 730 214 756 q 234 676 229 703 q 242 624 239 650 q 250 571 246 597 q 260 516 254 544 q 266 481 262 498 q 271 450 269 465 q 274 417 273 434 q 274 382 275 401 q 278 377 277 381 q 279 369 279 374 q 278 360 279 364 q 278 355 278 357 l 273 237 l 269 216 l 262 165 q 261 146 262 153 q 257 130 260 138 l 233 50 q 236 42 233 49 q 239 33 239 35 l 239 30 q 233 10 239 18 q 223 -9 227 1 l 223 -25 q 218 -44 222 -35 q 210 -62 214 -53 q 202 -80 205 -71 q 198 -100 199 -90 q 190 -153 195 -132 q 174 -187 184 -174 q 147 -205 163 -199 q 104 -212 130 -211 q 86 -198 96 -201 q 66 -190 75 -195 q 50 -171 56 -184 q 43 -124 43 -157 l 43 -105 z "},"*":{"ha":519,"x_min":66,"x_max":467,"o":"m 227 632 q 205 603 220 623 q 170 561 191 584 q 165 554 167 556 q 162 551 163 552 q 157 551 160 551 q 149 551 155 551 q 135 553 143 551 q 120 557 127 554 q 109 566 113 560 q 104 581 104 572 q 113 621 104 602 q 137 658 123 640 q 168 691 151 675 q 197 720 184 707 q 200 726 199 724 q 202 732 202 728 l 202 734 q 138 753 170 741 q 79 775 107 765 q 71 785 74 779 q 67 798 68 790 q 70 819 66 806 q 75 831 69 825 q 87 841 80 837 q 101 846 94 844 q 109 848 108 848 l 125 848 q 174 837 152 848 q 218 815 196 825 l 228 810 q 231 837 231 822 q 231 869 231 852 q 229 901 230 885 q 228 928 228 916 q 232 940 228 934 q 241 951 235 946 q 255 960 248 956 q 269 963 262 963 q 287 961 279 966 q 299 951 294 957 q 306 939 304 945 q 310 934 309 934 l 307 866 l 304 866 q 305 853 304 865 q 308 836 306 842 l 307 821 q 344 873 326 851 q 387 909 361 896 q 394 915 392 914 q 401 916 395 916 q 424 905 413 916 q 434 882 434 895 q 422 846 434 864 q 396 812 410 828 q 371 782 382 795 q 359 760 359 768 q 365 750 359 755 q 381 743 370 746 q 405 736 393 740 q 430 729 418 733 q 450 719 443 725 q 463 706 458 713 q 467 690 467 699 l 465 670 q 463 661 465 666 q 455 651 460 656 q 444 643 450 646 q 429 642 437 640 q 381 656 406 645 q 336 679 357 667 l 326 679 q 317 676 319 679 q 315 665 315 673 q 317 653 315 659 q 322 642 319 648 q 329 631 326 637 q 334 616 332 625 q 339 598 338 610 q 348 576 340 587 l 345 556 q 343 546 345 550 q 338 540 341 543 q 331 535 335 538 q 321 528 327 532 q 286 534 300 526 q 264 557 273 542 q 251 593 256 572 q 241 642 245 615 l 227 632 z "},"+":{"ha":728,"x_min":98,"x_max":669,"o":"m 286 157 q 285 167 286 159 q 290 177 285 175 l 290 256 q 295 269 292 256 q 300 299 298 282 q 304 331 302 316 q 306 350 306 346 q 274 347 290 350 q 240 341 257 345 q 208 334 224 337 q 176 332 191 332 q 120 355 142 332 q 98 412 98 378 l 98 420 l 104 433 q 98 437 104 437 q 110 447 102 442 q 126 456 117 452 q 145 463 136 460 q 161 466 155 466 q 184 464 173 466 q 207 460 196 462 q 229 456 218 458 q 251 454 239 454 q 284 456 271 454 q 313 459 298 459 q 316 490 313 475 q 318 519 318 505 q 319 551 318 534 q 321 583 320 567 q 320 614 321 600 q 313 640 318 629 q 312 645 313 642 q 308 652 310 648 q 303 659 305 656 q 302 663 302 662 l 302 669 l 296 675 l 302 685 q 296 692 302 692 q 310 709 308 701 q 316 723 313 717 q 330 733 320 729 q 367 736 340 736 q 395 730 383 736 q 416 712 408 723 q 428 688 424 702 q 432 661 432 675 q 426 615 432 637 q 420 570 420 594 q 421 521 420 543 q 426 471 422 500 l 455 471 l 526 475 q 537 477 528 475 q 559 482 547 479 q 581 488 571 485 q 593 492 591 490 l 598 492 q 620 489 612 492 q 633 480 628 486 q 641 468 637 475 q 650 452 644 460 q 652 449 650 451 q 657 444 654 446 q 663 439 661 441 q 666 435 666 436 q 666 409 669 422 q 655 383 663 395 q 636 364 648 372 q 610 357 624 357 q 603 357 608 357 q 590 359 597 358 q 577 361 583 360 q 570 361 571 361 l 545 361 l 467 358 q 436 351 446 357 q 422 335 427 345 q 418 311 418 326 q 416 279 418 297 q 415 275 416 278 q 413 268 414 271 q 411 260 412 264 q 410 256 410 256 l 410 241 l 410 228 q 410 214 410 222 q 412 197 411 205 q 416 177 414 188 l 420 172 l 420 149 q 418 116 420 132 q 410 89 416 101 q 391 70 404 77 q 358 63 378 63 q 325 72 339 63 q 302 94 311 81 q 290 124 294 108 q 286 157 286 141 z "},",":{"ha":273,"x_min":32,"x_max":222,"o":"m 69 -165 q 63 -161 67 -165 q 54 -153 58 -157 q 47 -145 50 -149 q 43 -139 43 -141 q 39 -136 41 -138 q 36 -130 37 -134 q 32 -123 34 -127 l 32 -60 q 48 -37 43 -55 q 58 6 54 -18 q 65 57 62 30 q 76 106 69 83 q 95 143 83 128 q 127 157 107 157 q 153 154 138 157 q 182 144 168 151 q 207 127 196 137 q 222 105 218 118 l 216 95 q 222 90 216 90 l 222 42 q 213 31 218 40 q 201 10 208 22 q 188 -16 195 -2 q 177 -44 182 -31 q 168 -67 172 -57 q 165 -81 165 -77 l 168 -81 q 163 -112 168 -96 q 148 -140 157 -127 q 125 -162 138 -153 q 95 -170 111 -170 q 82 -167 87 -170 q 69 -165 77 -163 z "},"-":{"ha":440,"x_min":57,"x_max":382,"o":"m 75 343 q 63 349 67 343 q 58 364 60 355 q 57 382 57 372 q 58 399 58 391 q 61 409 58 402 q 64 418 64 416 q 71 425 68 420 q 75 435 75 430 q 84 438 80 435 q 92 445 88 441 q 100 452 96 448 q 112 456 105 455 q 144 454 125 458 q 176 450 163 450 q 220 457 196 450 q 264 467 244 463 q 277 471 270 467 q 291 479 283 475 q 304 487 298 484 q 319 490 311 490 q 350 485 338 490 q 369 471 362 480 q 378 452 375 463 q 382 429 380 441 l 382 398 q 376 375 382 385 q 363 359 370 365 q 347 350 355 353 q 334 347 338 347 l 321 347 l 303 351 l 290 351 q 230 347 260 351 q 171 332 199 342 q 157 326 163 329 q 146 320 151 323 q 135 316 141 317 q 121 315 130 315 q 106 315 115 315 q 91 319 98 316 q 79 328 84 322 q 75 343 75 333 z "},".":{"ha":273,"x_min":59,"x_max":208,"o":"m 64 18 q 62 27 63 23 q 60 34 60 31 q 59 39 59 37 l 59 68 q 76 129 59 110 q 134 148 94 148 q 147 144 140 148 q 160 135 154 140 q 170 122 166 129 q 174 109 174 115 l 186 109 q 194 102 191 109 q 201 84 198 94 q 206 65 204 75 q 208 53 208 56 q 201 30 208 41 q 182 11 193 19 q 158 -3 171 2 q 134 -8 145 -8 q 121 -5 130 -8 q 102 1 112 -3 q 85 9 92 5 q 78 18 78 14 l 64 18 z "},"/":{"ha":437,"x_min":-31,"x_max":448,"o":"m -28 -97 q -30 -80 -28 -92 q -31 -63 -31 -68 q -31 -55 -31 -60 q -30 -45 -31 -50 q -29 -36 -29 -40 q -28 -31 -28 -32 q -16 -4 -26 -22 q 5 33 -6 14 q 24 72 16 53 q 28 101 32 90 l 88 245 l 88 252 l 127 334 q 130 350 126 338 q 139 379 134 362 q 152 415 144 396 q 165 452 159 435 q 177 481 172 469 q 184 498 182 494 q 201 537 194 519 q 215 574 209 555 q 227 611 222 592 q 238 653 233 631 q 241 671 237 661 q 250 687 245 682 l 328 917 q 343 971 328 954 q 395 989 358 989 q 412 985 406 989 q 425 976 419 981 q 435 965 430 970 q 448 956 441 959 l 448 884 q 432 863 441 884 q 410 812 422 842 q 387 745 399 781 q 366 676 376 709 q 350 619 357 644 q 342 587 343 595 q 334 567 340 578 q 322 543 328 555 q 313 518 317 530 q 311 498 309 507 q 305 487 309 495 q 298 468 302 478 q 290 450 294 458 q 286 438 287 441 q 280 418 283 430 q 272 394 277 406 q 262 371 268 382 q 248 355 256 361 q 226 286 239 320 q 197 219 213 252 l 192 213 l 197 208 q 175 168 185 190 q 157 124 165 146 q 143 84 149 103 q 134 52 137 65 q 132 34 132 43 q 131 18 132 26 q 128 2 130 9 q 119 -13 125 -6 q 119 -18 119 -14 q 119 -25 119 -21 q 120 -34 119 -30 q 120 -40 120 -38 l 123 -40 l 112 -75 q 104 -102 112 -87 q 86 -130 97 -117 q 61 -152 75 -143 q 36 -161 47 -161 q 20 -154 30 -161 q -1 -135 9 -146 q -19 -114 -11 -125 q -28 -97 -26 -103 z "},":":{"ha":273,"x_min":58,"x_max":220,"o":"m 68 90 q 81 135 68 120 q 121 161 94 151 q 137 152 125 156 q 162 144 148 149 q 189 133 176 140 q 210 115 202 126 q 214 106 212 111 q 217 98 216 102 q 220 88 219 93 l 216 83 q 219 67 217 75 q 220 52 220 59 q 212 36 220 45 q 192 18 203 27 q 173 0 182 8 q 163 -12 164 -8 l 158 -7 q 151 -6 157 -7 q 139 -5 145 -6 q 127 -4 133 -5 q 121 -1 122 -3 q 98 15 108 5 q 82 38 88 25 q 72 64 75 50 q 68 90 68 77 m 87 569 q 83 578 87 573 q 73 591 79 583 q 63 614 68 600 q 58 652 58 629 q 78 694 58 683 q 128 705 97 705 q 151 706 140 705 q 174 695 162 706 q 181 689 177 693 q 189 679 185 684 q 197 670 193 674 q 200 664 200 665 l 210 606 q 197 595 201 601 q 192 585 193 590 q 189 574 190 579 q 183 566 187 570 q 169 561 178 563 q 143 559 160 559 q 115 562 131 559 q 87 569 100 565 z "},";":{"ha":273,"x_min":16,"x_max":218,"o":"m 54 -151 q 47 -146 52 -150 q 39 -138 43 -142 q 31 -130 35 -134 q 27 -124 28 -126 q 24 -121 26 -123 q 20 -115 22 -119 q 16 -108 18 -112 l 31 -49 q 49 -10 44 -32 q 56 35 54 12 q 57 81 57 58 q 61 120 57 103 q 74 148 64 138 q 104 159 83 159 q 129 155 114 159 q 158 145 144 152 q 183 129 172 138 q 198 106 195 119 l 193 96 q 198 92 193 92 l 198 60 q 186 45 193 56 q 174 18 180 35 q 162 -17 168 2 q 153 -56 157 -37 l 147 -96 q 140 -117 145 -106 q 127 -136 136 -127 q 107 -150 119 -144 q 79 -155 96 -155 q 66 -152 72 -155 q 54 -151 61 -149 m 71 588 q 74 593 71 592 q 77 599 77 595 q 73 611 77 604 q 65 626 69 618 q 57 640 60 633 q 56 652 54 646 q 73 690 57 675 q 108 711 88 705 q 109 707 108 709 q 113 705 111 705 l 124 711 l 126 711 q 162 704 145 711 q 191 686 178 697 q 211 659 203 674 q 218 625 218 643 q 209 586 218 599 q 171 568 199 572 l 176 564 l 163 554 l 161 553 q 141 554 155 552 q 111 562 126 557 q 83 574 96 567 q 71 588 71 581 z "},"<":{"ha":728,"x_min":90,"x_max":615,"o":"m 234 260 q 176 300 203 281 q 117 342 148 318 q 99 376 109 355 q 90 415 90 396 l 96 422 q 99 440 96 433 q 107 454 102 448 q 119 467 113 460 q 130 484 125 473 q 137 488 132 484 q 148 495 142 491 q 159 502 154 498 q 168 507 165 505 q 183 513 176 511 q 197 517 190 515 q 213 521 205 519 q 229 526 220 523 q 327 574 282 550 q 420 629 372 599 q 451 653 435 638 q 483 681 467 667 q 513 704 498 694 q 542 714 528 714 q 575 700 564 714 q 592 665 587 686 q 591 652 592 663 q 588 631 590 642 q 582 609 585 619 q 574 596 578 599 l 487 543 q 465 537 477 542 q 443 525 454 532 q 421 512 431 519 q 401 500 410 505 q 381 489 395 496 q 353 473 368 481 q 325 456 338 464 q 308 444 313 448 q 287 437 296 444 q 271 421 278 430 q 257 404 263 412 q 245 393 252 395 l 272 371 q 288 362 274 370 q 321 345 302 355 q 358 325 339 335 q 389 310 377 315 q 409 300 393 308 q 444 282 425 292 q 484 264 464 273 q 517 252 504 256 q 546 242 529 247 q 578 231 563 238 q 604 212 593 224 q 615 180 615 200 q 612 156 615 168 q 602 135 609 144 q 585 121 595 126 q 559 115 574 115 q 552 117 558 115 q 540 120 547 118 q 526 124 533 122 q 517 127 519 126 l 234 260 z "},"=":{"ha":728,"x_min":101,"x_max":617,"o":"m 121 255 q 144 296 132 284 q 172 310 156 307 q 209 313 189 313 q 257 317 230 312 l 491 333 q 511 332 500 331 q 532 336 522 334 q 554 342 543 339 q 575 345 565 345 q 596 344 586 345 q 610 327 606 343 l 610 302 q 603 264 610 279 q 582 241 595 250 q 552 228 569 232 q 518 222 536 224 q 483 221 500 221 q 450 219 465 220 q 384 213 414 216 q 324 208 353 210 q 263 201 294 205 q 195 193 232 197 l 176 193 q 150 202 159 193 q 135 223 140 212 q 127 244 130 234 q 121 255 124 254 m 101 553 q 111 577 101 565 q 134 592 121 589 q 221 590 184 589 q 287 592 257 590 q 342 597 316 594 q 398 603 368 600 q 464 609 427 606 q 550 611 500 611 q 558 610 552 611 q 572 606 565 608 q 586 603 579 604 q 594 602 592 602 q 613 588 610 595 q 617 568 617 581 q 603 532 617 545 q 569 512 589 519 q 528 504 549 506 q 492 499 507 501 q 475 497 488 498 q 447 494 463 496 q 413 491 431 492 q 378 487 395 489 q 350 484 362 486 q 333 482 338 483 l 305 482 l 237 478 q 199 468 221 469 q 160 467 177 467 q 133 475 144 467 q 114 496 121 483 q 104 524 107 509 q 101 553 101 538 z "},">":{"ha":728,"x_min":88,"x_max":639,"o":"m 153 159 q 168 204 153 181 q 207 251 183 228 q 261 297 231 275 q 322 339 292 319 q 379 377 352 359 q 423 409 406 395 q 428 413 425 409 q 430 421 430 418 q 420 428 430 423 q 397 438 410 433 q 374 447 385 443 q 362 452 363 450 q 327 466 351 456 q 276 485 302 475 q 224 504 249 495 q 187 517 199 513 q 169 531 185 525 q 135 545 153 536 q 103 565 117 553 q 88 598 88 577 q 90 621 88 606 q 97 650 92 635 q 109 674 101 664 q 129 684 117 684 q 159 679 146 684 q 184 665 172 673 q 207 647 195 656 q 230 629 218 637 q 289 597 260 610 q 345 574 317 584 q 404 555 374 564 q 467 538 433 547 q 511 532 486 532 q 559 530 536 532 q 603 518 583 528 q 633 483 623 508 q 635 474 634 480 q 635 461 635 468 q 635 448 635 454 q 633 439 634 442 l 639 434 q 627 416 633 425 q 617 402 622 409 q 608 391 612 395 q 580 373 597 377 q 547 366 564 368 l 399 255 l 393 249 q 349 212 374 235 q 295 167 323 189 q 239 129 267 145 q 190 113 212 113 q 175 118 182 113 q 163 130 168 123 q 155 144 158 136 q 153 159 153 152 z "},"?":{"ha":475,"x_min":30,"x_max":456,"o":"m 116 96 q 132 144 116 124 q 180 165 148 165 q 221 158 201 165 q 256 137 241 151 q 279 106 271 124 q 288 66 288 88 q 282 50 288 60 q 269 31 277 41 q 254 14 262 22 q 241 1 246 5 q 230 -3 237 -2 q 221 -9 222 -3 l 199 -9 q 182 -8 188 -9 q 173 -4 176 -7 q 166 2 169 -1 q 157 12 163 6 l 147 17 q 122 52 127 29 q 116 96 116 74 m 132 382 q 135 409 132 393 q 142 437 139 425 q 143 440 142 438 q 147 446 144 444 q 155 469 155 456 q 158 494 154 481 q 165 509 160 501 q 177 523 170 516 q 189 537 183 530 q 199 551 195 545 q 200 554 199 552 q 202 560 201 557 q 205 568 203 564 q 209 570 205 569 q 217 573 212 572 q 225 576 221 575 q 231 578 229 577 q 236 586 233 578 q 241 600 239 595 q 262 635 248 618 q 291 668 276 651 q 318 705 307 686 q 330 749 330 724 q 328 767 330 756 q 322 790 326 778 q 315 812 319 802 q 307 829 311 823 q 298 833 302 828 q 289 844 294 838 q 281 855 285 850 q 274 861 277 861 q 267 860 271 861 q 262 856 262 859 l 262 866 q 257 863 262 865 q 251 861 252 861 l 203 861 q 195 853 200 859 q 188 844 189 847 q 179 842 185 844 q 172 840 173 840 q 154 823 162 833 q 138 804 146 813 q 119 788 130 795 q 93 782 109 782 l 93 795 q 47 809 65 795 q 30 856 30 823 q 33 876 30 867 q 42 891 37 884 q 52 905 47 898 q 61 923 57 913 q 69 927 63 924 q 82 933 75 930 q 96 940 90 937 q 104 945 102 943 q 116 951 108 947 q 134 960 125 955 q 149 970 142 965 q 156 981 156 976 q 159 977 157 977 q 163 976 161 976 l 166 976 q 203 989 184 987 q 247 991 223 991 q 260 991 251 991 q 280 990 270 991 q 298 987 290 989 q 308 981 306 985 l 313 971 q 317 974 313 972 q 324 976 321 976 q 336 974 328 976 q 345 971 345 972 l 345 966 l 382 949 l 376 945 q 381 939 378 942 q 387 935 384 936 q 424 889 408 917 q 439 834 439 862 l 446 834 q 447 827 446 832 q 448 816 448 822 q 449 805 449 810 q 446 798 448 800 l 452 793 q 447 791 449 793 q 446 787 445 790 q 450 772 448 781 q 453 754 452 764 q 456 735 455 745 q 456 720 456 726 q 455 702 456 716 q 449 672 453 688 q 441 644 446 656 q 430 632 436 632 q 411 605 421 621 q 391 573 401 589 q 370 542 381 557 q 347 517 359 527 l 341 517 q 328 493 337 505 q 309 471 319 482 q 290 449 298 460 q 278 425 281 437 l 278 408 q 276 406 278 407 q 270 402 273 404 q 265 400 267 401 q 262 398 262 399 q 264 392 262 395 q 268 388 265 388 q 266 353 266 372 q 261 317 265 334 q 245 289 256 300 q 212 277 235 277 q 149 306 165 277 q 132 382 132 334 z "},"@":{"ha":1042,"x_min":85,"x_max":961,"o":"m 250 -30 q 233 -24 241 -30 q 219 -9 225 -18 q 210 9 214 0 q 203 24 205 18 l 191 20 q 175 58 188 41 q 151 91 161 75 q 139 114 145 99 q 126 145 132 129 q 115 176 120 161 q 109 199 111 191 l 109 227 q 103 233 109 230 q 97 239 97 236 q 93 262 95 248 q 89 294 91 277 q 86 325 87 310 q 85 349 85 340 l 85 391 q 97 424 94 406 q 103 463 101 443 q 105 502 104 483 q 110 535 106 521 q 113 543 110 538 q 119 552 116 547 q 126 562 123 557 q 129 568 129 566 l 121 580 l 121 587 q 125 598 121 591 q 134 611 129 605 q 143 623 138 618 q 149 631 147 629 l 149 644 q 155 659 151 652 q 163 671 159 665 q 173 684 168 677 q 179 697 177 690 l 179 713 q 188 730 182 722 q 201 747 194 739 q 215 762 208 755 q 228 778 222 770 q 240 797 233 785 q 255 822 247 809 q 273 846 264 834 q 290 865 282 857 q 304 872 296 869 q 321 880 313 876 q 331 887 323 881 q 346 901 338 893 q 360 915 353 909 q 370 922 368 921 q 383 929 373 925 q 397 932 393 932 q 409 938 398 934 q 434 949 419 943 q 467 962 450 955 q 499 974 484 968 q 524 984 514 980 q 534 987 534 987 q 558 985 546 987 q 583 979 570 982 q 608 973 595 976 q 635 970 621 970 l 646 977 q 674 972 655 977 q 713 959 694 967 q 747 942 732 951 q 762 926 762 933 q 785 923 779 926 q 794 915 791 920 q 801 903 798 910 q 815 888 804 897 q 822 884 816 887 q 836 877 828 880 q 851 871 844 873 q 860 867 858 868 q 867 857 867 863 q 871 845 867 850 q 888 820 878 832 q 906 796 898 808 q 919 770 914 783 q 922 740 924 756 l 956 662 q 955 651 954 654 q 957 645 956 648 q 960 640 958 643 q 961 631 961 637 q 958 622 961 625 q 956 612 956 619 q 958 567 956 590 q 961 518 961 544 l 961 460 q 956 451 958 457 q 955 442 955 444 q 958 433 955 439 q 961 426 961 427 l 961 417 q 951 372 961 400 q 929 313 942 344 q 904 255 917 283 q 882 211 890 227 q 875 210 878 213 q 869 205 873 207 q 858 194 867 201 q 838 179 848 187 q 817 165 827 172 q 805 156 808 158 q 774 154 789 159 q 743 150 760 150 q 709 152 727 149 q 675 161 692 155 q 644 177 659 168 q 621 199 630 187 q 618 207 619 202 q 615 215 616 211 q 611 223 614 220 q 604 226 608 226 l 599 226 q 571 199 585 214 q 540 170 556 184 q 507 145 524 156 q 469 134 489 135 q 404 145 431 134 q 360 175 377 157 q 333 218 342 194 q 318 270 323 243 q 312 325 313 297 q 311 379 311 353 l 311 477 q 320 507 317 491 q 326 540 323 524 q 335 571 329 556 q 356 597 341 586 q 353 605 356 602 q 349 611 349 609 l 349 615 q 359 620 355 615 q 364 629 364 625 l 435 707 q 450 718 440 713 q 472 726 460 723 q 496 731 484 730 q 515 733 508 733 q 540 729 528 733 q 564 721 553 726 q 587 712 576 716 q 608 709 598 709 l 614 709 q 621 710 615 709 q 634 714 627 712 q 647 719 641 717 q 655 720 654 720 q 679 716 665 722 q 704 702 692 711 q 724 682 716 692 q 732 662 732 671 q 730 650 732 657 q 725 636 728 644 q 719 622 722 629 q 716 612 717 616 q 702 563 709 591 q 696 514 696 536 l 701 503 q 700 499 701 501 q 696 496 699 496 l 696 340 l 701 340 q 708 322 705 332 q 716 304 711 313 q 728 291 721 296 q 745 285 735 285 q 777 293 763 285 q 805 315 791 301 q 827 362 817 340 q 842 397 835 380 q 851 420 850 414 q 852 436 851 422 q 853 466 852 450 q 854 495 853 481 q 854 509 854 508 q 855 516 854 511 q 857 528 856 522 q 859 539 858 534 q 860 546 860 545 l 860 556 l 860 568 l 860 588 q 858 598 860 591 q 860 606 857 606 q 846 624 852 610 q 835 653 840 637 q 828 684 831 669 q 825 706 825 699 l 817 706 q 810 721 817 711 q 796 745 804 732 q 777 771 787 758 q 758 795 767 784 q 741 812 748 806 q 730 817 733 818 q 701 840 718 829 q 664 856 684 850 q 624 866 644 863 q 586 869 604 869 q 527 866 553 869 q 480 855 502 863 q 438 835 458 847 q 395 806 418 823 q 392 801 394 804 q 388 795 390 798 q 382 790 385 792 q 377 791 380 789 q 370 783 375 789 q 359 770 365 777 q 349 758 354 764 q 340 749 343 751 q 329 731 336 742 q 315 708 321 720 q 304 689 309 697 q 300 680 300 681 l 306 674 l 277 637 q 255 587 265 610 q 238 549 246 568 q 229 524 230 530 q 209 448 218 488 q 200 369 200 408 l 206 369 q 207 333 206 351 q 211 299 208 315 q 214 288 211 295 q 217 279 217 281 l 222 273 l 222 270 l 222 269 l 217 257 q 222 245 217 256 q 234 220 227 234 q 246 192 240 206 q 253 172 252 178 q 258 146 254 159 q 275 123 262 132 l 271 117 l 275 112 q 279 103 276 110 q 287 89 283 96 q 294 74 290 81 q 298 65 297 67 q 309 55 304 58 q 318 50 314 52 q 325 45 322 48 q 327 33 327 41 q 361 25 345 33 q 394 8 377 18 q 429 -8 411 -1 q 466 -16 446 -16 q 511 -8 488 -16 q 564 5 534 0 q 587 14 574 7 q 612 28 600 20 q 635 42 624 35 q 652 50 646 48 q 676 51 668 52 q 689 50 684 50 q 700 50 694 50 q 718 55 706 51 l 718 45 q 733 44 724 45 q 748 39 741 42 q 760 31 755 35 q 765 21 765 26 q 780 18 772 21 q 794 11 788 16 q 804 1 800 7 q 808 -10 808 -4 q 802 -28 808 -18 q 788 -49 796 -39 q 770 -67 779 -59 q 753 -80 760 -76 q 738 -85 747 -84 q 717 -86 728 -86 q 697 -85 707 -85 q 682 -85 688 -84 q 642 -94 662 -87 q 602 -106 622 -100 q 560 -117 581 -112 q 518 -122 539 -122 q 498 -120 506 -122 q 476 -117 490 -117 q 450 -118 460 -117 q 422 -122 439 -119 q 406 -113 420 -117 q 376 -106 393 -109 q 343 -99 359 -102 q 321 -90 328 -95 q 306 -79 318 -88 q 280 -60 294 -70 q 257 -41 267 -50 q 250 -30 248 -32 m 426 354 q 427 328 426 342 q 432 300 428 314 q 444 276 436 287 q 465 262 451 266 l 452 269 q 466 270 456 272 q 480 267 475 268 q 526 313 509 293 q 554 355 543 334 q 569 401 564 376 q 576 463 574 427 q 579 491 578 475 q 581 524 580 507 q 582 557 581 541 q 582 586 582 573 q 575 606 582 598 q 558 618 568 614 q 536 623 548 622 q 513 625 524 625 q 486 616 496 625 q 470 596 476 608 q 460 570 464 584 q 452 546 456 557 q 447 534 450 542 q 442 519 445 527 q 438 505 439 511 q 436 497 436 498 q 432 466 434 484 q 429 429 431 448 q 427 390 428 410 q 426 354 426 371 z "},"A":{"ha":699,"x_min":1,"x_max":702,"o":"m 1 50 q 3 79 1 67 q 11 100 6 90 q 23 120 16 110 q 37 144 29 130 l 43 144 l 43 149 l 37 160 q 42 164 37 161 q 47 170 47 168 l 47 191 q 50 193 47 191 q 55 198 52 195 q 61 203 58 201 q 64 207 64 205 q 71 220 66 212 q 81 239 76 229 q 90 259 86 250 q 96 275 94 269 q 94 281 96 277 q 90 286 92 286 q 92 293 91 288 q 95 303 94 298 q 98 315 96 309 q 100 322 99 320 l 106 332 l 106 364 q 115 379 107 370 q 127 395 123 388 q 148 455 136 426 q 164 519 159 484 l 164 551 q 166 556 164 553 q 169 563 168 559 q 173 569 171 566 q 174 572 174 572 q 184 618 182 595 q 189 661 186 641 q 204 726 195 696 q 222 785 214 756 q 236 845 230 814 q 242 913 242 876 l 237 924 l 237 926 q 241 941 237 933 q 251 955 245 949 q 264 966 257 962 q 279 972 272 970 l 290 966 l 300 972 l 301 972 q 312 969 307 972 q 321 963 317 966 q 330 958 326 960 q 338 956 334 956 l 342 956 l 353 961 q 373 957 363 961 q 394 946 384 952 q 414 932 404 939 q 431 918 423 924 l 421 913 q 430 902 425 910 q 439 887 435 895 q 446 873 443 879 q 450 867 450 867 l 445 861 l 450 857 l 440 845 l 450 835 q 451 811 450 823 q 454 789 452 800 q 457 768 456 779 q 456 746 458 757 q 478 690 467 718 q 498 635 490 662 q 510 593 505 615 q 519 550 515 572 q 528 506 524 528 q 540 463 533 484 q 555 418 547 441 q 572 374 562 395 q 577 369 572 372 q 582 364 582 366 q 588 338 585 355 q 595 305 591 322 q 604 273 599 288 q 618 254 610 258 q 615 252 617 254 q 613 249 613 250 q 616 240 613 246 q 618 233 618 235 q 613 227 618 227 q 629 217 623 227 q 639 193 635 206 q 645 166 643 179 q 650 149 648 153 q 665 131 654 138 q 682 117 676 123 q 687 112 684 115 q 694 104 690 108 q 702 96 697 100 l 702 39 q 700 34 701 37 q 695 28 698 31 q 691 21 693 24 q 687 18 688 18 l 687 14 q 688 11 687 13 q 692 7 688 8 q 669 4 680 7 q 649 -3 659 1 q 626 -11 639 -7 q 597 -14 614 -14 l 572 -14 q 567 -8 571 -12 q 557 -1 562 -5 q 547 4 551 2 q 540 7 542 7 q 534 19 540 16 q 522 26 528 22 q 509 34 515 29 q 503 52 503 39 l 503 55 q 505 58 503 56 q 508 64 507 61 q 512 71 510 68 q 513 75 513 74 q 511 83 513 77 q 508 92 508 89 l 508 98 q 511 115 508 109 q 513 134 513 122 l 511 134 q 510 140 511 135 q 508 149 508 146 l 503 160 l 508 165 q 500 193 508 180 q 487 217 492 205 l 487 239 q 473 254 484 246 q 447 267 461 261 q 419 276 433 273 q 399 280 406 280 l 274 280 q 238 264 254 280 q 210 221 222 248 q 190 164 198 195 q 176 102 182 132 q 165 46 170 72 q 158 7 161 20 q 138 -3 149 3 q 117 -15 128 -9 q 96 -25 106 -21 q 74 -30 85 -30 q 46 -23 59 -30 q 22 -4 33 -16 q 6 22 12 7 q 1 50 1 36 m 268 418 q 283 399 268 405 q 319 391 299 393 q 358 390 339 389 q 386 391 378 391 q 397 390 390 391 q 412 391 405 390 q 426 395 420 392 q 431 404 431 398 q 430 430 431 414 q 424 462 428 446 q 414 491 420 478 q 399 509 408 505 q 403 522 401 512 q 405 536 405 532 q 400 542 405 538 q 395 546 395 545 q 391 555 393 549 q 386 569 389 562 q 381 582 383 576 q 378 593 379 589 q 364 651 368 621 q 353 709 360 680 q 344 718 350 712 q 336 724 338 723 l 333 728 q 332 715 333 724 q 331 704 331 707 q 329 701 330 702 l 326 698 q 329 697 328 698 q 331 693 331 696 q 330 682 331 686 q 328 675 330 677 q 325 670 326 673 q 321 661 323 667 q 316 648 319 657 q 309 628 313 638 q 303 609 306 618 q 300 599 300 601 q 293 557 293 579 q 290 515 293 534 q 279 468 286 491 q 268 420 273 444 l 268 418 z "},"B":{"ha":671,"x_min":85,"x_max":635,"o":"m 180 -24 q 170 -29 176 -28 q 159 -30 164 -30 q 129 -23 139 -30 q 112 2 119 -16 q 102 1 108 -1 q 96 7 97 4 q 96 23 98 18 q 92 34 94 29 q 87 43 90 38 q 85 56 85 47 q 89 92 85 74 q 98 129 93 111 q 107 166 103 148 q 112 201 112 184 l 112 207 l 106 212 l 112 222 q 110 225 112 224 q 106 227 108 227 q 114 234 111 229 q 117 243 117 240 q 114 251 117 245 q 112 259 112 256 l 112 292 q 114 359 112 327 q 117 424 117 391 l 117 463 l 112 467 q 115 469 113 467 q 117 473 117 471 l 112 483 l 112 489 q 114 497 112 492 q 117 504 117 503 q 115 508 117 507 q 112 509 113 509 l 112 583 q 111 589 112 584 q 109 599 110 593 q 107 609 108 604 q 106 614 106 614 q 107 623 106 616 q 109 638 108 630 q 111 652 110 646 q 112 661 112 659 l 112 724 q 108 726 109 724 q 106 730 106 728 q 109 739 106 732 q 112 746 112 745 q 110 750 112 749 q 106 751 108 751 l 106 788 l 100 798 l 106 808 l 100 814 q 92 831 95 821 q 87 851 89 840 q 85 871 86 861 q 85 890 85 882 q 90 910 85 901 q 96 930 96 918 l 90 930 l 90 935 l 117 961 q 125 961 121 958 q 132 966 130 964 l 132 957 q 139 958 134 957 q 150 959 144 958 q 161 960 156 960 q 169 961 167 961 q 176 959 170 961 q 185 956 182 957 l 190 950 q 197 953 191 950 q 205 956 203 956 l 258 956 q 270 961 264 956 q 281 966 275 966 l 284 966 q 288 965 285 966 q 294 963 291 964 q 301 962 298 962 q 306 961 304 961 l 316 966 q 389 960 355 966 q 451 939 422 953 q 508 905 481 926 q 561 857 534 884 q 556 845 556 852 q 577 813 570 831 q 589 774 585 795 q 594 733 593 754 q 597 693 595 712 q 594 689 596 693 q 593 683 593 686 l 597 677 q 596 671 597 674 q 593 661 595 666 l 587 651 q 585 629 586 638 q 576 609 585 621 q 569 596 574 605 q 558 577 564 587 q 547 559 553 568 q 540 546 542 550 q 524 534 530 543 q 521 515 518 526 q 525 502 521 511 q 530 494 528 494 l 534 494 q 543 482 539 488 q 550 471 547 477 q 556 463 554 466 q 584 411 570 438 q 609 354 598 383 q 628 294 621 324 q 635 235 635 264 q 631 199 635 223 q 619 151 627 176 q 597 108 610 127 q 566 86 585 89 l 571 80 q 542 55 555 63 q 513 41 528 47 q 483 30 499 35 q 448 13 467 24 q 432 7 440 8 q 416 7 423 7 q 407 6 413 7 q 395 13 400 5 q 389 7 393 9 q 380 5 385 5 q 369 7 375 5 q 355 2 365 5 q 336 -5 346 -1 q 317 -13 326 -9 q 306 -19 309 -17 l 297 -19 q 273 -16 285 -19 q 249 -14 261 -14 l 232 -14 q 225 -21 231 -17 q 212 -28 219 -24 q 198 -33 205 -31 q 190 -35 192 -35 q 180 -30 183 -35 l 180 -24 m 347 119 q 381 122 363 119 q 417 132 399 125 q 450 149 435 138 q 474 175 465 160 l 479 185 q 482 188 481 188 q 485 188 484 188 q 489 190 487 188 q 494 197 491 191 q 490 199 490 198 q 489 203 489 199 q 492 222 489 214 q 494 243 494 231 q 488 288 494 262 q 469 340 481 315 q 442 387 457 366 q 411 415 427 408 q 401 414 408 415 q 391 414 394 414 q 381 427 391 422 q 356 436 370 433 q 328 440 342 439 q 306 441 314 441 l 274 441 q 253 430 264 433 q 232 415 241 427 l 232 397 q 237 361 232 378 q 242 328 242 345 q 241 299 242 312 q 237 270 241 286 l 242 264 l 237 186 q 244 177 241 184 q 248 161 247 170 q 249 145 249 153 q 250 133 250 137 q 256 133 252 133 q 264 132 260 133 q 272 129 269 131 q 275 123 275 127 q 307 120 294 123 q 335 117 319 117 l 347 119 m 237 603 q 251 591 245 597 q 261 581 256 585 q 272 574 266 576 q 290 571 279 571 q 337 576 313 571 q 384 593 361 581 q 391 596 387 595 q 401 598 396 597 q 410 602 406 600 q 416 608 414 604 q 427 636 420 623 q 442 665 435 649 q 442 675 444 669 q 448 684 440 681 l 448 766 l 452 772 q 441 780 448 773 q 428 795 435 787 q 416 810 421 803 q 411 819 411 817 q 406 816 410 817 q 400 814 401 814 q 396 816 397 814 q 395 819 395 818 l 327 819 q 320 820 326 819 q 310 822 315 821 q 300 824 304 823 q 295 825 296 825 l 284 819 q 256 804 267 812 q 240 787 245 797 q 233 759 235 779 q 232 714 232 740 l 232 656 q 235 652 233 656 q 237 645 237 648 l 237 603 z "},"C":{"ha":688,"x_min":68,"x_max":629,"o":"m 121 158 q 112 174 118 163 q 100 190 106 185 q 103 191 102 190 q 105 195 105 192 q 102 211 105 203 q 95 228 99 220 q 88 244 91 236 q 85 260 85 252 q 85 264 85 262 q 90 269 86 266 q 78 292 83 278 q 72 320 74 305 q 69 348 70 334 q 68 374 68 362 q 69 377 68 374 q 70 382 69 379 q 71 388 70 385 q 75 390 73 390 l 68 401 l 68 445 q 72 452 68 447 q 75 459 75 458 q 72 464 75 463 q 68 465 70 465 l 68 507 q 92 606 81 562 q 100 644 96 625 q 108 676 104 662 q 114 701 111 691 q 117 711 116 710 q 118 718 117 713 q 122 728 120 722 q 125 738 123 733 q 127 743 127 743 q 135 757 129 747 q 148 777 141 766 q 161 798 155 788 q 168 812 167 808 l 174 806 q 176 824 172 814 q 188 844 180 835 q 204 860 195 854 q 218 867 212 867 q 218 876 218 875 q 212 879 218 876 q 218 885 216 882 q 223 892 220 888 q 231 898 227 895 q 242 901 235 900 q 245 904 243 901 q 252 910 248 907 q 259 917 256 913 q 263 922 262 920 q 301 948 279 935 q 346 969 322 960 q 393 984 369 979 q 439 989 417 989 q 455 987 446 989 q 473 982 465 985 q 490 976 482 979 q 505 974 498 974 l 513 979 q 539 972 522 978 q 574 958 556 966 q 607 942 593 950 q 624 927 622 933 l 624 901 q 626 897 624 898 q 629 895 628 895 l 629 832 q 621 824 629 828 q 602 815 612 819 q 581 808 591 811 q 569 806 572 806 q 541 812 553 806 q 516 826 528 819 q 491 839 504 833 q 463 842 478 844 q 442 838 451 842 q 424 831 433 835 q 406 825 415 828 q 384 822 396 822 l 384 812 q 364 794 378 808 q 335 767 350 781 q 307 742 320 753 q 292 730 294 730 l 295 722 q 290 718 294 721 q 283 712 287 715 q 277 705 280 709 q 273 701 274 702 l 269 707 l 263 690 l 269 690 q 261 674 269 683 q 247 659 253 666 l 252 653 q 235 615 241 640 q 224 566 229 591 q 216 520 220 541 q 205 491 212 498 l 216 491 q 213 485 214 489 q 210 475 212 480 q 207 466 208 470 q 205 459 206 461 q 208 428 205 444 q 210 395 210 412 l 210 389 q 208 380 210 386 q 205 374 205 375 q 208 368 205 372 q 213 357 210 363 q 219 347 216 352 q 222 342 222 342 q 219 333 222 339 q 216 326 216 327 q 225 284 216 304 q 247 247 235 264 q 255 225 253 237 q 263 205 257 213 q 287 177 273 190 q 319 156 302 165 q 356 142 337 147 q 394 137 375 137 q 438 138 416 137 q 484 142 461 138 q 489 143 484 142 q 499 148 494 145 q 508 152 504 150 q 513 153 513 153 l 529 153 q 543 152 535 153 q 556 149 550 151 q 567 142 562 146 q 571 132 571 138 q 585 129 580 132 q 591 121 589 126 q 594 110 593 116 q 597 95 595 103 q 600 89 597 92 q 603 85 603 86 l 608 79 q 607 69 608 76 q 603 58 606 62 l 597 53 l 603 43 l 603 39 q 601 31 603 36 q 594 20 598 26 q 587 8 591 14 q 582 0 584 3 q 558 -7 572 -3 q 530 -13 545 -10 q 500 -18 515 -16 q 473 -20 485 -20 q 463 -20 470 -20 q 449 -19 456 -20 q 435 -18 441 -19 q 426 -16 429 -17 l 420 -20 q 303 4 359 -15 q 200 63 248 24 q 189 78 193 68 q 179 95 184 88 q 174 97 177 96 q 168 100 169 100 q 159 107 166 100 q 143 123 152 114 q 127 140 134 132 q 117 153 119 149 l 121 158 z "},"D":{"ha":794,"x_min":80,"x_max":733,"o":"m 155 -9 q 149 -1 155 -9 q 135 16 142 6 q 121 36 127 26 q 114 52 115 45 l 114 79 l 111 82 l 106 94 q 120 115 115 102 q 129 144 125 129 q 133 172 132 159 q 135 194 134 186 l 130 194 q 133 219 130 206 q 135 244 135 232 q 134 265 135 257 q 130 288 134 273 l 135 294 l 135 359 q 130 376 130 368 l 135 376 l 135 513 q 133 526 135 515 q 130 541 132 536 l 125 551 l 130 563 l 130 572 q 121 667 130 618 q 101 762 113 715 l 101 777 q 96 804 99 791 q 89 830 92 817 q 82 855 85 842 q 80 882 80 868 l 80 916 q 97 932 84 922 q 125 952 110 942 q 155 969 140 962 q 176 976 169 976 l 187 970 l 197 976 l 203 976 l 203 970 q 244 965 224 970 q 286 960 264 960 q 304 962 298 960 q 319 965 311 965 q 326 964 323 965 q 331 961 328 962 q 338 958 334 959 q 349 956 342 956 l 349 954 l 355 954 q 362 957 356 954 q 371 960 368 960 l 381 954 l 387 960 l 388 960 q 392 959 391 960 q 397 954 394 958 q 428 954 416 956 q 451 948 441 952 q 472 939 462 944 q 496 932 483 935 l 516 932 l 522 921 q 529 913 526 916 q 537 910 533 911 q 545 908 541 909 q 553 905 549 907 q 564 893 555 901 q 573 882 572 886 q 587 869 579 875 q 603 858 595 863 q 618 846 610 852 q 631 833 625 840 q 637 822 633 829 q 644 807 640 815 q 651 790 648 798 q 658 777 655 782 q 663 773 660 775 q 668 766 668 769 l 663 755 q 666 752 663 755 q 671 747 668 750 q 676 742 673 745 q 678 739 678 740 q 682 732 680 736 q 685 722 684 727 q 688 712 687 717 q 690 705 690 707 l 698 705 q 702 684 698 694 q 711 664 706 674 q 721 644 716 654 q 726 623 725 633 q 730 575 729 601 q 732 528 732 549 q 732 495 732 510 q 726 463 733 480 q 731 460 730 461 q 732 456 732 460 q 729 425 732 446 q 722 381 726 404 q 711 339 717 358 q 700 316 706 320 q 705 312 704 313 q 705 307 705 310 l 705 304 q 695 277 701 292 q 690 261 692 270 l 682 261 q 679 247 682 255 q 672 232 676 239 q 661 219 667 224 q 647 210 654 213 l 653 205 q 648 199 651 202 q 645 194 646 197 q 642 189 643 191 q 568 117 606 146 q 489 67 530 87 q 399 36 447 47 q 297 18 352 24 q 272 11 284 16 q 247 0 259 5 q 222 -11 235 -6 q 197 -15 210 -15 l 197 -9 q 195 -13 197 -11 q 191 -17 193 -15 q 185 -20 188 -18 q 182 -21 182 -21 q 176 -20 180 -21 q 167 -17 172 -18 q 159 -13 163 -15 q 155 -9 156 -11 m 281 168 q 286 170 283 168 q 292 172 290 172 l 294 172 q 313 170 304 172 q 331 168 321 168 q 394 179 362 168 q 450 212 426 191 q 453 215 450 212 q 459 222 456 218 q 466 229 463 226 q 471 234 469 233 q 481 240 477 238 q 489 243 485 241 q 497 247 493 245 q 507 255 501 250 q 512 260 509 256 q 518 267 515 263 q 524 273 522 270 q 526 278 526 277 q 555 328 542 301 q 576 383 568 355 q 590 440 585 412 q 595 497 595 469 q 593 511 595 499 q 589 537 591 524 q 584 563 587 551 q 579 575 581 574 l 579 618 l 585 625 l 568 625 q 570 631 568 627 q 572 639 571 635 q 574 647 574 644 q 573 652 574 651 q 571 657 573 654 q 567 664 570 660 q 562 670 564 667 q 558 673 559 673 q 556 677 557 675 q 555 681 556 679 q 553 686 553 684 q 555 689 553 688 q 558 690 557 690 q 543 719 549 703 q 529 749 536 734 q 513 776 522 764 q 492 796 505 789 q 457 812 476 804 q 423 829 439 819 l 381 829 l 339 829 q 328 826 336 829 q 318 823 319 823 q 311 825 316 823 q 299 830 305 827 q 289 834 294 833 q 281 835 283 836 q 275 829 279 835 q 271 823 272 823 q 256 821 264 821 q 243 820 249 821 q 233 813 237 819 q 229 796 229 808 q 232 781 229 787 q 234 766 234 774 q 233 761 234 762 q 229 757 233 760 q 234 752 233 756 q 235 743 235 748 q 235 733 235 738 q 239 724 236 728 q 239 684 237 703 q 244 648 241 666 q 251 613 248 631 q 256 575 254 595 q 256 547 256 560 q 255 522 255 534 q 255 496 254 509 q 260 469 256 484 l 256 465 q 259 463 257 465 q 260 458 260 462 q 259 452 260 457 q 256 448 257 448 l 256 383 q 261 377 261 380 q 260 368 260 373 q 255 315 260 343 q 250 262 250 286 l 256 250 q 255 245 256 249 q 253 236 254 241 q 251 228 252 231 q 250 223 250 224 q 251 218 250 222 q 253 211 252 215 q 255 204 254 208 q 256 200 256 201 l 256 195 l 266 195 l 266 178 l 281 178 l 281 168 z "},"E":{"ha":597,"x_min":105,"x_max":552,"o":"m 349 13 q 325 13 335 13 q 304 12 314 13 q 282 10 294 12 q 257 7 271 9 q 221 -2 241 4 q 185 -9 201 -9 q 163 -5 175 -9 q 141 6 152 -1 q 121 21 130 12 q 105 39 111 29 l 105 62 q 105 75 105 67 q 106 92 105 83 q 111 107 108 100 q 121 117 114 114 q 116 121 117 119 q 115 128 115 124 q 120 155 115 141 q 125 182 125 169 l 125 197 l 121 201 q 123 209 121 203 q 125 217 125 214 l 125 219 l 125 222 l 121 233 q 126 264 121 246 q 132 297 132 281 q 129 320 132 309 q 125 345 125 332 l 125 364 l 132 369 l 132 473 q 127 481 129 475 q 125 489 125 488 q 126 498 125 491 q 129 512 127 505 q 131 527 130 520 q 132 536 132 534 l 132 539 q 129 545 132 543 q 125 549 125 546 l 125 551 q 126 558 125 553 q 129 567 127 562 q 131 576 130 572 q 132 583 132 581 q 126 590 128 583 q 122 607 123 597 q 121 626 121 616 q 121 639 121 635 q 122 650 121 643 q 126 665 124 657 q 130 682 128 673 q 132 695 132 690 l 125 707 l 125 748 q 122 750 123 748 q 121 753 121 752 q 123 762 121 756 q 125 769 125 768 l 125 772 q 123 783 125 778 q 121 793 121 787 q 123 807 121 801 q 125 822 125 812 q 123 839 125 831 q 118 854 121 846 q 113 869 115 861 q 111 885 111 876 q 113 895 111 888 q 115 905 115 903 l 111 916 l 111 918 q 117 934 111 924 q 131 955 123 945 q 148 972 140 964 q 162 979 157 979 l 216 979 q 222 971 218 974 q 232 966 227 968 q 243 964 238 964 q 252 964 249 964 l 262 968 l 264 968 q 271 965 265 968 q 284 959 277 962 q 298 952 291 956 q 308 949 304 949 q 324 947 314 947 q 345 948 334 947 q 366 949 356 949 q 382 950 376 950 q 407 950 397 950 q 423 950 416 949 q 439 955 431 951 q 460 964 447 958 l 467 958 q 491 951 478 958 q 515 933 504 944 q 535 909 527 922 q 543 885 543 897 l 543 874 l 538 863 q 539 860 538 862 q 543 859 541 859 q 526 844 534 852 q 511 829 519 836 q 493 817 503 822 q 471 812 483 812 q 444 816 456 812 q 422 824 433 820 q 400 833 412 829 q 372 837 388 837 q 322 833 342 837 q 292 824 303 830 q 276 811 281 819 q 268 794 271 803 q 263 776 265 785 q 257 758 262 767 q 262 752 262 757 q 262 743 262 747 q 260 730 262 734 q 257 720 257 726 l 257 717 q 260 710 257 715 q 262 701 262 704 l 257 690 l 257 651 l 257 646 q 260 639 257 645 q 262 630 262 633 q 261 623 262 628 q 258 612 260 618 q 255 600 256 606 q 252 593 253 595 l 262 556 q 280 557 270 558 q 300 555 290 557 q 320 553 310 554 q 338 551 330 551 q 359 554 349 551 q 380 561 370 557 q 400 567 391 564 q 420 568 410 569 q 445 558 435 566 q 463 541 456 551 q 475 518 470 531 q 484 494 479 506 l 467 436 q 463 432 467 435 q 451 426 458 429 q 438 420 445 423 q 426 417 431 418 l 412 417 q 391 419 399 417 q 374 424 382 421 q 357 429 366 427 q 336 431 348 431 q 317 431 330 431 q 290 429 304 431 q 264 424 275 428 q 252 411 253 420 q 253 404 252 409 q 253 393 253 399 q 253 382 253 387 q 254 374 254 376 l 257 374 q 255 351 257 363 q 250 326 252 338 q 244 302 247 314 q 242 280 242 291 l 247 275 l 247 272 q 244 259 247 266 q 242 245 242 252 q 244 238 242 240 q 247 229 247 237 q 244 214 247 222 q 242 198 242 205 q 244 184 242 195 q 250 160 246 173 q 259 138 254 148 q 273 128 265 128 q 301 127 283 128 q 340 125 319 126 q 378 123 360 124 q 407 123 397 123 l 433 123 q 463 125 449 123 q 492 128 477 128 q 523 118 509 128 q 537 92 537 109 l 542 92 q 543 86 542 90 q 545 78 543 82 q 548 70 546 73 q 552 65 549 66 l 552 13 q 543 2 552 7 q 521 -9 533 -4 q 497 -16 509 -14 q 482 -19 486 -19 q 453 -12 467 -19 q 429 2 440 -5 q 390 12 409 12 q 349 13 370 13 z "},"F":{"ha":562,"x_min":68,"x_max":555,"o":"m 85 55 q 84 63 85 58 q 90 68 84 67 l 85 79 l 85 83 l 91 89 q 85 106 91 96 q 80 121 80 115 q 82 132 80 124 q 88 148 85 139 q 94 163 91 156 q 96 175 96 171 q 97 187 98 182 q 96 197 96 193 q 96 207 96 202 q 101 217 97 211 l 101 297 q 110 322 106 308 q 118 351 115 336 q 122 379 121 365 q 124 404 124 393 q 122 413 124 407 q 118 425 120 418 q 113 437 115 431 q 111 448 111 444 q 115 456 114 450 q 117 464 117 461 q 114 471 117 465 q 111 479 111 477 q 113 483 111 480 q 118 490 115 486 q 122 497 120 494 q 124 500 124 500 q 123 505 124 502 q 122 513 123 509 q 119 520 121 517 q 117 526 118 524 l 111 534 l 117 539 l 117 612 q 113 625 114 612 q 110 653 111 637 q 109 682 109 668 q 106 698 108 695 q 105 702 106 699 q 101 709 103 705 q 98 716 100 713 q 96 720 96 719 q 95 731 96 722 q 94 742 94 739 l 101 742 l 101 747 q 93 781 96 764 q 80 810 91 797 q 75 814 77 812 q 70 821 70 819 q 73 832 70 825 q 80 844 76 840 q 72 853 74 846 q 69 868 70 860 q 69 883 68 876 q 70 895 70 890 q 71 925 70 910 q 78 951 73 940 q 95 970 83 963 q 126 977 106 977 q 160 972 143 977 q 195 963 178 968 q 231 954 213 958 q 267 950 249 950 l 288 950 q 313 952 298 951 q 344 955 328 954 q 373 958 359 956 q 395 960 387 959 q 418 964 407 961 q 440 969 429 966 q 463 974 451 972 q 486 977 474 977 q 506 974 494 977 q 528 965 517 970 q 547 952 539 960 q 555 935 555 944 l 555 875 q 546 866 549 871 q 541 855 543 861 q 534 845 538 850 q 523 838 531 841 l 523 844 q 481 831 504 831 q 463 835 470 831 q 448 838 455 838 q 438 835 442 838 q 427 831 433 831 l 427 838 q 412 831 422 833 q 388 828 401 829 q 362 826 374 827 q 341 826 349 826 l 330 831 q 313 829 317 831 q 304 823 308 826 q 296 818 301 820 q 278 815 291 815 q 275 817 277 815 q 273 821 273 819 q 267 817 272 819 q 254 811 261 814 q 240 806 247 809 q 230 800 233 803 q 226 786 228 798 q 222 760 224 774 q 219 733 220 745 q 218 718 218 720 q 221 705 218 711 q 227 692 224 699 q 233 681 231 686 q 236 671 236 675 q 233 663 236 669 q 230 656 230 658 l 230 646 l 230 635 l 241 641 l 236 602 q 241 595 241 600 q 241 586 241 590 l 241 576 l 236 571 q 242 556 236 562 q 258 548 249 551 q 276 545 267 546 q 292 545 286 545 q 343 548 319 545 q 392 555 368 551 q 440 562 416 559 q 492 566 464 566 l 492 559 q 507 554 503 559 q 511 543 511 550 l 520 543 l 520 529 q 527 525 524 529 q 531 514 530 520 q 534 501 533 508 q 535 489 535 494 q 528 465 535 477 q 509 441 520 452 q 485 423 498 430 q 460 418 471 416 q 457 420 460 418 q 450 425 454 422 q 443 429 446 427 q 439 431 440 431 l 435 431 q 423 433 431 431 q 413 436 414 436 l 304 414 q 294 407 303 412 q 275 395 286 401 q 254 384 264 389 q 241 379 244 379 q 244 370 241 374 q 246 359 246 366 q 244 353 246 355 q 241 347 243 351 l 246 347 q 244 327 246 336 q 241 308 241 319 l 248 308 q 247 301 248 307 q 246 292 246 295 q 241 284 246 291 q 236 277 236 278 q 239 266 236 274 q 241 256 241 257 l 241 250 q 236 224 241 239 q 225 201 231 209 l 236 201 q 228 189 229 197 q 227 171 227 180 q 227 153 227 162 q 225 138 228 144 q 231 131 228 141 q 238 109 235 121 q 244 83 241 96 q 246 68 246 71 q 245 58 246 60 q 243 54 245 55 q 240 52 241 53 q 236 47 238 51 q 224 23 229 35 q 213 3 219 12 q 197 -12 207 -6 q 171 -17 188 -17 q 142 -12 157 -17 q 114 3 127 -6 q 93 26 101 13 q 85 55 85 39 z "},"G":{"ha":771,"x_min":65,"x_max":699,"o":"m 317 9 q 305 11 310 9 q 295 16 300 14 q 284 20 290 19 q 270 20 278 22 q 242 48 255 33 q 218 77 230 63 l 218 81 q 189 104 204 87 q 160 141 174 121 q 139 183 147 162 q 130 221 130 205 l 118 221 q 115 235 118 229 q 109 247 113 241 q 102 261 106 254 q 97 278 99 268 q 96 285 97 280 q 92 295 94 290 q 89 305 90 300 q 86 312 87 310 l 97 317 q 88 330 91 321 q 83 351 85 340 q 82 371 82 361 q 81 385 81 380 l 65 385 l 65 528 q 71 547 70 534 q 75 573 73 559 q 81 601 77 587 q 97 624 85 615 q 92 629 93 627 q 92 635 92 631 q 97 662 92 646 q 110 696 102 679 q 127 727 118 713 q 144 747 136 741 l 138 753 q 147 762 143 756 q 155 775 151 768 q 163 787 159 781 q 170 798 166 793 q 174 804 172 800 q 176 810 176 808 l 181 803 q 194 836 180 817 q 225 874 208 855 q 259 907 243 892 q 275 927 274 922 l 281 921 q 303 939 283 928 q 348 962 323 951 q 395 981 372 973 q 427 989 418 989 l 444 989 q 451 986 445 989 q 459 983 456 983 l 464 989 l 469 989 q 479 986 471 984 q 496 989 488 989 q 499 987 496 985 q 505 989 503 989 q 509 987 506 989 q 514 983 511 985 q 520 979 517 981 q 526 977 524 977 q 534 980 528 977 q 541 983 540 983 q 568 971 555 977 q 587 963 578 966 q 599 958 596 959 q 627 943 613 955 q 652 918 640 931 q 673 895 664 905 q 688 882 683 884 q 684 876 685 878 q 683 869 683 873 q 685 860 683 866 q 689 848 686 854 q 694 836 691 841 q 699 828 696 830 q 695 817 697 826 q 688 799 694 808 q 669 781 682 789 q 631 773 656 773 q 603 776 618 773 q 571 784 587 779 q 543 799 556 790 q 526 821 530 808 l 515 817 l 515 823 q 510 830 515 827 q 497 837 505 833 q 484 841 490 840 q 475 843 477 843 l 475 848 q 462 849 472 848 q 449 850 452 850 q 428 844 439 848 q 407 834 417 840 q 386 822 396 828 q 370 809 376 815 q 367 806 369 808 q 361 800 364 803 q 357 795 359 798 q 354 793 355 793 l 338 793 q 326 779 334 792 q 308 748 317 765 q 291 715 299 730 q 281 695 283 699 q 274 690 279 694 q 264 680 269 685 q 254 669 258 674 q 249 662 250 663 q 234 624 243 651 q 217 567 225 597 q 203 511 209 537 q 197 477 197 486 q 199 455 197 467 q 204 433 201 444 q 210 411 208 422 q 212 392 212 401 l 207 381 q 208 378 207 379 q 212 375 209 375 q 212 368 212 370 q 207 364 211 366 l 218 358 q 223 336 222 349 q 225 310 224 323 q 229 283 227 296 q 239 258 231 269 q 274 210 252 233 q 322 167 296 186 q 379 137 349 149 q 439 125 409 125 q 457 127 447 125 q 478 130 467 128 q 498 135 488 132 q 515 142 508 138 q 517 149 513 144 q 525 157 520 153 q 535 164 530 161 q 541 170 541 168 q 545 177 543 172 q 550 186 547 181 q 555 196 553 192 q 557 203 557 201 q 561 248 560 220 q 562 298 562 275 q 561 319 562 309 q 554 339 559 330 q 541 353 549 348 q 519 359 532 359 q 496 356 507 359 q 475 351 485 354 q 454 346 465 349 q 433 344 444 344 q 410 345 419 344 q 393 349 400 346 q 379 359 385 353 q 365 374 372 365 q 360 378 363 375 q 353 385 356 381 q 347 391 349 388 q 344 395 344 394 l 344 411 q 348 440 344 424 q 361 471 353 456 q 382 494 370 485 q 412 504 395 504 q 428 503 418 504 q 447 500 437 503 q 464 494 456 498 q 475 483 472 490 l 552 483 q 618 504 582 504 q 630 502 625 504 q 638 498 634 500 q 647 494 642 496 q 657 492 651 492 l 657 482 l 683 455 q 685 444 682 450 q 688 435 688 437 q 695 435 692 435 q 699 430 699 435 l 699 369 q 683 341 688 359 q 675 303 677 323 q 673 264 673 283 q 673 233 673 245 q 675 199 673 215 q 681 166 677 182 q 686 135 684 151 q 688 102 688 119 l 688 79 q 679 69 686 75 q 664 56 672 62 q 649 45 656 50 q 636 41 641 41 l 636 47 q 620 35 631 43 q 595 18 608 26 q 571 3 583 9 q 557 -3 560 -3 l 552 3 q 542 0 551 3 q 531 -3 534 -3 q 454 -12 494 -10 q 375 -14 414 -14 q 360 -13 370 -14 q 341 -8 351 -12 q 325 -1 332 -5 q 317 9 317 3 z "},"H":{"ha":796,"x_min":68,"x_max":713,"o":"m 568 7 q 539 20 551 7 q 528 53 528 33 l 528 58 q 533 65 528 59 q 538 73 538 71 q 535 83 538 75 q 532 94 532 92 l 532 110 q 532 114 532 111 q 532 121 532 117 q 534 129 532 125 q 538 132 535 132 l 532 136 l 542 237 l 542 294 q 543 302 542 298 q 546 310 545 306 q 546 317 547 313 q 542 326 546 321 q 542 348 542 334 q 543 375 543 361 q 544 400 543 389 q 544 415 544 411 q 546 429 544 421 q 549 444 547 437 l 473 444 l 385 444 q 375 443 382 444 q 359 441 368 442 q 342 439 350 440 q 333 439 335 439 l 317 439 q 304 438 311 439 q 289 436 296 437 q 277 435 282 435 q 271 434 272 434 q 266 431 269 433 q 258 424 262 428 q 252 416 254 420 q 249 409 249 412 q 241 288 242 352 q 240 241 240 264 q 240 195 240 217 q 242 159 240 176 q 248 123 245 141 q 254 88 251 106 q 256 53 256 71 q 247 27 256 37 q 224 10 238 16 q 195 1 211 3 q 166 -2 179 -2 q 134 1 146 -2 q 115 8 122 3 q 104 18 108 12 q 96 32 100 24 q 86 46 92 39 q 70 61 81 54 q 70 65 70 62 q 69 73 69 69 q 69 81 69 77 q 68 87 68 85 q 68 94 68 90 q 69 103 68 98 q 70 114 69 108 q 74 124 71 117 q 82 138 77 131 q 90 153 86 146 q 96 161 94 159 q 95 170 94 164 q 98 181 96 175 q 103 194 100 188 q 107 203 105 199 q 106 274 105 238 q 108 347 106 311 q 109 377 109 364 q 109 403 109 391 q 109 428 109 415 q 109 457 109 441 l 104 466 q 102 472 103 467 q 101 481 101 476 q 100 489 100 486 q 100 494 100 493 q 100 504 100 498 q 102 517 100 511 q 106 531 104 524 q 115 541 109 537 q 115 549 115 543 q 116 562 115 555 q 116 574 116 568 q 117 583 117 581 l 121 645 l 119 707 l 124 803 q 115 825 121 814 q 105 847 110 836 q 96 870 100 859 q 93 892 93 881 q 95 902 93 895 q 99 918 96 909 q 103 934 101 927 q 108 943 106 941 q 119 952 112 948 q 134 960 126 956 q 148 968 142 964 q 155 981 154 973 q 166 974 160 975 q 180 972 173 972 q 196 971 188 972 q 211 965 203 970 q 215 961 212 964 q 223 957 218 959 q 232 952 228 954 q 238 949 236 950 q 251 924 245 936 q 260 905 256 915 q 264 892 264 895 l 264 882 q 263 868 264 873 q 254 860 262 863 q 259 857 258 859 q 260 853 260 854 q 258 844 260 850 q 255 833 257 839 q 252 821 254 827 q 250 813 250 816 l 249 670 l 248 560 l 258 554 l 313 554 l 404 554 q 412 555 406 554 q 425 557 418 556 q 437 559 431 558 q 446 560 444 560 q 474 562 457 562 q 508 562 491 562 q 541 565 526 563 q 565 570 556 566 q 561 575 562 573 q 560 579 560 576 q 565 598 560 587 q 570 617 569 610 q 573 648 572 630 q 574 684 574 666 q 575 720 575 703 q 575 749 575 737 l 575 803 q 570 810 570 806 q 570 818 570 814 q 570 827 570 822 q 575 833 570 832 l 568 833 q 565 846 568 840 q 558 859 562 852 q 552 873 555 866 q 549 886 549 880 l 554 897 q 556 906 554 898 q 558 915 558 913 q 567 925 561 915 q 582 948 572 935 q 603 970 591 960 q 631 981 615 981 q 655 975 643 981 q 678 959 667 968 q 698 939 689 949 q 713 918 707 928 l 713 876 l 713 833 q 711 820 713 831 q 705 798 708 810 q 700 774 702 785 q 697 760 697 764 q 694 724 695 745 q 693 680 694 703 q 692 637 692 658 q 692 600 692 616 q 695 573 692 587 q 702 546 698 559 q 708 519 705 532 q 711 492 711 505 q 708 469 711 481 q 700 444 705 456 q 690 419 696 431 q 679 399 684 408 l 685 393 q 676 379 679 391 q 673 351 674 366 q 673 322 673 336 q 674 304 674 309 q 674 295 674 300 q 680 288 674 290 q 679 275 680 282 q 676 257 677 269 q 675 227 675 245 q 674 178 674 208 l 674 158 q 680 152 677 156 q 683 143 682 148 q 684 136 684 139 q 684 132 684 132 l 680 126 q 682 107 680 117 q 687 90 684 98 q 693 72 690 81 q 696 54 696 63 q 692 34 696 44 q 680 15 688 23 q 663 0 673 6 q 641 -5 653 -5 l 574 -5 q 568 0 568 -5 q 568 7 568 5 z "},"I":{"ha":326,"x_min":83,"x_max":248,"o":"m 111 -5 q 112 0 113 -3 q 109 7 111 3 q 105 15 106 11 q 103 21 103 18 l 98 21 l 96 31 q 94 38 94 34 q 93 43 93 41 l 93 50 q 99 50 97 50 q 103 55 102 51 q 97 67 100 57 q 91 90 94 77 q 85 116 87 103 q 83 135 83 128 l 83 145 q 83 150 83 146 q 85 158 84 153 q 87 166 86 162 q 87 172 87 170 l 83 182 l 83 185 l 83 187 l 87 192 q 93 198 93 197 l 87 208 q 86 213 87 210 q 85 219 85 216 q 83 226 83 222 l 87 237 l 83 242 l 83 249 q 83 256 83 252 q 87 262 84 260 q 83 266 84 264 q 83 270 83 269 q 84 281 83 275 q 88 294 86 288 q 91 306 90 300 q 93 315 93 311 l 87 328 q 90 335 87 329 q 93 344 93 340 l 93 361 q 90 394 93 378 q 87 425 87 410 q 88 435 87 429 q 98 439 89 440 q 91 444 94 441 q 87 452 87 448 l 87 456 q 93 463 87 457 q 98 471 98 468 q 93 477 98 473 l 87 481 l 87 486 q 91 491 87 489 q 98 492 94 492 q 98 507 98 502 q 100 516 99 513 q 102 524 101 520 q 103 536 103 528 q 102 542 103 540 q 98 546 102 543 q 106 556 104 550 q 111 569 109 562 q 113 582 113 576 q 115 593 114 589 q 120 653 121 624 q 119 714 119 682 l 119 791 q 115 800 115 795 q 114 809 114 804 q 115 819 115 814 q 115 829 116 824 q 111 837 114 834 q 106 844 109 840 q 101 852 103 848 q 98 863 98 857 q 103 888 98 876 q 109 908 109 901 q 103 920 109 912 q 98 931 98 928 q 103 944 98 939 q 113 952 107 949 q 124 960 119 956 q 132 968 130 963 l 152 968 q 199 957 178 968 q 235 926 220 946 q 238 905 234 917 q 242 882 242 893 l 248 882 l 248 877 l 242 867 l 242 823 l 235 818 q 242 796 240 806 q 246 779 245 787 q 247 762 247 770 q 248 744 248 754 q 243 696 248 718 q 242 648 239 675 l 235 643 l 235 541 l 231 536 l 231 481 l 224 476 q 230 470 229 473 q 231 463 231 466 l 231 456 l 224 444 l 224 406 q 221 405 223 406 q 219 401 219 404 q 222 394 219 399 q 224 385 224 388 l 224 380 q 224 373 224 376 q 219 369 223 370 l 219 332 q 217 324 219 330 q 214 315 214 318 l 219 310 q 219 306 219 309 q 218 297 218 302 q 218 289 218 293 q 218 283 218 285 q 225 284 219 283 q 231 279 231 285 q 230 276 231 278 q 228 271 229 273 q 225 266 227 268 q 224 262 224 263 l 224 254 l 224 247 q 237 202 232 224 q 242 155 242 179 q 242 151 242 154 q 242 144 243 147 q 240 138 241 140 q 235 135 239 135 l 242 130 l 242 92 l 235 86 q 244 76 242 81 q 246 65 246 71 q 241 33 246 48 q 228 5 237 17 q 204 -13 218 -6 q 172 -20 191 -20 q 160 -20 168 -20 q 143 -19 151 -20 q 128 -13 134 -17 q 122 0 122 -8 l 111 -5 z "},"J":{"ha":424,"x_min":-9,"x_max":353,"o":"m 76 -16 l 71 -16 q 41 -8 55 -16 q 16 10 27 -1 q 9 21 13 14 q 1 34 5 27 q -9 50 -4 41 l -9 102 q 1 123 -9 113 q 26 140 12 133 q 57 153 41 148 q 84 157 73 157 q 105 153 95 157 q 123 144 115 149 q 140 135 132 139 q 158 131 149 131 q 170 134 166 131 q 174 141 173 137 q 176 150 176 145 q 179 157 176 154 q 182 162 179 158 q 189 170 185 165 q 195 177 192 174 q 198 182 198 181 q 203 200 201 189 q 207 222 205 211 q 209 244 208 234 q 210 262 210 255 l 208 345 l 208 354 l 203 364 q 206 386 205 378 q 208 399 207 394 q 210 406 210 404 l 205 417 q 210 426 205 420 q 214 434 214 431 q 212 441 214 435 q 210 450 210 447 l 210 497 q 212 506 210 500 q 214 513 214 511 q 212 522 214 515 q 210 530 210 528 l 215 593 l 216 663 l 220 674 l 216 749 q 218 759 216 749 q 222 779 220 768 q 224 802 224 791 q 222 818 225 814 q 216 823 218 822 q 211 824 213 824 q 207 827 209 825 q 202 835 205 829 q 199 841 201 836 q 196 853 198 846 q 193 865 195 859 q 191 871 192 870 q 186 880 191 874 q 181 888 181 886 q 182 895 180 892 q 186 901 184 898 q 192 906 189 903 q 194 913 194 909 l 191 913 q 199 941 191 928 q 219 963 208 954 q 245 977 231 972 q 269 982 258 982 l 269 973 q 289 966 281 973 q 302 948 297 959 q 312 926 308 938 q 322 903 317 913 q 339 865 334 882 q 345 832 344 848 q 346 796 347 815 q 348 749 346 777 q 350 741 348 747 q 353 733 353 734 q 349 722 353 730 q 342 711 345 713 l 348 706 l 348 683 l 348 648 q 345 636 348 645 q 342 627 342 628 q 345 615 342 624 q 348 604 348 607 l 348 602 q 346 584 348 601 q 340 548 343 568 q 334 513 337 529 q 330 497 331 497 q 333 493 332 496 q 336 485 335 490 q 338 477 337 481 q 338 471 338 473 l 338 466 q 338 461 338 465 q 336 454 337 458 q 335 448 336 451 q 334 444 334 445 q 338 431 334 438 q 342 417 342 423 q 342 411 342 412 q 338 406 342 409 q 341 402 339 405 q 344 397 342 400 q 347 392 346 395 q 348 389 348 389 q 345 376 348 382 q 342 364 342 370 q 343 351 342 360 q 347 338 345 342 l 347 269 q 341 263 342 265 q 340 259 340 262 l 340 257 l 347 247 q 345 238 347 243 q 339 228 342 233 q 333 219 336 223 q 328 214 330 215 l 328 161 q 319 155 322 159 q 316 144 317 150 q 316 133 316 139 q 315 123 316 127 q 307 107 313 111 q 294 96 301 104 q 284 74 288 87 q 273 51 281 60 q 243 21 260 35 q 209 -3 227 7 q 170 -20 190 -14 q 129 -26 150 -26 q 119 -24 125 -26 q 106 -19 113 -22 q 95 -13 100 -16 q 86 -10 90 -10 l 76 -16 z "},"K":{"ha":652,"x_min":78,"x_max":654,"o":"m 559 -22 q 547 -22 557 -22 q 532 -23 537 -23 q 519 -16 526 -22 q 507 -2 513 -10 q 496 15 501 7 q 488 29 492 24 q 479 40 486 32 q 466 58 473 48 q 453 77 459 68 q 446 89 448 85 q 443 98 446 92 q 434 112 440 104 q 421 129 429 120 q 408 147 414 138 q 387 177 396 163 q 377 199 377 191 q 377 204 377 201 q 378 209 378 207 q 368 216 375 210 q 361 224 361 222 l 361 241 q 357 244 360 241 q 350 250 354 247 q 344 257 347 254 q 340 261 341 260 l 340 267 q 333 285 338 277 q 322 300 328 293 q 310 315 316 308 q 298 330 303 322 q 295 337 297 332 q 291 349 294 343 q 287 360 289 355 q 282 365 284 365 q 279 368 281 365 q 275 375 277 371 q 271 382 273 378 q 269 387 269 385 q 271 392 271 389 q 267 401 271 397 q 259 410 264 406 q 249 417 254 414 q 241 420 244 420 q 238 419 239 420 q 237 419 237 419 q 235 418 236 418 l 230 355 q 236 341 236 353 q 235 327 236 334 q 234 317 234 320 q 232 309 234 315 q 229 302 229 304 l 234 291 q 230 256 234 273 q 225 219 225 239 q 227 180 225 203 q 235 139 229 157 q 237 135 235 138 q 240 128 239 132 q 244 122 242 125 q 245 119 245 119 q 243 107 245 113 q 240 97 240 102 q 245 92 240 92 l 240 87 l 245 82 q 243 71 245 76 q 241 62 242 66 q 240 56 241 58 q 227 35 237 44 q 205 20 218 26 q 180 11 193 14 q 157 8 167 8 q 134 12 146 8 q 115 24 122 16 l 116 30 q 101 34 107 30 q 91 45 95 39 q 85 58 87 51 q 83 71 83 65 l 78 71 l 78 134 q 80 138 79 134 q 84 146 82 142 q 87 155 85 151 q 88 161 88 159 q 86 168 88 162 q 83 176 83 173 q 86 189 83 180 q 91 208 88 197 q 96 229 94 218 q 98 250 98 239 q 94 253 98 251 q 88 254 90 254 q 92 261 90 256 q 95 272 94 267 q 98 282 97 277 q 98 291 98 288 q 97 307 98 296 q 94 323 95 319 q 98 334 98 325 l 94 339 q 96 363 94 351 q 101 388 98 376 q 107 413 104 401 q 110 437 110 425 q 109 443 110 438 q 107 453 108 448 q 105 463 106 458 q 104 468 104 467 q 106 475 104 471 q 110 479 107 479 l 110 542 q 112 555 110 547 q 115 566 115 564 q 110 573 115 571 q 104 583 104 576 q 107 600 104 591 q 112 617 109 608 q 118 635 115 627 q 120 652 120 644 q 116 659 118 654 q 115 666 115 663 q 117 675 115 671 q 120 684 120 678 q 117 699 120 691 q 115 715 115 706 q 116 725 115 718 q 120 736 117 733 q 117 767 118 749 q 114 801 117 784 q 106 833 111 819 q 88 857 100 848 l 88 917 q 113 945 100 932 q 139 964 124 955 q 172 972 155 972 q 178 969 174 972 q 185 963 182 966 q 192 956 189 960 q 197 952 195 953 l 210 947 q 230 923 222 936 q 240 897 237 911 q 245 869 244 884 q 245 839 245 854 q 244 828 245 833 q 240 820 243 822 l 240 797 q 243 735 240 764 q 246 671 246 706 q 246 662 246 667 q 245 652 245 657 q 250 646 248 648 q 252 640 252 644 l 252 636 l 245 631 q 247 625 245 629 q 250 615 248 621 q 253 606 252 610 q 256 600 255 602 q 353 726 301 665 q 460 846 406 787 q 476 872 470 860 q 492 899 482 884 l 498 903 q 503 909 503 907 l 498 920 q 505 924 499 922 q 514 928 511 927 q 509 935 509 930 q 512 946 509 941 q 521 956 516 951 q 531 964 526 960 q 538 972 536 968 l 557 972 q 582 967 571 972 q 601 954 593 961 q 617 935 610 945 l 627 941 q 638 930 633 939 q 646 909 643 921 q 652 886 650 897 q 654 869 654 874 l 654 846 q 648 841 652 845 q 642 831 645 836 q 635 822 638 826 q 633 815 633 817 q 614 806 627 812 q 589 791 602 800 q 563 773 576 783 q 544 757 551 764 q 514 725 528 741 q 488 694 501 709 l 488 688 q 484 680 484 682 q 483 678 484 678 l 479 679 q 472 673 477 679 q 438 637 458 661 q 398 588 418 614 q 365 537 379 562 q 351 495 351 512 q 354 482 351 490 q 362 466 357 474 q 373 449 367 457 q 387 436 380 441 l 397 428 q 405 414 398 422 q 419 396 412 406 q 434 375 427 386 q 440 355 440 365 l 450 355 q 454 337 450 345 q 463 324 458 330 q 473 311 468 317 q 482 297 479 304 q 480 286 482 294 q 479 276 479 277 l 489 276 q 495 259 489 267 q 510 243 502 252 q 524 226 517 235 q 532 202 531 216 q 545 192 537 201 q 561 172 553 182 q 574 151 568 161 q 581 139 580 141 q 588 132 584 132 q 596 129 592 132 q 605 118 599 125 q 617 101 611 110 q 628 82 623 92 q 633 67 633 73 q 632 64 633 66 q 627 60 631 62 q 649 45 635 48 q 641 13 649 27 q 619 -11 632 -1 q 590 -26 606 -21 q 559 -32 574 -32 l 559 -22 z "},"L":{"ha":547,"x_min":85,"x_max":541,"o":"m 160 -3 q 131 3 140 -3 q 117 19 122 9 q 107 39 112 28 q 92 56 102 49 l 92 104 q 95 105 93 104 q 97 110 97 106 q 96 114 97 111 q 94 120 95 117 q 92 127 93 124 q 92 132 92 131 q 94 136 92 134 q 98 138 97 138 l 98 180 l 108 186 q 102 191 102 186 l 108 202 q 105 212 108 203 q 102 223 102 220 l 102 229 q 102 235 102 233 q 108 240 103 237 l 108 280 l 108 321 q 105 331 108 322 q 102 342 102 339 q 103 346 102 342 q 105 355 104 350 q 107 363 106 359 q 108 369 108 368 q 105 375 108 370 q 102 380 103 380 l 102 437 q 101 442 102 439 q 99 449 100 446 q 98 455 98 452 q 97 459 97 458 l 97 463 q 99 484 97 473 q 102 507 102 495 l 102 513 q 99 525 102 516 q 97 534 97 533 q 102 550 97 542 q 108 565 108 557 l 108 567 l 102 572 q 107 634 102 601 q 113 697 113 667 q 113 725 113 705 q 112 767 113 745 q 107 806 111 789 q 97 826 104 823 l 102 831 q 89 845 92 834 q 86 865 86 856 q 87 877 86 871 q 92 886 87 882 l 85 886 q 87 916 85 901 q 97 945 90 930 l 102 945 q 128 963 115 954 q 160 972 140 972 q 181 967 172 972 q 196 956 189 962 q 208 944 202 949 q 219 939 213 939 q 222 924 219 931 q 230 910 226 917 q 239 896 235 903 q 244 881 243 889 q 243 868 243 874 q 244 858 243 863 q 249 852 245 854 q 239 837 243 850 q 233 807 235 823 q 230 777 231 791 q 229 755 229 762 q 231 719 229 738 q 234 679 234 699 q 231 614 234 646 q 229 549 229 582 l 229 494 q 234 478 234 487 q 234 460 234 470 q 233 435 234 445 q 229 410 233 425 l 229 242 q 232 221 231 233 q 234 199 233 210 q 237 179 235 189 q 244 161 239 169 q 250 153 248 155 q 254 150 252 151 q 257 146 255 149 q 260 138 258 144 l 324 138 l 385 138 q 391 139 386 138 q 401 141 395 140 q 411 143 406 142 q 417 144 416 144 q 431 147 425 144 q 441 152 436 149 q 453 158 447 155 q 469 160 460 160 q 504 152 487 160 q 531 128 522 144 l 531 117 q 532 113 531 116 q 535 106 534 110 q 539 100 537 103 q 541 96 541 97 l 541 23 q 536 19 536 20 q 537 17 536 18 q 537 14 537 16 q 531 7 536 12 q 524 4 530 5 q 509 0 517 2 q 493 -2 500 -1 q 482 -3 485 -3 q 468 -1 481 -3 q 441 5 456 1 l 401 13 q 386 14 397 14 q 362 16 375 15 q 338 17 350 16 q 322 18 327 18 q 281 13 301 18 q 240 3 260 8 q 200 -7 220 -3 q 160 -12 180 -12 l 160 -3 z "},"M":{"ha":991,"x_min":85,"x_max":913,"o":"m 85 56 q 91 78 85 68 q 96 98 96 89 l 96 102 q 95 106 96 102 q 91 114 93 109 q 87 123 89 119 q 85 128 85 127 q 88 135 85 130 q 91 144 91 141 l 91 154 l 91 165 l 85 175 q 91 189 85 179 q 96 207 96 198 q 102 260 99 232 q 107 316 104 288 q 111 372 109 345 q 112 426 112 400 q 109 447 112 438 q 106 468 106 456 q 112 560 106 513 q 117 654 117 607 l 117 717 q 112 722 112 717 l 117 738 q 110 753 113 745 q 106 764 106 762 q 109 777 106 773 q 112 792 112 781 q 107 821 112 808 q 102 853 103 835 q 106 857 105 854 q 106 864 106 860 l 106 869 l 99 868 q 100 873 99 869 q 102 880 102 878 l 102 882 q 100 891 102 886 q 96 902 98 896 q 93 913 94 907 q 91 924 91 919 q 99 941 91 932 q 119 957 106 949 q 146 969 131 964 q 175 974 161 974 q 215 969 197 974 q 245 957 233 964 q 263 941 257 949 q 269 927 269 933 l 264 917 l 269 911 l 264 901 q 270 870 264 885 q 283 840 275 855 q 297 810 290 825 q 306 780 304 795 l 354 707 q 354 701 351 701 q 359 696 356 700 q 391 590 376 644 q 433 486 406 536 l 433 481 q 436 471 433 479 q 442 455 439 464 q 449 438 446 446 q 453 428 452 430 q 458 408 456 418 q 464 386 460 397 q 472 364 467 375 q 484 345 477 353 q 487 350 484 347 q 490 355 490 353 q 499 380 494 364 q 509 410 504 395 q 522 444 515 427 l 522 450 l 651 764 q 651 787 649 777 q 658 805 654 796 q 667 821 662 813 q 677 838 673 829 q 684 860 682 848 q 687 883 685 871 q 695 903 689 894 q 714 917 701 913 l 730 954 q 744 960 738 954 q 756 972 749 966 q 772 985 762 979 q 798 990 782 990 q 815 986 808 990 q 829 980 821 981 l 855 980 q 871 969 865 977 q 884 954 878 962 q 896 939 890 946 q 908 927 901 931 q 899 919 901 924 q 898 905 898 914 l 898 895 l 903 890 q 902 886 903 888 q 898 880 901 882 q 886 854 891 869 q 878 824 882 840 q 873 792 875 808 q 871 764 871 777 q 873 739 871 749 q 882 711 874 728 q 877 701 879 708 q 874 686 876 694 q 872 671 873 678 q 871 659 871 663 q 874 622 871 640 q 877 585 877 604 l 877 549 q 873 546 876 549 q 871 538 871 542 q 873 531 871 537 q 877 523 876 526 q 880 356 876 439 q 885 189 885 272 q 890 190 888 189 q 894 192 892 191 q 897 190 896 192 q 898 182 898 188 q 897 175 898 180 q 898 165 897 170 l 892 155 l 898 151 q 903 141 900 147 q 908 130 905 136 q 912 119 910 123 q 913 113 913 114 l 913 79 q 913 46 913 58 q 910 28 912 34 q 906 21 909 22 q 900 17 904 19 q 890 11 896 15 q 877 -2 884 7 l 803 -2 l 766 24 q 764 30 768 24 q 756 43 761 36 q 746 56 751 50 q 740 66 741 63 q 739 71 740 67 q 738 78 739 74 q 736 85 736 81 q 735 89 735 88 q 741 127 735 107 q 751 165 747 148 q 755 192 754 180 q 757 216 757 203 q 756 242 757 228 q 756 274 756 256 q 755 459 756 367 q 745 644 753 551 q 730 623 737 637 q 718 594 724 609 q 707 568 712 580 q 698 554 702 556 q 691 541 696 550 q 682 520 687 531 q 673 500 677 509 q 667 486 669 490 q 657 460 664 479 q 643 422 650 441 q 625 371 635 399 l 556 199 q 557 192 557 197 q 555 183 556 188 q 553 172 554 178 q 551 164 551 167 q 554 140 551 153 q 556 117 556 128 l 556 115 q 551 109 552 111 q 549 103 549 106 q 547 96 548 100 q 541 89 545 93 q 528 78 538 85 q 507 65 518 72 q 484 55 495 59 q 469 52 473 51 q 445 61 458 54 q 419 77 432 68 q 396 97 406 87 q 379 115 385 107 q 380 119 381 117 q 376 125 379 122 q 369 131 374 127 l 369 149 l 369 168 q 374 175 369 169 q 379 184 379 181 l 374 194 l 374 241 q 372 252 374 243 q 368 272 370 261 q 362 291 365 282 q 359 302 359 300 l 359 307 l 317 434 q 311 450 317 435 q 297 489 305 466 q 278 538 288 511 q 259 587 268 564 q 244 624 250 609 q 237 640 238 640 q 230 623 232 637 q 229 591 229 608 q 231 557 230 573 q 233 536 233 541 l 233 533 q 234 522 233 531 q 236 502 235 513 q 238 482 237 491 q 239 471 239 473 q 240 433 241 452 q 235 393 238 413 q 230 354 233 374 q 227 316 227 334 l 227 302 l 233 297 q 231 275 233 287 q 229 250 230 262 q 226 224 227 237 q 224 201 224 212 l 224 191 q 227 182 224 188 q 230 175 230 176 l 230 106 l 235 102 q 236 95 235 100 q 238 86 237 91 q 241 76 239 81 q 243 70 242 72 l 250 70 q 244 42 250 56 q 229 17 239 28 q 205 -2 218 5 q 177 -9 192 -9 q 170 -3 173 -9 l 165 -9 q 137 -2 151 -7 q 111 10 123 2 q 93 29 100 18 q 85 56 85 40 z "},"N":{"ha":828,"x_min":83,"x_max":733,"o":"m 184 -12 q 172 -11 182 -12 q 150 -9 161 -11 q 127 -5 138 -8 q 115 3 117 -2 q 108 15 113 9 q 98 26 103 20 q 88 36 92 31 q 83 47 83 41 l 83 118 l 85 122 q 89 129 86 126 q 100 156 95 137 q 107 196 104 174 q 112 237 111 217 q 111 269 113 258 l 115 274 l 112 672 l 112 689 l 112 830 q 92 878 100 851 q 83 929 83 904 q 87 943 83 936 q 96 956 91 949 q 108 966 102 962 q 121 972 115 970 l 149 972 q 176 970 163 972 q 199 967 188 967 q 197 960 199 962 q 194 956 195 958 l 199 956 l 205 956 l 216 961 q 220 959 217 961 q 226 956 223 958 q 242 942 233 950 q 260 925 251 934 q 277 908 269 917 q 289 890 285 899 q 300 852 298 867 q 309 820 303 838 q 326 784 315 802 q 348 748 337 766 q 367 712 359 730 q 374 677 374 694 q 387 666 378 677 q 407 635 395 654 q 431 595 418 617 q 455 552 444 573 q 475 515 467 532 q 488 492 484 499 q 499 462 494 478 q 510 430 505 446 q 524 401 516 415 q 545 378 532 387 q 550 368 552 372 q 548 355 548 363 q 561 357 555 355 q 566 370 566 359 q 563 381 566 379 q 559 389 559 384 q 562 431 559 410 q 567 473 564 452 q 573 516 570 494 q 576 557 576 537 q 571 563 576 563 l 571 583 q 571 598 571 589 q 576 612 570 607 q 577 646 575 630 q 581 678 578 663 q 584 709 583 694 q 586 739 586 724 q 587 747 586 743 q 581 754 587 751 q 585 771 584 764 q 586 787 586 779 l 586 792 q 585 798 586 793 q 584 808 585 802 q 582 819 583 814 q 581 825 581 823 q 584 832 581 826 q 586 842 586 839 q 583 851 586 844 q 576 867 580 858 q 569 888 572 877 q 566 909 566 899 l 566 934 q 573 941 567 935 q 587 955 580 947 q 601 969 595 962 q 608 977 607 975 q 617 979 610 978 q 631 981 624 980 q 645 983 639 982 q 654 983 652 983 q 673 978 661 983 q 700 965 686 972 q 723 949 713 958 q 733 934 733 940 l 733 847 q 729 835 731 845 q 723 811 726 825 q 717 781 720 798 q 712 749 714 764 q 708 722 709 734 q 707 705 707 710 q 706 686 707 696 q 706 666 705 676 q 709 646 707 656 q 718 629 711 636 q 715 622 717 627 q 710 612 713 617 q 705 602 707 607 q 701 595 703 597 l 701 594 q 704 573 701 583 q 707 551 707 564 q 707 527 707 541 q 706 498 707 513 q 703 471 705 484 q 696 448 701 458 l 701 448 l 701 410 l 691 399 l 696 394 l 691 389 l 696 389 q 702 375 701 384 q 703 358 703 367 q 702 340 703 349 q 701 328 701 332 q 707 323 707 328 q 704 312 707 317 q 699 303 702 307 q 693 293 696 298 q 691 280 691 288 q 693 250 691 264 q 697 222 695 236 q 701 193 700 208 q 701 161 703 178 l 713 167 q 707 157 708 163 q 707 144 707 151 l 705 144 q 709 131 705 138 q 719 116 713 124 q 729 97 724 107 q 733 76 733 87 q 728 47 733 61 q 713 22 723 33 q 690 4 704 11 q 660 -3 677 -3 q 653 2 660 -1 q 637 6 646 4 q 619 9 628 8 q 608 9 610 9 q 601 15 606 11 q 592 23 597 19 q 582 31 587 27 q 576 37 578 35 q 558 59 566 45 q 545 90 551 73 q 533 122 538 106 q 519 151 527 138 q 510 165 517 155 q 495 186 503 175 q 480 207 487 197 q 473 221 473 217 l 477 233 q 472 239 477 233 l 467 243 q 455 261 461 251 q 444 283 449 272 q 435 307 439 295 q 431 328 431 318 q 425 329 427 326 q 421 334 422 331 q 418 341 419 338 q 414 345 416 345 q 413 356 414 349 q 410 371 412 363 q 407 385 408 378 q 404 394 405 391 q 399 402 401 398 q 399 410 396 406 l 352 498 q 346 505 349 500 q 340 516 342 511 q 336 530 338 523 l 331 530 q 322 547 329 535 q 308 572 316 558 q 290 601 299 586 q 273 628 281 616 q 259 648 264 640 q 252 656 254 656 l 247 656 q 243 646 244 654 q 242 634 242 637 q 244 615 242 622 q 245 599 245 609 q 243 584 245 591 q 240 568 240 577 q 243 547 240 556 q 245 529 245 538 q 245 520 245 524 q 244 515 245 517 q 244 511 244 513 q 243 507 243 509 l 243 503 l 249 492 l 243 481 l 249 471 l 249 465 q 248 459 249 462 q 243 454 248 457 l 243 285 q 250 265 248 279 q 253 236 252 252 q 254 204 254 220 q 254 179 254 189 l 254 178 q 250 169 254 175 q 247 161 247 163 l 252 151 l 252 146 l 252 144 q 251 140 252 143 q 249 134 250 137 q 248 127 248 130 q 247 123 247 124 l 252 123 q 255 117 254 121 q 257 113 257 114 l 257 52 q 248 41 249 49 q 244 23 247 33 q 231 3 241 13 q 194 -14 220 -7 q 188 -16 191 -14 q 184 -19 185 -19 l 184 -12 z "},"O":{"ha":821,"x_min":52,"x_max":762,"o":"m 318 7 q 303 15 315 9 q 280 28 292 20 q 248 46 266 36 q 216 73 233 62 q 183 99 198 84 q 171 115 177 106 q 159 134 165 124 q 146 152 153 143 q 131 169 139 161 l 98 244 q 98 251 99 246 q 94 262 96 256 q 90 273 92 268 q 87 281 87 279 q 88 287 87 283 q 89 297 89 292 q 90 306 90 302 q 91 313 91 311 l 85 313 q 83 318 85 315 q 81 323 81 321 q 68 363 76 340 q 61 406 61 385 q 61 410 61 407 q 61 415 60 412 q 62 421 61 418 q 66 425 63 424 l 61 429 l 61 488 l 56 494 q 60 496 58 494 q 61 500 61 498 l 56 510 l 61 515 q 60 521 61 517 q 59 526 59 524 l 52 526 q 55 556 52 534 q 62 601 58 577 q 70 647 66 625 q 77 676 74 668 q 82 682 77 677 q 87 687 87 686 q 92 718 92 703 q 98 751 92 734 q 104 763 100 756 q 112 776 108 769 q 118 790 115 783 q 121 804 121 798 l 127 804 q 130 824 127 813 q 138 846 133 836 q 149 867 142 857 q 163 884 155 877 q 173 897 170 892 q 179 906 176 901 q 186 917 182 911 q 199 934 191 923 q 223 947 209 943 q 248 959 238 951 q 256 965 252 961 q 267 972 261 968 q 279 981 273 976 q 290 983 283 982 q 304 983 296 983 q 318 983 312 983 q 328 981 325 982 q 332 985 330 985 q 338 986 335 986 q 358 984 349 986 q 377 978 368 981 q 397 973 387 975 q 416 970 406 970 q 437 974 427 970 q 455 981 446 977 q 474 988 465 985 q 493 991 483 991 q 510 987 500 991 q 531 978 521 983 q 549 969 541 973 q 557 965 556 965 q 565 966 561 965 q 568 970 568 968 l 568 956 q 586 951 581 956 q 595 939 592 946 q 602 924 599 932 q 612 911 606 916 q 651 867 635 888 q 679 824 667 846 q 702 778 691 802 q 724 724 712 753 q 735 701 728 711 q 745 676 742 690 l 745 645 q 747 640 745 644 q 750 633 749 637 q 754 627 752 630 q 755 622 755 623 l 755 610 q 755 588 755 597 q 751 564 754 578 l 755 559 l 755 484 q 762 476 762 481 q 761 468 761 472 q 759 449 761 458 q 753 431 756 440 q 748 414 750 422 q 745 398 745 406 q 750 368 745 383 q 755 340 755 353 q 753 329 755 334 q 748 320 751 324 q 743 311 745 315 q 739 301 740 307 q 738 292 739 298 q 735 278 736 286 q 731 263 733 270 q 729 254 730 257 q 724 244 728 254 q 716 222 721 235 q 707 194 712 210 q 697 164 702 178 q 687 139 692 150 q 680 125 683 129 q 656 100 669 112 q 630 75 643 87 q 603 51 616 63 q 578 24 590 38 l 511 -8 l 511 -5 q 498 -3 503 -5 q 489 -2 494 -2 q 481 -4 485 -2 q 472 -13 477 -6 l 409 -13 q 404 -16 409 -14 q 397 -18 399 -18 q 377 -14 387 -18 q 359 -3 368 -9 q 342 7 350 3 q 328 12 334 12 l 318 7 m 315 184 q 321 168 315 177 q 337 150 328 159 q 357 134 347 141 q 376 125 368 127 q 388 123 382 123 q 400 122 394 122 q 413 120 407 121 q 425 114 419 118 q 486 134 460 118 q 531 173 512 150 q 565 224 551 196 q 589 281 579 252 q 594 313 596 295 q 594 346 593 331 q 599 356 595 350 q 605 368 602 361 q 611 381 608 374 q 612 393 613 387 q 606 398 612 395 q 600 403 600 401 l 607 413 q 616 454 614 435 q 617 500 617 472 q 621 504 618 500 q 623 510 623 509 l 617 515 l 617 520 l 617 526 q 620 537 617 529 q 623 548 623 545 q 621 558 623 553 q 616 570 618 564 q 610 583 613 576 q 607 595 608 589 q 602 633 602 614 q 594 671 602 652 q 579 704 589 689 q 564 735 570 719 q 556 748 559 746 q 551 750 553 750 q 547 751 549 750 q 542 762 545 752 q 541 767 542 762 q 540 778 541 772 q 538 788 539 783 q 537 793 538 793 q 520 808 533 801 q 490 821 507 814 q 459 832 474 827 q 435 842 444 837 q 429 849 431 845 q 424 858 427 854 q 417 866 421 863 q 406 869 413 869 q 363 862 381 869 q 332 843 346 854 q 307 816 318 831 q 285 783 296 800 q 277 774 283 779 q 265 763 271 768 q 254 754 259 758 q 248 747 249 749 l 248 724 q 243 715 247 722 q 237 703 240 709 q 230 690 233 696 q 227 682 227 684 q 217 646 221 668 q 209 601 212 625 q 205 554 206 577 q 205 515 204 531 l 193 510 l 199 505 q 202 479 201 492 q 204 459 203 469 q 205 441 205 448 l 205 413 q 206 400 205 409 q 209 382 208 391 q 213 363 211 372 q 216 351 215 355 q 223 330 218 345 q 237 297 229 315 q 256 258 245 278 q 276 222 266 239 q 297 195 287 205 q 315 184 307 184 z "},"P":{"ha":647,"x_min":80,"x_max":619,"o":"m 159 6 l 159 11 q 128 19 142 11 q 105 41 115 28 q 91 73 96 55 q 85 109 85 90 q 87 125 85 120 q 92 134 89 131 q 97 142 94 138 q 102 154 100 146 q 103 169 104 163 q 101 179 102 174 q 103 189 101 184 q 112 199 104 193 q 107 203 108 201 q 106 212 106 206 l 106 218 l 112 222 q 109 230 112 224 q 106 239 106 237 q 112 328 106 284 q 117 418 117 372 q 116 435 117 427 q 114 449 115 442 q 113 464 113 456 q 112 483 112 472 l 112 506 l 117 511 l 117 585 q 113 587 115 585 q 112 590 112 589 q 117 620 112 605 q 122 652 122 635 q 117 683 122 667 q 112 711 112 698 q 115 720 112 714 q 117 727 117 726 q 108 780 115 755 q 102 832 102 804 l 91 832 q 94 836 92 832 q 96 842 96 840 q 94 849 96 844 q 89 858 92 853 q 83 868 86 863 q 80 873 81 872 l 80 952 q 85 961 80 956 q 98 970 91 966 q 112 976 105 974 q 122 979 119 979 q 126 978 123 979 q 132 976 129 977 q 139 975 136 975 q 144 974 142 974 q 151 975 145 974 q 159 979 156 976 l 159 974 q 162 975 159 975 q 169 977 165 976 q 176 978 172 977 q 180 979 179 979 q 187 974 182 979 q 196 968 193 970 q 198 973 197 972 q 203 974 199 974 q 222 971 214 974 q 240 968 231 968 q 302 974 271 968 q 364 979 334 979 l 369 974 q 376 976 370 974 q 385 979 382 979 l 395 979 q 427 974 411 979 q 459 968 443 968 q 465 970 460 968 q 469 974 469 971 q 479 965 471 971 q 490 958 487 959 q 520 937 507 947 q 551 921 534 926 q 560 907 553 920 q 574 881 566 895 q 587 855 581 867 q 593 842 593 843 l 596 842 q 600 826 596 840 q 607 796 603 812 q 615 767 611 780 q 619 753 618 753 l 619 705 l 619 659 q 617 639 619 652 q 610 612 614 626 q 600 585 606 597 q 589 570 595 573 q 594 564 594 570 q 574 508 593 536 q 530 455 556 480 q 474 411 504 431 q 422 383 445 392 q 384 373 406 377 q 338 365 361 368 q 292 361 315 362 q 254 362 270 360 q 250 340 252 349 q 245 323 248 331 q 240 306 242 315 q 239 285 239 298 q 239 280 239 283 q 241 273 240 277 q 243 265 242 269 q 243 261 243 262 l 240 255 l 240 226 l 239 220 q 239 199 239 211 q 240 174 239 186 q 243 150 241 161 q 249 130 245 138 q 254 123 249 126 q 259 119 256 120 l 259 115 l 259 113 l 254 101 q 256 91 254 98 q 259 83 259 84 q 258 73 259 79 q 255 61 257 67 q 250 49 253 54 q 243 41 248 43 l 249 36 q 237 30 242 36 q 233 18 233 24 l 191 0 l 191 6 l 159 6 m 249 508 q 252 505 249 507 q 260 500 256 503 q 269 495 265 497 q 275 493 273 493 l 286 499 q 292 496 287 499 q 301 493 298 493 l 322 493 q 355 500 336 493 q 393 520 374 508 q 426 548 412 532 q 445 579 441 564 q 447 592 447 589 q 448 598 447 596 q 450 604 448 600 q 457 615 452 607 q 471 653 467 631 q 476 695 476 675 q 474 713 476 705 q 470 730 473 722 q 466 746 468 738 q 465 764 465 754 q 462 775 465 768 q 459 787 459 783 q 456 794 459 790 q 449 801 452 798 q 443 809 446 805 q 443 816 441 812 q 430 824 439 819 q 410 835 420 829 q 389 845 399 841 q 374 849 379 849 l 364 844 l 361 844 l 359 844 l 349 849 q 341 848 347 849 q 329 847 336 848 q 318 845 323 846 q 312 844 313 844 q 294 843 307 844 q 270 840 282 842 q 248 833 258 837 q 239 823 239 829 l 239 773 l 243 768 q 246 758 244 764 q 249 743 248 751 q 252 729 251 735 q 254 722 254 723 q 252 712 254 720 q 249 701 250 703 l 249 508 z "},"Q":{"ha":821,"x_min":65,"x_max":756,"o":"m 519 -193 l 513 -182 l 513 -171 q 512 -162 513 -168 q 510 -151 511 -157 q 508 -138 509 -145 q 506 -136 508 -138 q 500 -131 503 -134 q 495 -126 497 -128 q 492 -122 492 -123 q 482 -99 486 -111 q 473 -74 478 -86 q 462 -51 469 -62 q 444 -32 455 -40 q 418 -23 435 -25 q 382 -19 400 -22 q 351 -11 364 -16 q 338 10 338 -5 l 310 10 l 310 16 l 305 16 q 297 21 303 18 q 284 27 291 24 q 271 33 277 31 q 262 37 264 36 q 257 44 260 39 q 257 53 254 50 q 198 92 220 58 q 193 96 197 90 q 184 109 189 102 q 174 124 178 117 q 167 134 169 132 q 132 173 146 154 q 110 211 119 191 q 94 253 100 231 q 81 305 87 276 l 75 310 l 75 347 l 65 359 l 65 466 q 67 472 66 469 q 68 477 68 475 q 70 481 69 479 l 75 492 q 73 499 75 494 q 70 507 70 505 l 70 516 q 72 553 70 533 q 76 593 73 572 q 83 632 79 613 q 92 669 87 652 q 94 676 93 671 q 97 685 96 680 q 100 694 98 690 q 102 700 101 699 q 106 715 105 708 q 110 728 108 722 q 115 743 112 735 q 125 760 118 750 l 135 765 l 135 770 q 147 797 140 783 q 163 825 155 811 q 181 851 172 838 q 198 877 190 865 l 203 877 l 242 913 l 242 924 l 252 929 q 260 932 256 930 q 269 935 265 934 q 279 938 273 936 q 291 943 285 940 q 303 949 298 945 q 310 957 308 953 l 354 957 l 364 963 q 370 962 366 963 q 380 960 375 961 q 390 958 386 959 q 395 957 395 957 l 415 957 l 434 957 l 439 963 q 449 966 442 964 q 463 972 455 969 q 477 979 471 976 q 487 983 484 982 q 525 970 507 977 q 562 957 543 963 q 561 950 560 954 q 565 944 562 947 q 572 940 568 941 q 578 938 575 938 l 578 930 q 589 927 584 930 q 598 921 593 924 q 607 916 602 918 q 616 913 611 913 l 616 900 q 637 887 627 900 q 657 857 647 873 q 677 827 667 841 q 694 812 686 813 l 690 806 l 718 781 q 715 773 715 775 q 718 769 716 770 q 721 767 720 768 q 723 762 723 766 l 723 760 q 718 751 723 757 q 711 743 713 745 q 730 732 722 741 q 739 711 739 722 q 736 705 739 709 q 733 700 734 700 l 745 700 q 739 693 740 697 q 739 686 739 690 q 742 670 739 679 q 745 654 745 662 q 742 644 745 648 q 739 634 739 640 l 745 630 l 751 625 q 748 615 751 623 q 745 604 745 607 q 751 594 745 600 q 756 585 756 588 q 754 573 756 579 q 751 562 751 568 q 752 554 751 557 q 756 549 753 552 l 756 513 q 756 487 756 498 q 755 466 756 476 q 754 445 755 456 q 751 417 753 433 q 750 413 751 416 q 748 406 749 410 q 746 399 747 403 q 745 395 745 396 l 740 385 q 745 380 740 380 l 745 352 q 741 331 745 342 q 731 309 736 319 q 722 291 726 299 q 718 279 718 283 q 720 270 718 276 q 723 262 723 264 q 718 244 723 259 q 705 213 712 229 q 691 185 698 197 q 680 177 684 173 q 679 170 680 175 q 676 160 677 165 q 672 150 674 155 q 669 144 671 146 l 663 138 q 669 135 668 137 q 669 132 669 133 q 664 116 669 124 q 651 100 658 108 q 636 84 644 92 q 627 70 629 76 q 626 65 625 68 q 627 58 627 62 q 626 52 627 55 q 621 48 625 50 l 616 53 q 606 36 613 43 q 591 23 599 29 q 578 8 584 16 q 572 -14 572 -1 q 582 -44 572 -29 q 602 -74 591 -59 q 623 -103 613 -88 q 632 -132 632 -117 q 647 -143 638 -132 q 664 -167 656 -153 q 678 -195 672 -181 q 684 -217 684 -210 q 675 -247 684 -233 q 651 -272 665 -262 q 620 -289 637 -283 q 588 -294 603 -295 q 565 -281 578 -292 q 541 -254 552 -269 q 521 -223 529 -239 q 513 -197 513 -208 l 519 -193 m 369 137 q 380 137 372 137 q 397 138 388 138 q 413 138 406 138 q 424 138 420 138 q 430 140 425 138 q 434 144 434 142 l 434 142 l 456 142 l 456 138 q 465 143 460 142 q 474 145 470 144 q 483 148 479 146 q 492 154 488 149 l 551 219 q 547 223 547 222 q 546 227 546 224 q 550 243 546 234 q 559 262 554 252 q 568 282 564 272 q 572 299 572 292 q 572 306 572 304 q 568 310 571 309 q 590 328 579 317 q 600 352 600 338 l 589 352 q 595 365 589 359 q 600 374 600 370 q 599 381 600 376 q 595 385 597 385 l 611 411 q 608 413 610 411 q 606 417 606 416 q 607 421 606 418 q 610 428 608 425 q 613 434 612 431 q 616 437 615 437 l 616 492 l 623 497 q 617 500 618 498 q 616 504 616 503 q 617 509 616 507 q 623 513 618 511 q 618 518 621 514 q 614 527 616 522 q 612 535 613 531 q 611 539 611 538 l 616 549 l 616 574 l 616 593 l 611 599 q 609 630 612 608 q 601 675 606 651 q 590 720 596 699 q 578 753 584 742 q 564 770 572 763 q 551 786 555 778 l 562 791 q 544 797 555 792 q 524 807 534 801 q 505 820 513 813 q 492 833 496 827 l 487 823 q 468 822 475 824 q 453 818 460 821 q 439 814 446 816 q 424 812 432 812 q 415 815 421 812 q 406 818 409 818 l 395 818 l 395 826 q 346 818 363 826 q 319 800 329 810 q 301 781 309 790 q 283 770 294 772 l 289 765 q 280 757 283 760 q 277 750 278 753 q 274 742 275 746 q 269 732 273 738 q 264 729 267 731 q 257 725 260 727 q 250 720 253 722 q 247 716 247 718 q 233 657 241 687 q 217 596 224 627 q 203 533 209 565 q 198 471 198 502 l 198 466 q 199 460 198 465 q 200 452 199 456 q 202 443 201 447 q 203 437 203 439 l 198 427 l 203 417 l 203 397 l 203 380 q 199 375 199 378 q 198 369 198 373 l 203 369 q 203 356 203 361 q 203 347 203 351 q 205 338 203 343 q 209 326 206 334 q 215 312 211 321 q 225 292 220 302 q 235 271 231 281 q 242 257 240 261 q 243 252 242 256 q 246 243 244 248 q 249 235 248 239 q 252 229 251 231 l 328 154 q 348 152 337 157 q 369 147 359 147 l 369 137 z "},"R":{"ha":679,"x_min":81,"x_max":642,"o":"m 465 75 q 460 77 462 75 q 457 84 458 80 q 455 92 456 88 q 455 99 455 96 q 457 116 455 108 q 460 132 460 124 q 458 156 460 138 q 453 194 456 174 q 445 231 450 214 q 433 252 439 248 q 434 259 435 253 q 430 273 433 266 q 426 288 428 281 q 424 296 424 294 l 419 306 q 416 313 418 308 q 412 323 414 317 q 408 334 410 329 q 406 340 406 338 q 393 351 401 342 q 376 370 385 359 q 361 390 368 380 q 355 403 355 399 q 338 408 345 406 q 321 412 332 410 q 294 414 311 414 q 248 415 277 415 q 246 413 247 415 q 244 407 245 410 q 242 400 243 404 q 241 395 241 397 q 244 386 241 392 q 246 378 246 379 l 241 365 l 241 338 l 241 310 q 242 304 241 309 q 244 296 243 300 q 245 288 245 292 q 246 283 246 284 q 245 278 246 282 q 244 269 245 274 q 242 260 243 264 q 241 255 241 256 q 244 242 241 248 q 249 231 246 236 q 255 220 252 225 q 258 208 258 214 l 258 199 l 252 189 q 255 176 252 183 q 260 161 257 169 q 266 146 263 154 q 268 133 268 139 q 265 119 268 125 q 262 107 262 114 l 262 106 l 273 111 l 273 102 q 270 73 273 90 q 262 44 268 56 l 269 44 q 260 22 269 33 q 239 3 252 12 q 213 -11 227 -5 q 191 -16 200 -16 l 187 -16 l 182 -10 l 172 -16 l 166 -16 q 144 -11 155 -16 q 123 0 133 -7 q 109 27 117 15 q 101 53 101 39 l 96 53 q 96 65 96 60 q 91 75 95 71 l 91 144 q 95 148 94 144 q 96 154 96 153 l 96 208 q 102 224 96 216 q 107 240 107 232 q 104 251 107 248 q 101 264 101 254 q 103 286 101 275 q 109 309 106 298 q 115 331 112 320 q 117 352 117 342 l 113 364 l 113 387 q 113 415 113 403 q 117 443 114 427 l 116 443 q 115 458 116 452 q 112 471 113 465 q 109 481 110 476 q 107 494 107 487 q 108 497 107 495 q 113 503 109 498 q 111 510 113 507 q 107 517 109 513 q 103 524 104 520 q 101 534 101 528 l 107 545 l 107 588 q 111 592 109 589 q 113 599 113 596 q 111 607 113 601 q 107 620 109 613 q 103 633 104 627 q 101 641 101 639 l 101 646 l 107 656 q 104 666 107 660 q 101 676 101 673 q 102 681 101 679 q 104 685 103 683 q 106 689 105 687 q 107 696 107 692 q 107 707 107 699 q 101 716 108 715 l 101 766 l 96 765 q 93 770 96 766 q 91 775 92 772 q 96 780 91 777 q 101 786 101 783 q 100 790 101 787 q 96 796 99 793 q 97 802 96 800 q 101 806 98 804 q 92 823 96 810 q 85 853 87 837 q 82 882 83 869 q 81 900 81 896 q 83 930 81 917 q 91 954 85 944 q 108 968 97 963 q 136 973 119 973 q 164 968 152 973 q 191 963 176 963 l 198 963 l 208 968 q 217 966 211 968 q 224 963 223 963 l 238 963 q 257 965 248 963 q 275 971 267 968 q 293 976 284 974 q 310 979 302 979 l 320 979 q 327 978 321 979 q 339 976 333 977 q 352 974 346 975 q 359 973 357 973 q 366 976 361 973 q 374 979 372 979 q 405 968 391 976 q 435 960 420 960 l 435 951 l 445 956 q 459 949 452 953 q 481 936 472 943 q 496 925 489 932 q 513 921 504 918 l 508 916 q 524 899 515 905 q 541 886 533 892 q 553 871 548 880 q 558 850 558 863 l 567 850 q 572 844 570 850 q 576 830 574 838 q 579 814 578 822 q 583 804 581 807 q 590 797 587 799 q 595 794 593 795 q 598 791 597 793 q 599 785 599 789 q 600 777 599 779 q 602 775 600 776 q 607 772 604 774 q 614 763 610 770 l 604 753 q 612 744 610 749 q 614 733 614 739 q 623 731 621 733 q 625 725 625 728 q 626 719 625 722 q 632 713 627 715 q 627 702 629 711 q 625 688 625 692 l 632 678 l 632 665 q 628 652 632 664 q 618 627 623 641 q 604 591 611 611 q 594 586 602 589 q 583 582 586 583 q 576 572 580 579 q 568 558 572 565 q 560 547 564 551 q 551 545 556 543 q 545 539 549 543 q 535 530 541 534 q 525 522 530 526 q 518 515 520 517 l 502 511 q 500 508 501 511 q 497 503 499 506 q 494 497 496 500 q 492 495 493 495 q 482 494 488 493 q 470 494 476 494 q 460 491 465 494 q 456 482 456 489 q 458 476 456 480 q 460 473 458 474 l 486 448 l 486 442 l 492 444 q 500 436 494 443 q 508 429 507 430 l 502 423 q 512 410 505 420 q 526 390 519 401 q 539 370 533 379 q 547 357 545 360 q 549 350 547 355 q 553 339 551 345 q 558 329 555 334 q 562 322 560 323 l 562 312 l 567 302 l 562 290 q 563 287 562 290 q 567 281 565 284 q 573 276 570 279 q 578 274 576 274 q 581 259 578 266 q 583 245 583 253 l 583 241 q 584 234 583 239 q 586 223 585 229 q 588 213 587 218 q 589 208 589 208 q 592 184 589 194 q 601 165 596 174 q 612 147 606 156 q 620 125 617 138 q 621 119 620 123 q 623 112 621 115 q 625 104 624 108 l 633 104 q 634 89 633 98 q 642 73 635 79 l 642 15 q 636 12 639 15 q 631 5 633 9 q 626 -3 629 1 q 620 -9 623 -7 q 607 -15 615 -11 q 590 -22 599 -18 q 574 -29 582 -26 q 562 -33 566 -32 q 552 -29 558 -33 q 541 -23 545 -24 q 519 -16 528 -18 q 504 -10 510 -14 q 494 -1 498 -7 q 486 17 490 5 q 480 32 483 26 q 476 43 478 37 q 474 55 475 48 q 473 75 473 62 l 465 75 m 353 555 q 380 565 366 555 q 408 588 394 575 q 433 615 422 602 q 450 634 444 628 q 460 645 456 641 q 467 654 465 650 q 470 666 469 659 q 471 686 471 673 q 468 729 471 711 q 456 763 465 748 q 435 791 448 779 q 401 818 421 804 q 397 822 398 820 q 394 827 395 825 q 389 830 392 829 q 380 833 386 832 q 372 833 376 833 q 363 836 368 834 q 353 838 359 837 l 353 844 q 338 841 346 844 q 320 838 330 838 l 315 838 q 305 841 313 838 q 294 844 297 844 q 261 833 273 844 q 243 807 249 823 q 237 772 238 791 q 236 736 236 753 l 236 706 q 240 703 239 706 q 241 696 241 700 q 241 688 241 692 q 241 684 241 685 q 241 680 241 683 q 241 672 241 676 q 240 666 241 669 q 236 663 239 663 q 238 640 236 654 q 246 618 240 626 l 246 555 l 353 555 z "},"S":{"ha":572,"x_min":47,"x_max":527,"o":"m 77 57 q 65 66 71 57 q 57 87 60 75 q 51 111 53 100 q 50 126 50 122 q 58 144 51 134 q 75 163 65 155 q 95 178 85 172 q 113 184 106 184 q 124 184 117 184 q 137 182 130 183 q 151 178 144 180 q 161 174 157 176 q 173 163 165 170 q 186 151 180 157 q 203 137 194 144 l 203 128 q 219 127 212 128 q 231 125 225 126 q 243 123 237 124 q 262 122 250 122 l 262 121 q 269 123 263 121 q 278 125 275 125 q 317 137 298 128 q 350 158 336 145 q 373 189 364 172 q 381 227 381 207 q 382 234 381 230 q 385 241 384 238 q 382 248 384 245 q 381 254 381 250 q 372 296 381 279 q 349 328 362 313 q 321 357 336 342 q 297 389 307 371 l 292 389 l 265 416 l 260 416 q 247 424 259 416 q 219 443 235 432 q 186 466 203 454 q 161 486 170 478 q 147 498 155 490 q 131 516 139 507 q 115 535 122 526 q 103 551 107 545 l 103 555 q 105 561 103 559 q 108 568 108 562 q 78 582 85 568 q 71 615 71 595 q 62 625 66 615 q 55 648 58 635 q 50 676 52 662 q 48 697 48 690 q 49 707 48 699 q 50 716 50 715 l 56 721 l 50 726 q 52 749 47 736 q 61 772 57 763 q 57 778 58 776 q 56 787 56 781 q 58 791 56 790 q 63 794 60 793 q 69 797 66 795 q 71 802 71 798 q 71 805 71 803 q 66 808 70 807 q 75 823 68 815 q 81 841 82 830 q 89 848 83 844 q 98 852 95 852 l 87 857 q 96 866 94 861 q 100 876 98 871 q 102 885 101 880 q 108 895 104 890 q 113 901 109 898 q 123 907 118 904 q 134 913 129 910 q 140 918 138 916 q 157 941 150 932 q 174 954 165 949 q 194 965 182 960 q 223 978 205 970 l 227 972 q 249 982 231 978 q 290 989 268 986 q 333 993 313 991 q 360 994 353 994 q 412 988 389 994 q 455 962 435 982 l 460 962 q 500 923 489 951 q 511 866 511 896 l 511 852 q 507 845 510 850 q 499 837 503 841 q 491 829 495 832 q 486 826 487 826 l 433 826 q 426 834 431 830 q 415 840 421 838 q 402 844 408 842 q 392 846 396 846 l 392 850 q 369 851 377 850 q 350 852 361 852 q 342 853 348 852 q 332 855 337 854 q 322 856 326 856 q 317 852 317 855 l 277 844 q 268 840 273 842 q 259 837 264 838 q 250 836 254 836 q 243 830 248 834 q 235 821 239 826 q 228 809 231 815 q 223 798 224 803 l 235 792 q 210 780 218 789 q 197 758 201 770 q 193 730 193 745 q 192 701 192 715 l 192 669 q 203 657 196 667 q 217 639 210 648 q 232 624 224 630 q 245 620 239 618 q 251 615 247 618 q 258 607 254 611 q 266 598 262 602 q 271 591 270 593 q 274 585 271 590 q 279 576 277 579 q 301 558 284 570 q 338 535 317 547 q 378 511 358 523 q 407 492 397 499 q 409 481 404 489 q 424 466 415 474 q 440 450 432 457 q 449 441 448 443 l 444 436 l 450 436 q 454 428 450 433 q 462 417 457 422 q 472 407 467 412 q 481 399 477 401 l 482 395 q 485 382 482 391 q 493 362 488 374 q 503 338 497 351 q 513 314 508 325 q 522 296 517 303 q 527 288 526 288 l 527 178 q 516 156 521 168 q 507 132 511 144 q 497 108 503 119 q 486 87 492 96 q 468 71 481 82 q 440 48 455 60 q 414 27 425 37 q 402 16 402 18 l 397 22 q 391 16 395 18 q 383 13 387 14 q 375 11 378 12 q 370 10 371 11 q 367 7 369 10 q 362 2 364 5 q 357 -4 359 -1 q 355 -6 355 -6 q 349 -8 353 -7 q 340 -11 345 -9 q 331 -12 335 -12 q 323 -12 326 -12 q 311 -13 319 -12 q 292 -15 302 -14 q 273 -16 282 -16 q 260 -17 264 -17 q 240 -6 254 -10 q 210 -1 226 -3 q 178 2 193 1 q 155 5 163 3 q 143 8 151 6 q 127 13 135 10 q 112 19 119 16 q 103 23 105 22 q 95 26 100 24 q 87 31 91 28 q 80 37 83 34 q 77 41 77 39 l 77 57 z "},"T":{"ha":589,"x_min":11,"x_max":570,"o":"m 570 892 q 567 876 570 883 q 560 865 564 869 q 553 858 556 861 q 548 854 549 855 q 524 839 536 846 q 495 833 511 831 q 473 838 484 834 q 451 845 462 841 q 429 851 440 848 q 406 854 418 854 q 394 854 401 854 q 380 853 387 854 q 369 849 374 852 q 365 838 365 846 q 365 834 365 838 q 364 828 364 831 q 365 821 364 824 q 370 817 366 818 q 363 798 366 805 q 360 785 361 791 q 359 771 359 779 q 359 753 359 764 l 359 724 q 363 719 361 724 q 365 713 365 715 l 359 708 l 359 698 q 359 688 359 693 q 365 682 358 683 q 364 637 363 658 q 366 598 365 617 q 368 561 367 579 q 370 521 370 542 l 370 500 l 365 490 q 370 484 365 484 l 370 435 q 369 395 370 417 q 367 350 368 373 q 366 304 366 327 q 365 264 365 282 l 365 205 q 374 193 370 202 q 381 172 378 184 q 385 150 383 161 q 386 134 386 139 q 380 113 386 122 q 375 98 375 104 l 380 88 q 374 55 380 71 q 359 26 369 39 q 335 5 349 13 q 303 -3 321 -3 q 262 8 279 -3 q 235 36 245 19 q 219 75 224 54 q 214 119 214 97 q 216 146 214 128 q 220 182 217 164 q 226 215 222 201 q 235 231 230 229 l 235 275 q 238 285 235 277 q 242 296 242 293 q 241 302 242 297 q 238 312 240 307 q 236 322 237 317 q 235 328 235 327 q 236 336 235 330 q 238 349 237 342 q 241 362 240 356 q 242 371 242 369 l 235 409 l 235 416 l 235 425 q 236 432 235 426 q 238 444 237 437 q 241 455 240 450 q 242 461 242 460 q 241 467 242 463 q 238 475 240 471 q 236 484 237 480 q 235 490 235 488 l 235 491 q 238 505 235 498 q 242 517 242 512 l 242 521 q 241 526 242 522 q 238 534 240 530 q 236 542 237 538 q 235 547 235 546 l 235 643 l 230 654 q 233 677 232 667 q 234 696 233 687 q 235 713 235 705 q 235 733 235 722 q 225 787 235 762 q 204 838 216 812 l 169 838 q 137 836 151 838 q 110 832 123 834 q 83 827 97 829 q 52 825 69 825 l 52 833 l 47 833 q 30 844 37 837 q 18 861 23 850 q 11 885 12 871 l 11 934 q 17 950 11 943 q 31 964 23 958 q 46 972 39 969 q 56 975 54 975 l 56 970 q 65 974 59 972 q 73 975 71 975 l 85 970 q 125 961 108 962 q 167 960 143 960 q 272 959 220 960 q 378 970 325 958 q 409 978 393 975 q 440 984 425 982 q 467 987 455 987 q 485 987 479 988 l 495 992 l 497 992 q 521 986 511 992 q 539 972 531 981 q 554 955 547 964 q 570 937 562 945 l 570 904 l 570 892 z "},"U":{"ha":766,"x_min":86,"x_max":690,"o":"m 252 28 q 246 26 249 28 q 241 24 243 24 q 217 41 227 33 q 199 58 207 50 q 186 78 192 67 q 172 105 180 90 l 166 110 q 157 115 163 110 q 151 121 151 119 q 148 132 149 124 q 145 149 147 140 q 141 165 144 158 q 133 175 138 173 l 133 212 q 127 219 130 214 q 123 231 125 224 q 118 245 120 237 q 120 252 118 247 q 123 260 123 258 l 123 267 q 119 284 123 275 q 112 302 116 293 q 105 318 109 311 q 102 331 102 326 l 106 341 q 101 356 106 345 q 96 372 96 366 q 98 376 96 374 q 102 378 100 378 q 96 389 96 380 q 95 399 95 397 l 100 399 q 98 405 100 403 q 96 409 97 407 q 93 415 94 412 q 92 424 92 418 q 93 433 92 430 q 97 440 95 436 q 100 449 98 444 q 102 464 102 454 q 97 502 102 479 q 86 539 93 524 q 92 545 92 539 q 89 554 92 546 q 86 566 86 562 q 89 593 86 579 q 94 622 91 608 q 99 652 97 637 q 102 681 102 667 l 102 693 q 99 704 102 696 q 96 714 96 713 l 102 720 q 101 725 102 722 q 100 731 100 728 l 95 731 q 99 739 95 735 q 106 742 103 742 q 103 746 105 742 q 102 753 102 750 q 103 756 102 754 q 106 758 105 758 q 104 770 106 760 q 102 785 102 780 l 102 803 q 91 810 96 803 q 86 826 86 818 l 92 833 l 92 835 q 89 853 92 845 q 86 871 86 862 l 86 885 q 89 894 86 888 q 92 901 92 900 l 86 911 q 95 930 88 922 q 111 944 102 939 q 131 952 121 949 q 151 956 142 956 q 188 948 169 956 q 222 927 206 940 q 248 897 237 913 q 258 861 258 880 q 255 852 258 859 q 250 838 253 845 q 243 823 247 830 q 237 814 240 817 q 244 809 241 812 q 247 800 247 806 q 241 776 247 788 q 235 749 235 764 l 235 747 l 241 742 q 238 733 241 739 q 235 724 235 727 q 241 720 235 723 q 247 714 247 717 q 246 710 247 713 q 244 702 245 706 q 242 693 243 697 q 241 688 241 689 l 241 559 q 235 555 235 556 q 235 549 235 553 l 241 549 q 241 507 241 527 q 235 464 240 486 q 240 458 239 463 q 241 450 241 454 q 241 442 241 446 q 247 437 241 438 l 247 357 q 252 342 251 351 q 253 324 254 333 q 252 306 253 315 q 252 292 252 297 q 253 286 252 288 q 258 277 254 279 l 263 266 l 263 229 q 275 217 269 226 q 286 197 281 208 q 296 175 291 186 q 305 159 300 165 q 310 155 307 157 q 317 151 314 153 q 322 145 321 149 q 320 138 323 142 q 345 132 332 138 q 370 125 359 125 q 376 129 375 125 q 382 133 378 133 q 389 129 387 133 q 395 125 390 125 q 405 129 399 125 q 414 136 410 132 q 423 143 419 140 q 427 149 427 147 q 432 145 427 146 q 440 144 437 144 q 451 155 443 144 q 469 180 460 166 q 487 206 479 193 q 497 222 495 218 q 502 227 498 220 q 509 242 506 233 q 519 266 513 252 q 539 353 530 309 q 552 443 548 398 q 552 466 553 453 q 551 494 551 479 q 552 523 551 508 q 557 549 553 537 q 552 555 552 549 q 553 565 552 556 q 557 576 554 573 l 557 703 q 552 720 553 712 q 551 735 551 728 q 552 750 551 743 q 553 768 553 758 l 547 768 q 546 775 547 770 q 544 786 545 781 q 542 798 543 792 q 541 805 541 803 q 532 811 538 811 q 524 815 526 811 q 525 826 524 818 q 527 835 527 833 l 522 833 q 517 833 519 833 q 513 833 515 833 q 508 840 511 833 q 503 853 505 846 q 499 866 500 860 q 497 875 497 873 q 499 881 497 879 q 502 885 500 883 q 506 889 504 887 q 507 895 507 891 q 505 900 507 899 q 503 907 503 901 q 504 913 503 910 q 513 917 505 917 q 508 921 509 920 q 507 925 507 922 q 509 931 507 927 q 514 939 511 935 q 519 945 516 943 q 524 945 522 947 l 552 968 l 593 968 q 598 971 596 971 q 602 972 600 972 q 617 966 614 972 q 620 952 620 960 q 625 954 622 952 q 631 955 628 955 q 635 954 633 956 q 637 945 637 951 l 652 956 q 669 930 662 941 q 690 907 675 918 l 690 884 q 690 872 690 878 q 690 861 690 867 q 687 851 689 855 q 679 844 684 846 q 686 836 683 840 q 690 826 690 831 q 684 813 690 821 q 679 798 679 806 l 679 789 q 682 779 679 788 q 684 768 684 770 q 683 762 684 767 q 681 752 682 758 q 680 742 680 747 q 679 736 679 737 l 679 707 l 679 677 q 684 667 683 673 q 684 656 684 662 q 683 613 684 634 q 680 572 682 593 q 678 530 679 551 q 679 484 677 509 l 674 479 q 671 407 675 444 q 664 336 667 370 q 662 332 664 333 q 659 331 660 331 q 647 200 663 260 q 593 83 631 141 q 590 81 593 83 q 585 76 588 79 q 580 71 583 73 q 577 68 578 69 l 572 68 q 565 59 570 65 q 552 46 559 53 q 538 33 545 39 q 529 24 532 27 q 518 18 523 20 q 509 15 514 16 q 499 13 505 14 q 487 9 494 12 l 481 -2 q 460 -10 474 -6 q 430 -17 446 -14 q 401 -21 415 -20 q 380 -23 387 -23 q 353 -20 364 -23 q 334 -11 342 -16 q 317 -1 326 -6 q 300 9 309 5 q 290 12 297 10 q 276 15 283 13 q 261 17 269 16 q 252 20 254 18 l 252 28 z "},"V":{"ha":713,"x_min":-12,"x_max":703,"o":"m 311 24 q 289 29 295 24 q 282 43 283 35 q 284 62 282 52 q 287 81 287 72 l 277 81 q 271 105 275 94 q 264 129 267 117 q 258 152 260 140 q 255 178 255 163 l 260 191 q 258 194 260 193 q 255 196 256 196 q 254 204 255 198 q 253 217 254 210 q 251 231 252 224 q 250 239 250 237 l 250 259 q 245 272 249 263 q 237 291 241 281 q 228 309 232 300 q 222 321 224 317 q 223 331 223 325 q 221 343 222 337 q 219 355 220 349 q 216 363 218 360 q 213 372 216 365 q 207 388 210 380 q 200 404 203 396 q 195 413 197 411 q 165 504 180 458 q 136 599 151 550 q 133 610 135 603 q 127 624 131 617 q 120 641 124 631 l 115 641 q 99 703 109 669 q 73 760 88 736 q 65 773 70 766 q 57 787 61 780 q 47 804 52 795 l 35 804 l -2 842 q -2 855 1 848 q -12 863 -6 862 l -12 890 q -11 920 -12 909 q -6 939 -10 931 q 7 953 -1 947 q 29 967 15 959 q 35 970 34 969 q 35 972 35 971 q 36 972 35 972 q 41 972 37 972 q 99 963 78 972 q 132 936 120 953 q 148 895 143 918 q 159 842 153 871 q 164 828 159 839 q 177 805 170 817 q 191 783 184 793 q 201 770 198 772 l 195 766 l 222 713 q 224 702 221 708 q 231 691 227 696 q 239 680 235 685 q 245 673 243 675 q 250 643 249 661 q 255 614 252 626 q 261 595 258 603 q 269 580 265 587 q 275 565 273 573 q 278 546 278 557 l 287 549 q 293 534 289 547 q 301 505 296 522 q 311 466 306 487 q 320 426 316 446 q 328 392 325 407 q 334 371 332 377 q 338 361 335 368 q 345 345 342 354 q 352 329 349 336 q 357 317 355 321 l 362 317 q 373 330 368 317 q 384 358 379 342 q 393 389 389 374 q 399 410 397 404 q 405 429 401 414 q 414 460 410 444 q 424 491 419 476 q 430 511 428 505 q 436 530 429 512 q 452 575 442 549 q 472 633 461 602 q 494 691 484 664 q 511 736 504 718 q 521 755 519 754 q 520 767 521 758 q 518 785 519 775 q 516 803 517 795 q 515 814 515 811 q 516 822 515 821 q 511 831 517 823 l 511 890 q 517 902 515 895 q 520 917 519 909 q 523 932 522 925 q 527 945 525 939 q 534 950 528 947 q 545 959 539 954 q 557 967 551 963 q 566 972 564 970 q 571 976 569 975 q 577 977 574 977 q 582 977 580 977 q 586 972 583 976 l 623 972 l 617 967 l 626 967 q 636 968 631 967 q 646 972 642 968 l 640 961 q 660 959 650 963 q 677 948 669 956 q 692 931 686 941 q 703 913 699 922 l 703 880 q 703 858 703 871 q 701 832 703 844 q 693 810 699 819 q 674 801 687 801 q 670 777 674 787 q 651 760 667 767 q 656 755 656 759 q 656 747 656 752 q 653 736 656 741 q 647 727 650 731 q 640 718 644 722 q 633 707 635 713 q 629 695 632 705 q 623 676 627 686 q 617 657 620 666 q 612 646 614 648 q 600 613 608 635 q 584 568 592 591 q 570 526 576 545 q 566 500 564 507 l 532 429 q 515 387 522 406 q 502 355 508 370 q 495 336 496 340 q 489 310 492 325 q 484 281 486 295 q 488 280 486 281 q 490 276 490 279 q 488 264 490 270 q 483 252 486 258 q 477 240 479 246 q 474 229 475 235 q 460 174 467 201 q 453 116 453 146 q 456 99 453 106 q 458 84 458 92 q 451 50 458 66 q 430 23 443 35 q 400 6 417 12 q 367 0 384 0 q 350 1 359 0 q 332 4 340 1 q 317 11 323 6 q 311 24 311 16 z "},"W":{"ha":1008,"x_min":-13,"x_max":1010,"o":"m 591 78 q 596 86 594 79 q 600 102 598 93 q 601 120 601 111 q 602 132 602 129 q 598 169 602 150 q 596 208 595 188 l 549 453 q 542 471 544 458 q 538 499 539 483 q 535 532 536 515 q 533 564 534 549 q 528 590 531 579 q 517 605 524 602 q 505 587 511 602 q 494 553 499 573 q 485 510 489 533 q 477 465 481 487 q 470 426 473 444 q 465 399 467 408 l 471 393 q 463 374 469 393 q 447 329 456 356 q 427 269 437 301 q 408 209 416 237 q 394 160 399 180 q 388 137 388 140 q 390 117 388 126 q 393 96 393 107 l 393 94 q 392 83 393 90 q 390 68 391 76 q 389 54 389 61 q 388 45 388 47 q 384 42 384 43 q 384 38 383 40 q 384 34 384 36 q 382 28 385 31 q 376 18 378 20 q 371 14 373 15 q 366 10 368 12 q 362 1 364 7 l 356 7 q 336 -7 350 -5 q 311 -10 323 -10 q 300 -9 307 -10 q 288 -7 294 -9 q 277 -1 281 -5 q 273 9 273 3 q 241 20 254 9 q 222 47 229 31 q 214 84 216 64 q 214 121 212 104 q 211 125 212 121 q 210 132 210 130 q 211 138 210 134 q 214 142 212 142 l 214 175 l 214 208 q 212 220 214 210 q 207 241 210 230 q 201 262 203 252 q 199 274 199 272 l 199 290 q 196 302 199 294 q 194 312 194 309 q 191 317 194 313 q 185 325 189 321 q 180 334 182 330 q 178 340 178 338 q 177 346 178 340 q 175 358 176 352 q 174 371 174 365 q 173 378 173 377 q 156 463 169 422 q 132 547 144 505 q 130 553 129 551 q 127 559 132 554 l 93 646 q 93 665 95 654 q 87 687 91 675 q 79 708 83 698 q 73 727 75 719 q 68 743 71 731 q 61 767 65 754 q 54 791 58 780 q 49 806 51 802 q 41 818 45 810 q 31 834 36 826 q 22 849 26 842 q 16 856 18 855 q -1 863 3 859 q -5 869 -4 866 q -6 874 -5 872 q -13 876 -6 876 q -11 915 -13 896 q -1 948 -8 934 q 20 972 7 963 q 57 981 34 981 l 67 981 q 71 980 68 981 q 78 976 74 978 q 84 971 81 973 q 89 970 87 970 l 99 976 q 121 967 110 976 q 141 946 132 958 q 157 921 150 934 q 168 899 164 907 q 164 890 164 895 q 165 880 164 886 q 168 870 166 875 q 169 861 169 865 q 173 826 169 844 q 182 790 176 808 q 195 755 188 772 q 210 725 202 739 q 211 707 208 720 q 219 677 214 694 q 230 641 224 661 q 243 602 237 621 q 255 569 250 584 q 262 545 260 553 q 266 535 263 543 q 273 518 269 527 q 280 501 277 509 q 283 491 283 493 q 282 480 283 488 q 280 465 281 473 q 278 449 279 456 q 277 439 277 442 q 282 440 279 439 q 289 442 286 441 q 295 441 292 442 q 299 436 298 440 q 297 432 298 435 q 295 425 296 429 q 294 416 294 420 q 294 410 294 412 q 296 393 294 406 q 303 365 299 380 q 312 337 307 350 q 319 323 316 325 l 336 361 q 343 398 338 372 q 354 453 349 424 q 365 509 360 482 q 372 545 370 535 q 380 574 375 557 q 390 609 385 591 q 402 644 396 627 q 414 670 408 660 l 465 840 l 465 894 l 460 894 l 454 932 q 461 939 459 935 q 464 950 463 944 q 466 961 465 956 q 471 970 467 966 q 483 976 474 972 q 500 984 491 980 q 519 990 510 987 q 532 992 528 992 q 564 985 546 992 q 597 965 581 977 q 623 937 612 953 q 633 905 633 922 q 633 897 633 903 q 631 885 633 891 q 628 874 630 879 q 623 867 626 869 q 627 863 627 865 q 628 859 628 861 q 627 855 628 857 q 623 850 627 853 l 623 812 l 618 802 l 623 796 q 622 791 623 795 q 621 785 621 787 l 628 785 q 625 768 628 777 q 623 750 623 759 q 630 710 623 730 q 638 670 637 690 q 642 633 641 652 q 644 594 642 613 q 655 552 646 574 q 665 512 663 531 q 669 469 668 491 q 672 424 670 446 q 679 380 674 401 q 696 340 684 359 l 701 345 q 707 354 703 346 q 716 374 711 363 q 726 397 721 385 q 733 416 730 409 q 734 420 733 417 q 735 426 734 422 q 737 432 736 429 q 738 436 738 435 q 743 451 739 440 q 751 474 747 462 q 759 497 755 486 q 765 512 763 508 l 765 517 l 838 764 q 842 783 842 775 q 843 802 843 791 q 841 822 843 812 q 835 841 838 831 q 830 861 832 851 q 827 880 827 870 q 828 906 827 896 q 838 932 829 917 q 876 951 854 942 q 917 960 897 960 l 917 954 q 988 932 966 954 q 1010 861 1010 910 l 1010 823 q 985 794 998 813 q 961 750 973 774 q 939 698 949 726 q 920 645 928 671 q 905 596 911 618 q 895 561 899 574 q 889 538 893 555 q 881 504 885 522 q 873 469 877 486 q 869 446 869 452 q 862 432 867 444 q 851 406 857 420 q 842 380 846 392 q 838 366 838 368 q 799 251 819 310 q 765 132 779 191 l 765 123 q 767 115 765 118 q 770 110 768 113 q 773 103 772 107 q 775 94 775 100 q 771 49 775 70 q 759 13 768 28 q 733 -12 749 -3 q 691 -20 716 -20 q 647 -14 664 -20 q 621 4 630 -7 q 607 27 611 14 q 601 50 603 39 q 597 69 599 61 q 591 78 596 77 z "},"X":{"ha":665,"x_min":12,"x_max":652,"o":"m 77 -9 l 82 -3 q 68 -2 71 -7 q 66 11 66 3 q 56 12 61 11 q 45 14 50 12 q 37 20 40 16 q 33 30 33 24 l 31 30 q 27 44 31 39 q 21 55 24 49 q 15 70 18 61 q 12 97 12 79 l 12 119 l 22 136 l 27 123 q 39 141 31 135 q 56 151 47 146 q 73 158 65 155 q 87 170 81 162 q 146 260 119 210 q 194 358 174 309 l 199 363 q 218 392 208 378 q 237 422 229 407 q 252 454 246 437 q 257 490 257 471 q 254 506 257 498 q 249 521 252 513 q 243 536 245 528 q 241 550 241 543 l 236 550 l 220 585 q 225 590 225 585 q 224 594 225 591 q 223 601 224 597 q 221 607 222 604 q 220 611 220 610 l 220 621 q 217 619 220 621 q 212 617 215 618 q 207 617 210 616 q 204 623 205 618 l 204 644 q 194 665 202 652 q 175 691 185 677 q 158 716 165 705 q 151 733 151 728 l 139 727 q 140 744 141 737 q 136 757 138 751 q 130 769 133 763 q 127 784 127 775 l 122 784 q 110 803 122 791 q 83 832 98 816 q 56 868 68 849 q 43 907 43 887 q 52 952 43 936 q 74 975 60 968 q 109 983 89 982 q 154 985 130 985 q 159 968 154 975 q 171 957 164 962 q 186 946 178 951 q 199 932 193 941 q 208 914 205 923 q 213 896 211 905 q 218 879 216 888 q 225 860 220 869 q 239 836 231 848 q 255 813 247 825 q 271 791 263 802 q 284 768 279 780 q 287 758 284 764 q 290 749 290 752 q 295 738 291 747 q 305 714 299 728 q 319 685 311 701 q 333 657 326 670 q 347 637 340 645 q 358 631 354 629 q 362 634 359 631 q 366 642 364 637 q 370 650 368 646 q 371 655 371 654 q 399 698 382 674 q 431 748 416 722 q 456 802 446 774 q 467 854 467 829 l 460 860 q 466 879 460 867 q 478 901 471 890 q 490 921 485 912 q 493 932 495 930 q 502 937 496 934 q 516 944 509 941 q 531 950 524 947 q 540 954 537 953 l 546 954 l 546 947 q 573 945 564 947 q 589 941 583 944 q 604 931 596 937 q 626 916 611 925 l 637 916 q 643 909 642 911 q 642 905 643 907 q 643 902 642 903 q 652 900 644 901 l 652 817 q 632 797 640 807 q 617 776 625 786 q 601 756 610 766 q 578 739 592 747 q 577 730 581 734 q 573 722 574 725 l 568 727 q 492 613 530 671 q 426 491 455 555 q 430 482 427 490 q 436 465 433 475 q 444 445 440 455 q 452 430 448 435 l 451 425 l 458 425 q 464 407 458 420 q 476 377 469 393 q 491 342 483 360 q 507 309 500 324 q 520 283 515 294 q 528 270 526 272 q 555 236 543 256 q 584 201 568 217 q 589 184 589 195 q 594 168 590 174 q 602 159 598 162 q 609 152 606 155 q 615 143 612 148 q 621 130 618 138 l 626 123 l 626 69 q 614 58 618 66 q 615 42 611 51 q 595 26 604 33 q 577 14 587 19 q 557 6 568 9 q 532 3 547 3 q 516 6 525 3 q 500 15 508 9 q 485 27 492 20 q 476 42 479 35 l 464 35 q 448 69 456 53 q 433 102 439 85 q 425 125 431 109 q 413 159 419 142 q 403 192 408 177 q 398 210 398 207 q 395 223 398 216 q 391 235 391 229 q 388 241 391 237 q 382 253 385 246 q 375 271 378 260 q 372 293 372 281 q 361 299 367 293 q 352 315 356 306 q 345 332 348 323 q 342 345 342 341 q 339 342 342 345 q 333 335 336 339 q 326 328 330 332 q 321 323 323 325 q 318 317 320 323 q 316 307 316 310 q 306 281 313 299 q 291 244 299 264 q 276 208 283 225 q 264 185 269 191 q 239 156 253 171 q 214 123 226 141 q 210 103 211 115 q 204 80 208 92 q 191 42 197 57 q 177 18 186 28 q 153 1 168 7 q 113 -14 138 -6 l 113 -9 l 77 -9 z "},"Y":{"ha":627,"x_min":11,"x_max":597,"o":"m 258 47 q 258 52 258 48 q 262 57 259 55 q 257 62 260 58 q 250 69 254 65 q 244 77 246 73 q 241 83 241 81 q 243 92 241 89 q 248 99 245 96 q 252 105 250 102 q 254 114 254 109 q 256 122 254 120 q 258 127 258 123 q 255 150 258 138 q 252 172 252 161 q 257 185 252 180 q 262 199 262 191 q 257 211 259 205 q 254 223 255 218 q 252 235 252 229 l 258 241 q 258 263 258 253 q 259 283 258 273 q 261 302 260 292 q 262 324 262 313 l 264 353 q 259 404 264 385 q 248 436 254 422 q 236 462 241 450 q 231 494 231 475 q 222 504 227 494 q 210 526 216 513 q 196 556 203 540 q 183 587 189 572 q 171 613 176 602 q 163 627 165 624 q 154 633 160 630 q 147 638 149 637 l 147 643 q 138 668 144 652 q 126 699 133 683 q 113 730 120 715 q 100 753 106 745 q 82 775 91 765 q 73 789 73 786 q 73 792 73 791 q 74 795 73 793 l 68 795 l 68 812 l 63 812 q 48 826 56 819 q 35 839 42 832 q 25 850 28 845 q 14 879 17 861 q 11 912 11 897 l 11 947 q 36 968 18 960 q 68 979 54 975 q 91 972 81 976 q 107 964 100 968 q 123 954 115 960 q 142 942 131 949 l 147 939 l 147 928 q 169 910 159 928 q 186 870 178 892 q 201 830 195 848 q 215 812 208 812 q 223 785 215 804 q 244 741 231 766 q 271 690 256 717 q 298 640 286 663 q 319 598 311 616 q 328 575 327 581 l 446 863 q 450 879 447 871 q 456 893 453 886 q 463 907 460 901 q 465 922 465 914 l 460 932 l 460 937 q 466 948 460 941 q 480 960 472 954 q 495 970 488 966 q 505 974 502 974 q 531 971 519 974 q 555 968 543 968 l 555 960 q 565 956 558 960 q 579 945 572 951 q 591 932 586 939 q 597 922 597 926 l 597 863 q 593 854 597 859 q 583 844 589 849 q 572 835 577 840 q 565 827 567 831 q 543 785 555 809 q 517 732 530 760 q 492 676 505 705 q 470 621 480 647 q 452 572 460 594 q 441 538 445 551 l 441 533 q 444 526 441 532 q 446 517 446 520 q 444 509 446 514 q 437 497 441 503 q 431 487 434 492 q 425 480 427 481 l 430 473 l 430 470 q 428 456 430 466 q 425 444 425 447 l 430 438 q 415 423 425 434 q 399 398 406 412 l 406 397 q 403 391 406 395 q 398 382 401 387 q 392 373 395 377 q 389 366 389 368 l 389 293 q 384 286 385 289 q 383 277 383 283 l 383 273 q 384 268 383 271 q 386 261 385 264 q 388 255 387 258 q 389 251 389 252 q 387 247 389 248 q 383 245 385 245 l 393 235 l 393 194 l 399 188 q 399 168 399 180 q 400 141 399 155 q 402 114 401 127 q 405 94 403 101 q 407 88 405 92 q 410 80 408 84 q 413 72 412 75 q 415 67 415 68 q 406 43 415 56 q 386 19 397 30 q 361 2 374 9 q 341 -5 349 -5 q 330 -3 338 -5 q 320 -1 321 -1 q 318 2 320 0 q 315 4 316 4 l 304 -1 q 293 5 300 -1 q 277 18 285 10 q 263 33 269 25 q 258 47 258 41 z "},"Z":{"ha":656,"x_min":41,"x_max":637,"o":"m 355 0 q 297 -3 326 0 q 240 -11 269 -7 q 182 -18 211 -14 q 124 -21 153 -21 q 75 -8 98 -21 q 41 29 52 5 l 41 58 q 42 92 41 75 q 51 126 43 109 q 57 131 51 127 q 66 138 64 135 q 76 151 69 141 q 90 173 83 161 q 102 195 97 185 q 108 206 108 204 l 235 435 q 251 456 241 439 q 271 494 260 473 q 292 536 282 515 q 308 566 302 556 q 314 582 309 570 q 326 605 319 593 q 338 628 332 618 q 345 642 343 639 l 350 648 l 433 814 l 433 831 q 426 831 428 831 q 422 831 423 831 q 419 833 420 831 q 413 837 417 834 l 239 837 l 235 842 l 229 837 q 208 838 218 838 q 188 836 197 837 q 168 833 178 835 q 147 832 158 832 q 112 836 130 832 q 81 849 95 840 q 59 873 68 859 q 51 907 51 887 q 55 940 51 927 q 66 962 58 954 q 86 975 74 970 q 114 984 98 980 l 124 989 q 131 984 125 989 q 140 979 137 979 q 157 975 148 976 q 177 972 167 973 q 196 969 186 971 q 213 964 205 968 q 247 961 223 962 q 297 960 271 960 q 348 959 324 959 q 382 958 372 958 q 416 962 398 958 q 452 972 434 966 q 488 985 471 979 q 522 995 506 991 q 534 991 529 994 q 544 986 539 989 q 552 982 548 984 q 564 981 557 981 l 564 979 q 576 976 570 979 q 588 966 582 972 q 598 954 593 961 q 606 941 603 947 l 606 911 q 607 907 606 910 q 611 900 609 903 q 614 893 612 897 q 616 890 616 890 q 617 880 616 888 q 619 867 619 871 q 608 862 612 867 q 604 849 605 857 q 601 834 602 842 q 595 821 600 827 q 580 808 590 812 q 564 792 570 804 q 512 697 538 745 q 460 597 486 648 q 450 578 456 590 q 437 554 444 566 q 423 524 430 540 l 423 517 l 419 509 q 407 487 414 500 q 391 457 400 473 q 373 424 382 440 q 355 392 364 407 q 340 366 347 376 q 333 356 338 364 q 320 340 327 349 q 309 324 314 332 q 303 314 304 316 q 293 295 298 306 q 284 274 289 285 q 274 254 279 263 q 261 239 269 245 q 251 221 258 234 q 238 193 245 208 q 226 166 232 179 q 218 149 220 153 q 214 137 216 146 q 213 127 213 128 q 230 118 222 121 q 247 115 237 115 q 258 115 253 115 q 266 120 262 116 l 376 120 q 426 127 400 120 q 471 141 451 134 q 478 146 472 141 q 485 151 484 151 l 488 151 q 494 150 492 151 q 500 146 496 148 l 569 146 q 583 134 575 139 q 598 123 590 128 q 613 113 606 119 q 627 99 621 107 l 627 87 q 631 78 627 84 q 637 71 635 72 l 637 17 l 627 0 l 632 -5 q 617 -17 628 -13 q 594 -22 607 -20 q 570 -25 581 -24 q 552 -26 558 -25 q 507 -20 527 -29 q 465 0 488 -12 l 355 0 z "},"[":{"ha":367,"x_min":71,"x_max":364,"o":"m 183 -211 q 147 -207 165 -211 q 113 -193 128 -202 q 87 -170 97 -184 q 77 -138 77 -156 l 77 -127 q 82 -102 79 -113 q 86 -81 84 -92 q 89 -60 87 -71 q 90 -35 90 -49 l 84 -35 q 89 13 84 -12 q 96 60 93 37 q 98 63 96 62 q 100 65 99 65 l 96 70 l 96 89 l 96 117 l 100 127 q 96 154 100 139 q 92 180 92 168 q 93 188 92 183 q 94 198 94 193 q 96 208 95 203 q 96 215 96 212 q 94 220 96 219 q 92 227 92 222 l 87 227 q 92 245 87 236 q 96 265 96 254 q 96 280 96 269 q 94 304 95 291 q 91 327 93 317 q 87 340 90 338 l 87 417 q 85 427 87 419 q 83 435 83 434 l 83 438 l 83 441 q 85 448 83 443 q 87 455 87 452 q 85 469 87 458 q 83 482 84 479 l 87 488 q 83 497 85 489 q 80 517 81 505 q 77 544 79 530 q 75 572 76 559 q 73 594 74 585 q 73 607 73 604 q 72 624 73 612 q 77 640 71 635 l 73 640 l 73 644 q 77 667 75 652 q 80 700 79 682 q 81 740 81 719 q 82 779 82 760 q 83 813 83 798 q 83 837 83 829 q 80 870 83 854 q 77 902 77 886 l 77 907 l 83 912 l 77 922 l 77 931 q 82 952 77 943 q 95 968 87 962 q 115 979 104 975 q 136 983 125 983 l 148 983 l 178 979 l 188 983 q 200 983 191 982 q 220 984 210 983 q 240 985 231 984 q 252 985 250 985 l 258 979 q 267 980 260 979 q 279 982 273 981 q 291 984 286 983 q 300 985 297 985 l 302 985 l 305 985 q 313 981 308 983 q 324 974 318 979 q 334 963 330 970 q 340 945 339 956 q 342 945 342 945 q 344 943 342 944 q 346 941 345 942 l 346 902 q 329 888 346 894 q 289 878 311 882 q 245 872 267 874 q 216 871 224 871 q 214 856 216 866 q 205 839 211 846 l 204 766 q 200 745 201 764 q 199 705 199 726 q 199 664 199 683 q 199 643 199 646 l 199 627 l 204 621 l 204 579 q 205 572 204 578 q 206 559 205 566 q 208 547 207 553 q 208 539 208 541 l 208 536 l 208 535 q 208 530 208 534 q 206 523 207 527 q 205 515 205 519 q 204 511 204 512 q 208 486 204 501 q 212 459 211 471 q 217 419 214 441 q 222 374 220 397 q 226 329 224 351 q 228 290 228 307 l 228 283 l 222 279 l 228 269 q 231 259 229 266 q 232 251 232 252 q 231 246 232 250 q 230 239 231 243 q 229 231 229 235 q 228 227 228 228 l 228 220 l 228 212 q 229 204 228 212 q 232 189 231 197 q 235 172 233 180 q 236 164 236 165 l 232 155 l 232 153 q 234 141 232 146 q 236 130 236 135 l 236 127 l 232 121 q 231 52 232 87 q 228 -19 230 16 q 232 -24 231 -22 q 232 -29 232 -26 q 230 -46 232 -39 q 228 -65 228 -54 q 228 -70 228 -66 q 227 -79 227 -74 q 227 -89 227 -84 q 227 -94 227 -94 q 237 -97 233 -97 q 247 -97 242 -98 q 258 -97 252 -97 q 274 -98 264 -96 q 297 -96 288 -99 q 313 -90 306 -92 q 329 -87 321 -87 q 348 -95 336 -87 q 358 -113 355 -102 q 363 -132 361 -123 q 364 -149 364 -142 q 363 -158 363 -156 q 356 -186 363 -178 q 338 -197 349 -194 q 312 -201 326 -200 q 285 -205 298 -201 q 262 -211 276 -208 q 233 -216 248 -214 q 205 -219 218 -218 q 183 -220 191 -220 l 183 -211 z "},"\\":{"ha":435,"x_min":-5,"x_max":446,"o":"m 222 165 q 224 173 222 168 q 227 178 226 178 l 218 178 q 213 200 218 186 q 201 232 208 215 q 188 264 195 248 q 179 291 182 281 q 176 303 178 296 q 171 319 174 311 q 167 334 169 328 q 163 342 165 340 q 157 350 161 347 q 150 357 153 354 q 143 365 146 361 q 140 374 140 369 q 141 378 140 377 q 147 382 142 380 q 134 391 137 385 q 130 402 131 396 q 129 412 130 408 q 125 418 129 416 q 121 429 123 420 q 116 446 119 437 q 112 463 114 454 q 109 475 109 471 l 109 486 q 101 496 109 488 q 87 519 93 503 q 82 556 85 540 q 75 587 79 572 q 66 617 71 602 q 58 652 62 633 q 50 677 54 667 q 40 699 45 688 q 31 721 35 709 q 28 747 28 732 q 24 757 24 751 q 22 768 24 763 l 8 854 l 4 854 q -2 863 2 857 q -5 872 -5 869 l -5 940 l 18 968 q 27 969 24 968 q 33 971 31 970 q 38 974 35 972 q 45 975 40 975 q 54 972 54 975 q 54 964 54 970 q 76 960 68 964 q 93 956 83 956 q 97 947 93 952 q 105 938 100 943 q 113 927 109 932 q 117 918 117 922 q 120 909 119 916 q 124 895 122 902 q 127 881 125 887 q 128 872 128 874 q 140 803 134 841 q 155 728 147 766 q 171 653 162 690 q 187 588 179 617 q 195 567 190 578 q 204 544 200 556 q 212 520 209 532 q 212 498 214 508 l 245 424 q 250 394 242 415 q 270 348 257 374 q 297 294 282 322 q 326 241 313 265 q 348 199 339 216 q 355 178 356 182 l 392 91 q 397 75 392 90 q 408 43 401 60 q 419 10 414 25 q 427 -7 425 -5 l 446 -85 q 446 -94 446 -88 q 446 -106 446 -100 q 446 -119 446 -113 q 446 -126 446 -124 q 438 -145 441 -135 q 427 -161 434 -155 l 403 -161 q 349 -142 370 -161 q 314 -94 328 -122 q 293 -32 300 -65 q 282 27 286 1 q 278 35 281 32 q 272 42 275 39 q 265 47 268 45 q 261 51 262 49 q 250 77 254 64 q 244 104 247 90 q 238 132 241 117 q 227 160 235 146 l 222 165 z "},"]":{"ha":367,"x_min":-9,"x_max":288,"o":"m 140 -246 q 114 -249 125 -246 q 89 -252 102 -252 q 59 -250 74 -252 q 32 -242 44 -248 q 13 -226 20 -237 q 5 -197 5 -215 q 15 -157 5 -172 q 39 -138 24 -142 q 59 -138 49 -136 q 80 -140 70 -139 q 99 -140 90 -141 q 114 -134 108 -140 q 120 -110 117 -119 q 125 -93 123 -100 q 129 -77 127 -85 q 130 -57 130 -68 l 127 -57 q 130 13 127 -21 q 135 81 132 47 q 141 148 138 115 q 143 218 143 182 l 143 231 q 140 241 143 234 q 137 251 137 248 q 142 286 137 265 q 147 324 147 306 q 147 329 147 328 q 143 333 146 330 l 147 340 l 143 345 l 143 439 l 147 446 l 147 476 q 145 515 147 496 q 143 554 143 534 q 143 561 143 559 q 147 564 144 562 l 147 766 q 150 767 149 766 q 151 770 151 769 q 147 784 151 776 q 143 795 143 793 q 145 804 143 798 q 147 812 147 810 l 147 819 q 145 844 147 836 q 137 856 143 852 q 119 861 131 859 q 89 867 108 863 q 82 864 87 865 q 69 863 76 863 q 56 862 62 862 q 48 862 50 862 q 33 866 43 862 q 15 876 24 870 q -2 890 5 882 q -9 905 -9 898 l -9 957 q -3 970 -9 966 q 12 978 3 975 q 28 980 20 980 q 41 981 37 981 l 58 981 l 62 976 q 85 980 73 979 q 110 982 98 981 q 135 986 123 983 q 157 994 146 988 q 171 987 157 991 q 202 980 185 984 q 236 972 220 977 q 259 962 253 967 l 255 956 l 271 956 q 273 946 271 951 q 276 934 274 940 q 281 923 278 928 q 288 915 284 918 l 288 835 l 282 835 l 282 829 q 285 819 282 826 q 288 810 288 812 q 287 804 288 809 q 283 793 285 799 q 280 781 281 787 q 278 774 278 776 q 279 767 278 772 q 282 762 280 762 l 282 697 q 278 690 278 697 q 279 686 278 690 q 280 679 279 683 q 281 672 281 675 q 282 667 282 669 q 281 663 282 664 q 278 662 279 662 l 278 487 q 281 483 279 487 q 282 475 282 478 l 278 462 l 278 445 l 278 427 q 280 415 278 424 q 282 403 282 406 q 281 399 282 402 q 280 392 281 395 q 279 385 279 388 q 278 380 278 381 l 278 374 q 280 312 278 342 q 282 252 282 281 q 281 208 282 228 q 279 169 280 189 q 277 129 278 150 q 278 80 277 107 l 273 75 q 274 66 273 72 q 276 53 275 60 q 278 40 277 46 q 278 33 278 35 q 273 5 278 20 q 269 -22 269 -10 q 270 -26 269 -24 q 273 -28 271 -28 l 273 -70 q 278 -75 278 -70 q 275 -84 278 -77 q 273 -93 273 -92 q 274 -107 273 -99 q 277 -123 275 -115 q 281 -140 279 -132 q 282 -154 282 -148 q 282 -161 282 -157 q 278 -165 281 -164 l 288 -175 l 288 -212 q 276 -226 280 -218 q 267 -240 271 -233 q 257 -251 263 -246 q 238 -256 250 -256 q 222 -255 235 -256 q 196 -253 210 -254 q 172 -250 182 -252 q 161 -246 161 -248 l 140 -246 z "},"^":{"ha":728,"x_min":64,"x_max":659,"o":"m 106 497 q 104 493 105 494 q 98 492 103 492 q 75 502 86 492 q 64 525 64 511 l 64 590 l 96 623 q 102 623 99 620 q 106 628 105 626 l 237 827 q 252 855 243 841 q 269 882 260 869 q 285 909 277 896 q 296 936 292 923 q 304 962 300 948 q 314 986 308 975 q 331 1005 320 998 q 359 1012 341 1012 q 386 1007 373 1012 q 408 993 399 1002 q 424 972 418 984 q 429 947 429 960 l 443 947 q 449 915 442 934 q 465 876 455 897 q 488 832 475 854 q 514 790 501 810 q 538 753 527 770 q 557 726 549 736 q 585 687 568 708 q 619 643 602 666 q 647 597 635 621 q 659 551 659 573 q 645 511 659 525 q 602 497 630 497 q 573 507 588 497 q 550 530 559 516 l 393 795 q 383 806 387 800 q 376 815 379 811 q 368 823 372 820 q 355 826 363 826 l 355 823 q 338 802 345 811 q 326 784 332 792 q 314 766 319 775 q 300 745 308 757 q 277 705 290 725 q 253 663 265 684 q 230 621 241 642 q 211 577 219 599 q 199 547 205 563 q 183 517 193 531 q 159 495 173 504 q 123 486 144 486 q 112 487 119 486 q 106 497 105 487 z "},"_":{"ha":576,"x_min":-3,"x_max":577,"o":"m 58 -103 q 77 -103 65 -103 q 96 -108 90 -102 l 127 -108 q 319 -107 224 -108 q 510 -106 414 -106 q 534 -107 522 -106 q 555 -111 546 -108 q 571 -121 565 -115 q 577 -140 577 -128 q 559 -186 577 -171 q 504 -196 541 -202 q 489 -196 500 -196 q 464 -196 478 -196 q 433 -196 449 -196 q 402 -197 416 -197 q 376 -197 387 -197 q 362 -197 366 -197 l 355 -197 q 331 -198 347 -197 q 294 -199 315 -199 q 250 -200 273 -200 q 205 -201 227 -201 q 165 -202 183 -201 q 137 -202 147 -202 q 99 -208 119 -203 q 62 -212 78 -212 q 45 -209 56 -212 q 23 -202 34 -207 q 5 -192 13 -198 q -3 -177 -3 -185 l -3 -144 q 5 -123 -3 -132 q 24 -111 14 -115 q 45 -105 35 -106 q 58 -103 54 -103 z "},"`":{"ha":323,"x_min":39,"x_max":273,"o":"m 78 930 q 65 936 72 932 q 52 946 58 941 q 42 959 46 952 q 39 974 39 966 l 43 984 l 43 989 l 39 989 q 41 1008 39 998 q 48 1025 43 1017 q 60 1038 53 1033 q 78 1043 68 1043 q 97 1041 85 1043 q 121 1037 109 1040 q 143 1029 133 1034 q 159 1018 154 1024 q 185 967 167 991 q 223 919 204 942 q 258 874 243 896 q 273 833 273 853 q 269 819 273 825 q 259 807 264 812 q 246 799 253 802 q 233 795 239 795 q 218 797 224 795 q 203 805 211 798 l 78 930 z "},"a":{"ha":576,"x_min":32,"x_max":503,"o":"m 237 1 q 230 -1 236 1 q 215 -4 223 -2 q 198 -8 206 -6 q 185 -10 190 -9 l 174 -5 q 142 3 161 -5 q 104 26 123 12 q 72 56 85 40 q 58 86 58 72 q 59 91 58 89 q 63 95 60 92 l 58 100 q 45 113 48 104 q 41 132 42 122 q 39 151 40 142 q 33 163 38 159 l 33 189 l 32 195 l 32 210 q 33 229 32 221 q 36 242 33 236 q 43 254 38 249 q 58 267 49 260 q 64 275 61 270 q 71 286 68 280 q 74 298 73 292 q 73 309 75 304 q 134 369 102 341 q 200 418 165 397 q 274 448 235 438 q 357 456 313 458 q 365 467 361 458 q 371 485 368 475 q 376 504 374 495 q 378 518 378 513 l 372 524 q 368 541 369 530 q 362 555 367 551 q 348 563 353 560 q 338 568 342 566 q 331 570 334 570 q 320 571 327 571 l 309 571 q 301 568 307 571 q 294 566 295 566 l 283 571 q 254 563 269 569 q 225 550 239 557 q 195 539 210 544 q 165 534 180 534 q 138 538 151 534 q 113 550 124 542 q 96 569 102 557 q 89 597 89 581 q 95 617 89 607 q 111 636 101 628 q 131 648 120 644 q 152 650 142 652 q 162 655 155 652 q 177 663 169 659 q 194 671 186 667 q 205 676 201 675 q 218 681 214 680 q 224 681 222 681 q 231 680 227 680 q 247 681 235 679 q 282 693 264 685 q 320 701 300 701 q 363 697 338 701 q 413 683 389 692 q 453 658 436 673 q 469 623 469 644 l 476 623 l 476 611 q 485 604 484 611 q 487 589 487 597 q 489 575 487 580 q 497 571 491 571 q 500 542 497 555 q 503 516 503 530 l 503 507 l 497 503 l 503 492 q 502 486 503 492 q 499 474 500 481 q 498 463 498 468 q 497 456 497 457 l 503 444 q 497 428 503 437 q 491 408 491 418 q 489 391 490 401 q 488 368 488 380 q 486 344 487 355 q 486 324 486 332 q 488 314 486 319 q 491 303 491 310 q 490 293 491 298 q 486 282 490 288 l 486 205 q 494 191 491 203 q 499 166 498 180 q 502 139 501 152 q 503 121 503 126 l 503 115 q 500 107 503 113 q 497 100 497 101 q 499 96 497 97 q 503 95 501 95 l 503 53 q 499 45 500 52 q 496 31 498 38 q 492 12 494 16 q 486 10 490 8 q 464 -13 475 -5 q 436 -20 454 -20 q 405 -15 417 -20 q 383 0 392 -9 q 367 21 374 9 q 352 47 359 33 l 349 50 q 346 52 347 52 l 237 1 m 162 154 q 167 144 162 149 q 179 135 172 140 q 193 127 186 131 q 207 121 201 123 q 288 143 258 130 q 331 168 317 156 q 341 181 337 174 q 349 197 345 189 q 357 213 353 205 q 367 225 361 220 l 372 324 q 371 328 372 327 q 368 329 369 329 l 352 329 q 282 319 312 329 q 220 287 252 309 q 215 279 215 284 q 216 277 215 277 q 194 250 203 262 q 177 222 184 237 q 166 192 170 208 q 162 154 162 175 z "},"b":{"ha":642,"x_min":62,"x_max":596,"o":"m 340 0 q 267 15 306 0 q 187 58 228 31 q 175 35 179 44 q 168 21 172 26 q 156 13 163 15 q 135 10 149 10 q 116 12 128 10 q 92 19 104 14 q 71 31 79 24 q 62 48 62 38 l 62 111 l 66 111 l 66 115 l 62 126 q 65 140 62 132 q 72 156 68 148 q 79 173 76 165 q 83 189 83 182 l 83 195 q 81 198 83 195 q 77 204 79 201 q 74 211 75 208 q 72 216 72 214 q 72 228 71 220 q 76 243 74 235 q 81 258 79 250 q 83 272 83 266 q 81 276 83 275 q 77 277 79 277 l 77 313 q 76 319 77 315 q 74 327 75 323 q 73 335 73 332 q 72 340 72 339 q 77 349 72 343 q 83 355 83 354 l 77 366 l 77 374 q 78 382 77 379 q 83 387 79 386 q 78 393 79 390 q 77 401 77 397 q 79 415 77 407 q 82 432 80 423 q 87 448 84 440 q 93 460 90 456 l 93 524 q 88 538 88 531 q 93 556 88 545 q 98 579 98 568 q 93 618 98 599 q 88 658 88 638 l 88 671 q 90 674 88 671 q 93 680 92 677 q 97 687 95 684 q 98 691 98 690 q 96 699 98 692 q 93 707 93 705 q 94 711 93 708 q 95 717 94 713 q 97 724 96 720 q 98 728 98 727 q 97 733 98 729 q 95 741 96 736 q 94 749 94 745 q 93 755 93 753 l 93 778 l 93 802 l 98 812 q 95 834 98 823 q 88 859 92 846 q 81 884 84 871 q 77 908 77 897 l 77 923 l 83 933 q 81 936 83 935 q 77 938 79 938 q 87 948 80 943 q 101 957 94 953 q 115 965 109 962 q 125 970 121 968 q 164 968 145 975 q 197 948 182 962 q 221 918 212 935 q 230 882 230 900 q 224 863 230 873 q 219 844 219 853 l 225 838 l 225 825 l 225 812 q 224 807 225 810 q 222 799 223 803 q 220 790 221 794 q 219 786 219 787 q 224 746 219 768 q 230 707 230 724 q 228 699 230 705 q 225 691 225 692 l 225 654 q 219 648 219 652 l 219 644 q 227 641 220 643 q 235 639 233 639 q 247 642 241 639 q 256 650 252 646 q 265 661 260 655 q 275 669 270 666 q 297 682 283 675 q 325 694 311 688 q 350 704 338 700 q 363 707 361 707 q 373 706 366 707 q 388 701 380 704 q 401 696 395 699 q 404 691 406 693 q 410 694 408 692 q 416 696 412 696 q 432 689 427 696 q 446 681 438 682 l 456 681 q 503 659 480 677 q 541 617 525 642 q 566 564 557 592 q 570 513 574 536 l 575 524 q 577 508 577 517 q 578 488 578 498 q 582 470 579 478 q 591 460 585 463 l 591 414 l 596 402 q 593 395 596 401 q 591 387 591 390 q 591 380 591 385 q 592 369 592 374 q 593 358 593 363 q 594 351 594 353 l 596 351 l 596 267 q 590 250 591 258 q 589 233 589 241 q 589 216 589 224 q 585 200 589 208 q 555 124 574 161 q 509 58 536 87 q 496 47 505 55 q 479 32 488 40 q 462 16 470 23 q 450 5 454 8 q 434 -1 444 1 q 414 -4 425 -3 q 392 -5 403 -5 q 374 -5 381 -5 l 355 -5 q 354 -2 355 -4 q 351 0 352 0 q 344 -2 348 0 q 340 -5 340 -4 l 340 0 m 319 111 l 331 111 l 351 111 q 357 113 352 111 q 366 115 363 115 q 372 111 367 115 q 377 105 377 106 q 384 123 377 117 q 393 132 391 129 q 416 159 406 139 q 435 201 427 180 q 449 239 444 222 q 456 256 454 256 q 455 275 454 267 q 457 290 456 283 q 460 303 459 296 q 462 319 462 310 l 462 329 l 456 334 q 457 346 456 338 q 467 354 459 354 q 464 361 467 359 q 462 371 462 363 q 464 387 462 379 q 467 402 467 395 q 464 416 467 408 q 458 433 462 425 q 452 448 455 441 q 446 460 448 456 q 451 467 451 463 q 450 474 450 471 q 447 490 450 482 q 440 505 444 498 q 433 520 436 513 q 430 534 430 527 q 427 543 430 541 q 430 549 424 546 l 415 549 q 402 567 412 559 q 382 576 392 574 q 351 579 367 578 q 321 572 335 581 q 280 562 299 573 q 249 536 262 551 q 230 506 236 521 q 227 486 224 492 l 214 450 q 212 399 214 424 q 205 350 209 374 q 198 301 201 326 q 195 250 195 276 l 212 212 q 213 205 212 211 q 215 193 214 200 q 217 180 216 186 q 218 172 218 174 q 228 162 219 166 q 246 153 237 157 q 262 142 256 148 q 264 125 269 136 l 319 111 z "},"c":{"ha":500,"x_min":43,"x_max":473,"o":"m 321 5 q 255 10 285 5 q 191 30 225 15 q 174 39 187 31 q 148 56 161 47 q 124 74 134 66 q 115 85 113 83 q 100 102 106 91 q 89 123 94 113 q 79 144 84 134 q 68 157 75 153 l 58 192 l 54 217 l 52 217 q 47 248 52 233 q 43 279 43 262 l 43 303 l 48 313 l 43 319 l 43 328 q 44 335 43 331 q 48 340 45 338 l 48 384 l 54 389 q 56 395 55 389 q 56 409 56 401 q 56 424 56 416 q 56 436 56 431 l 56 464 q 59 476 58 468 q 63 492 61 484 q 65 510 64 501 q 66 522 66 518 l 62 522 q 68 539 62 531 q 82 555 74 547 q 98 569 90 562 q 112 581 106 575 q 115 587 113 585 q 117 597 117 594 q 174 659 141 633 q 246 705 206 686 q 250 703 246 703 q 259 704 254 703 q 269 704 264 704 q 274 705 273 705 q 289 707 282 705 q 301 711 295 709 q 315 715 308 713 q 331 718 321 718 l 331 706 q 337 707 332 706 q 348 707 342 707 q 358 706 353 707 q 363 701 363 705 q 368 700 363 702 q 374 698 372 698 q 384 696 378 698 q 394 692 389 695 q 403 685 399 689 q 406 674 406 680 q 419 672 412 674 q 433 673 427 670 q 450 650 440 661 q 471 628 460 640 l 471 604 q 469 580 471 587 q 465 568 468 572 q 456 558 461 563 q 443 543 450 554 l 420 543 q 389 549 403 543 q 362 562 374 555 q 338 576 349 570 q 315 582 326 582 q 276 572 294 582 q 244 549 258 563 q 220 521 231 536 q 204 496 210 507 l 204 475 q 201 462 202 471 q 197 444 199 453 q 192 427 195 435 q 184 415 189 419 q 191 405 191 412 q 191 395 191 398 q 188 382 191 387 q 183 372 186 376 q 179 362 181 367 q 176 351 176 357 l 182 345 q 181 341 182 345 q 178 333 180 337 q 175 324 177 328 q 172 319 174 320 l 172 277 q 177 259 175 275 q 184 225 179 243 q 197 192 189 206 q 222 178 206 177 l 218 172 q 224 169 220 171 q 235 163 229 166 q 245 158 240 161 q 252 155 250 156 q 261 152 256 155 q 267 149 264 150 l 280 145 l 313 143 q 317 149 314 149 q 323 150 319 150 l 328 144 q 333 147 329 146 q 343 150 338 149 q 354 153 349 152 q 361 156 359 155 q 369 159 363 157 q 380 165 374 162 q 394 171 387 168 q 407 174 401 173 l 441 175 l 463 158 q 463 151 462 156 q 466 139 464 145 q 470 127 468 133 q 473 117 472 121 l 473 100 q 472 82 473 90 q 467 68 471 74 q 457 59 463 63 q 441 50 451 54 q 436 45 439 49 q 429 39 433 42 q 423 32 426 35 q 420 30 420 29 q 412 26 418 29 q 398 19 406 23 q 385 13 391 16 q 377 9 379 9 l 374 9 q 355 6 361 9 q 340 0 350 3 l 332 5 l 321 5 z "},"d":{"ha":642,"x_min":48,"x_max":571,"o":"m 416 43 q 410 52 410 43 q 411 63 410 58 q 412 75 411 68 l 409 76 q 406 76 407 76 q 402 73 405 75 q 377 56 392 65 q 345 39 361 47 q 314 25 329 31 q 289 16 299 19 q 255 11 275 12 q 222 10 235 10 l 200 10 q 177 26 193 19 q 145 43 161 34 q 117 63 130 52 q 105 90 105 74 l 108 90 q 102 106 108 94 q 90 132 97 118 q 77 161 83 146 q 68 184 71 175 l 68 189 q 63 193 66 191 q 58 200 58 198 q 59 204 58 201 q 60 212 59 208 q 63 220 61 216 q 68 226 65 224 q 59 229 61 226 q 58 236 58 232 q 57 243 58 239 q 53 247 56 246 l 53 289 l 48 299 l 48 320 q 51 327 48 321 q 53 336 53 333 q 52 339 53 336 q 51 346 52 342 q 49 353 50 349 q 48 357 48 356 q 49 360 48 359 q 53 362 50 362 q 49 366 50 363 q 48 372 48 369 q 50 384 48 378 q 58 394 52 390 l 48 394 q 49 401 48 396 q 50 411 50 406 q 52 422 51 417 q 53 429 53 427 l 55 452 l 50 457 l 54 468 q 58 476 54 469 q 60 493 60 484 q 63 507 60 502 q 67 513 64 509 q 73 524 70 518 q 80 534 77 530 q 85 539 83 538 l 85 555 q 94 575 87 566 q 107 592 100 584 q 121 608 114 600 q 132 628 127 616 l 136 623 q 140 637 136 630 q 169 663 148 649 q 213 689 190 677 q 257 709 237 701 q 286 718 278 718 q 309 715 295 718 q 336 708 322 712 q 363 700 351 704 q 384 691 376 695 q 388 686 385 691 q 394 681 391 681 q 400 683 395 681 q 405 686 405 685 l 405 676 q 412 686 409 679 q 416 696 416 692 q 414 700 416 699 q 410 701 412 701 q 419 716 417 706 q 420 736 420 726 q 415 782 420 758 q 410 828 410 806 l 416 838 l 416 845 q 415 853 416 850 q 410 860 414 857 l 416 865 q 408 877 412 867 q 400 899 404 887 q 396 921 397 911 q 394 935 394 932 l 394 960 q 408 975 402 965 q 420 990 413 984 l 459 990 q 490 988 475 990 q 518 979 506 985 q 538 962 530 973 q 545 933 545 951 q 540 894 545 913 q 534 854 534 874 q 537 827 534 838 q 539 796 539 815 l 539 770 l 534 760 q 537 750 534 758 q 539 739 539 742 l 539 681 q 545 676 545 681 q 543 671 545 675 q 539 665 541 668 q 547 657 543 663 q 551 643 551 652 l 551 634 l 545 623 q 547 620 545 622 q 551 618 549 618 l 551 597 q 546 573 551 584 q 541 550 541 562 q 541 545 541 549 q 545 539 542 541 q 540 520 541 528 q 539 503 539 513 q 540 493 539 498 q 545 487 541 488 l 545 434 q 542 427 545 433 q 539 418 539 421 q 541 412 539 417 q 545 408 543 408 l 545 378 q 544 348 545 363 q 543 317 543 332 q 549 274 543 296 q 555 231 555 252 q 555 223 555 226 q 555 217 555 220 q 554 212 555 215 q 554 205 554 210 q 561 196 559 204 q 562 174 562 188 q 564 147 562 156 q 571 137 565 138 l 571 48 q 559 34 563 44 q 550 12 556 23 q 530 -7 544 1 q 487 -16 516 -16 q 463 -11 475 -16 q 440 1 451 -7 q 422 20 429 9 q 416 43 416 31 m 234 142 l 306 136 q 317 145 308 138 q 336 158 326 151 q 355 171 347 165 q 366 180 364 177 q 377 193 374 186 q 384 207 380 200 q 392 219 387 213 q 410 229 397 224 q 413 236 412 229 q 414 251 413 243 q 415 266 414 259 q 418 275 416 273 q 419 289 418 282 q 422 299 420 294 q 426 305 423 304 q 429 315 427 307 q 431 332 431 323 q 426 346 431 338 q 420 357 420 353 q 422 363 420 359 q 426 368 423 368 q 427 435 423 402 q 431 503 431 467 q 427 516 431 507 q 419 532 424 524 q 408 545 414 539 q 397 551 402 551 q 382 562 396 557 q 352 570 369 567 q 319 574 335 573 q 298 576 303 576 q 294 574 294 576 q 293 571 294 572 q 289 566 292 569 q 279 559 283 559 q 275 561 277 559 q 270 562 273 562 q 253 554 261 562 q 237 535 244 546 q 222 513 229 524 q 210 497 216 503 q 200 481 205 493 q 192 457 195 470 q 185 435 188 445 q 179 424 182 425 l 179 378 l 168 368 l 179 357 l 179 315 q 181 298 180 309 q 184 274 182 286 q 190 253 186 262 q 200 242 194 244 q 200 221 199 230 q 204 203 201 212 q 208 186 206 195 q 210 168 210 178 q 211 164 210 165 q 210 163 212 163 l 234 142 z "},"e":{"ha":576,"x_min":55,"x_max":537,"o":"m 218 16 l 208 21 q 202 25 206 22 q 193 33 197 28 q 186 42 189 37 q 182 48 182 46 q 160 51 172 44 q 139 72 149 58 q 118 104 128 86 q 101 140 109 122 q 88 172 94 157 q 81 195 83 187 q 72 208 79 202 q 66 220 66 213 q 71 247 66 231 l 66 247 l 66 252 l 71 262 q 68 282 71 273 q 63 302 66 292 q 57 322 60 312 q 55 342 55 332 l 55 347 l 61 352 q 59 358 61 353 q 55 362 56 362 l 55 391 q 58 412 55 403 q 64 428 60 420 q 73 443 68 435 q 81 460 77 450 q 95 501 88 480 q 111 543 102 522 q 128 582 119 563 q 150 618 138 602 l 150 623 l 197 671 q 214 686 205 679 q 228 696 221 691 q 239 701 235 701 l 245 701 l 245 716 l 283 716 q 284 727 283 724 q 297 733 286 730 l 334 733 q 343 733 336 733 q 359 734 351 734 q 377 732 368 734 q 391 728 386 731 q 410 712 399 722 q 431 690 420 702 q 450 666 441 678 q 465 644 459 654 q 469 632 468 640 q 472 616 471 625 q 473 600 473 608 q 475 586 474 592 q 483 571 477 578 q 491 555 488 563 q 498 515 496 535 q 505 476 500 496 q 514 458 508 469 q 521 439 521 448 l 515 429 q 517 426 515 428 q 521 424 519 424 l 515 418 q 528 419 524 422 q 534 411 532 416 q 537 399 536 405 q 537 389 537 393 l 537 372 q 534 363 537 370 q 528 349 532 357 q 521 332 525 340 q 515 320 517 324 q 506 306 511 311 q 494 300 500 302 q 479 299 487 299 q 462 299 471 299 q 443 300 451 299 q 426 304 434 302 q 410 309 418 306 q 391 315 401 312 l 315 315 l 239 315 q 229 315 235 315 q 216 313 222 314 q 202 310 209 311 l 192 283 l 197 279 q 193 277 194 279 q 192 273 192 275 q 196 257 192 266 q 202 242 199 248 q 202 226 203 237 q 202 206 201 216 q 208 190 203 196 q 223 189 212 184 q 236 154 226 170 q 262 128 247 139 q 296 111 277 117 q 334 105 315 105 l 355 105 q 372 125 363 115 q 391 143 381 135 q 413 155 401 151 q 439 160 425 160 l 441 152 q 479 148 462 152 q 510 133 497 143 q 530 107 523 123 q 537 68 537 91 l 537 42 q 518 23 526 33 q 500 7 509 14 q 478 -5 490 -1 q 450 -10 467 -10 q 437 -8 443 -10 q 425 -5 431 -5 l 423 -5 q 400 -15 413 -11 q 373 -21 387 -18 q 345 -25 359 -24 q 320 -26 331 -26 q 294 -23 308 -26 q 267 -13 281 -19 q 241 -1 254 -7 q 218 10 229 5 l 218 16 m 218 418 q 235 414 227 415 q 252 414 242 414 q 309 415 279 414 q 365 418 339 417 q 385 432 378 422 q 391 454 391 441 q 387 491 391 468 q 373 537 382 515 q 350 575 363 559 q 320 591 337 591 q 299 582 311 591 q 276 559 288 573 q 255 527 265 545 q 236 493 244 509 q 223 461 228 476 q 218 439 218 447 l 218 418 z "},"f":{"ha":395,"x_min":9,"x_max":443,"o":"m 121 9 q 116 33 119 22 q 112 50 114 41 q 106 59 109 58 q 103 67 104 61 q 102 80 102 73 q 101 93 101 87 q 100 101 100 99 l 106 111 l 106 134 q 106 150 106 140 q 106 169 106 159 q 107 188 106 178 q 107 203 107 197 q 112 253 107 227 q 116 305 116 279 l 116 315 q 113 326 116 318 q 111 336 111 334 l 116 347 q 119 358 119 353 q 121 364 120 361 l 116 369 q 118 375 116 370 q 121 380 119 380 l 116 380 q 111 404 116 393 q 106 427 106 415 l 106 433 l 111 437 l 106 448 q 107 456 106 451 q 111 460 108 460 l 102 460 q 104 467 102 465 q 106 470 105 469 q 109 473 108 472 q 111 477 111 475 l 111 481 q 106 502 107 488 q 105 532 106 516 q 103 561 104 547 q 100 581 102 575 q 81 587 93 586 q 55 588 68 587 q 29 591 41 589 q 9 603 16 593 l 9 630 q 11 670 9 655 q 20 693 14 685 q 40 707 27 702 q 74 716 53 711 q 78 717 77 718 q 81 716 79 716 q 84 716 83 715 q 90 721 86 717 q 98 737 96 729 q 101 753 100 745 q 103 770 102 762 q 106 786 104 778 q 122 831 112 808 q 132 878 132 854 q 131 883 132 881 q 126 888 130 884 q 135 897 132 890 q 142 911 139 903 q 148 927 145 920 q 153 940 150 935 q 161 950 157 946 q 168 959 165 955 q 172 967 170 962 q 176 979 174 971 l 208 989 q 205 1002 203 994 q 214 1010 208 1009 q 222 1018 216 1013 q 238 1028 228 1023 q 262 1037 248 1033 q 296 1040 276 1040 l 374 1026 q 394 1013 385 1024 q 411 989 403 1002 q 427 966 419 977 q 443 953 435 955 l 443 934 q 441 917 443 926 q 437 898 440 907 q 427 884 433 890 q 411 878 421 878 l 352 878 q 344 878 346 878 q 343 880 342 879 q 345 882 343 881 q 346 884 346 884 q 336 886 345 884 q 326 888 328 888 q 287 876 303 888 q 262 848 271 863 q 248 818 252 832 q 245 799 244 803 q 242 773 245 786 q 239 747 239 761 q 244 721 239 730 q 264 711 248 711 q 287 716 276 711 q 310 722 298 722 q 334 712 319 722 q 362 690 349 703 q 384 662 375 677 q 390 636 392 647 q 385 631 390 635 q 380 625 380 628 l 385 615 l 385 610 q 377 594 385 600 q 358 584 369 588 q 335 579 347 581 q 318 577 324 577 q 286 582 303 577 q 257 587 269 587 l 245 583 q 241 584 243 583 q 239 587 239 585 q 236 583 238 587 q 235 577 235 578 q 237 569 235 574 q 239 561 239 563 l 239 553 q 237 529 239 541 q 235 507 235 516 q 234 495 235 501 q 239 488 234 489 l 239 406 q 245 398 246 405 q 245 388 245 391 q 242 375 245 378 q 239 365 239 372 q 244 299 239 330 q 250 235 250 268 q 250 225 250 233 q 250 214 250 216 l 250 212 q 253 197 250 206 q 259 177 256 187 q 264 156 262 166 q 267 142 267 146 l 267 140 q 266 134 267 139 q 264 124 265 130 q 262 113 263 118 q 262 107 262 109 l 262 105 q 264 92 262 98 q 267 79 267 86 q 264 64 267 77 q 257 34 261 50 q 246 5 252 18 q 234 -10 240 -9 q 227 -8 233 -10 q 218 -5 221 -5 l 208 -5 q 200 -7 203 -5 q 196 -11 198 -9 q 193 -15 195 -14 q 188 -17 192 -17 l 186 -17 l 126 9 l 121 9 z "},"g":{"ha":642,"x_min":43,"x_max":575,"o":"m 242 -300 q 221 -297 235 -300 q 194 -291 208 -295 q 169 -281 180 -287 q 159 -267 159 -275 q 141 -261 146 -267 q 131 -247 135 -255 q 123 -230 127 -239 q 111 -216 119 -222 l 122 -164 q 128 -159 122 -162 q 141 -154 134 -156 q 155 -150 149 -151 q 164 -148 162 -148 q 188 -154 176 -148 q 211 -167 199 -159 q 233 -181 222 -174 q 258 -189 245 -187 l 269 -184 l 290 -184 l 347 -153 q 353 -142 348 -149 q 363 -130 357 -136 q 373 -120 368 -124 q 379 -116 378 -116 l 385 -116 q 390 -108 387 -116 q 396 -87 393 -100 q 402 -60 399 -75 q 407 -32 405 -45 q 410 -9 409 -19 q 411 2 411 0 l 411 32 q 406 35 411 33 q 399 37 401 37 q 378 29 392 37 q 350 12 365 22 q 321 -7 335 2 q 300 -20 308 -16 l 300 -16 q 288 -21 297 -19 q 267 -24 278 -23 q 245 -26 256 -25 q 229 -26 235 -26 q 185 -17 205 -26 q 149 5 165 -8 q 121 35 134 19 q 100 64 109 51 q 84 87 91 78 q 74 96 78 96 q 77 104 74 100 q 80 112 80 108 q 76 131 80 120 q 68 152 73 141 q 59 172 63 162 q 54 187 54 181 l 54 229 q 47 294 51 262 q 43 359 43 327 q 45 382 43 370 q 59 402 47 395 q 54 407 55 405 q 54 414 54 409 q 58 452 54 433 q 70 489 63 471 q 83 525 76 507 q 96 561 90 543 q 101 571 97 568 q 106 581 106 574 l 117 591 q 136 615 130 604 q 153 639 142 627 q 183 669 168 654 q 216 694 199 683 q 253 711 233 705 q 297 718 273 718 l 316 718 q 324 709 319 711 q 336 706 330 707 q 350 704 342 705 q 363 701 357 703 q 372 695 367 699 q 383 687 378 691 q 393 680 388 683 q 401 676 397 676 q 405 679 404 676 q 408 684 406 681 q 411 688 409 686 q 416 686 412 689 l 458 713 q 474 711 463 715 q 499 700 486 707 q 524 688 513 694 q 540 681 536 682 l 561 634 q 557 613 558 624 q 556 592 557 603 q 553 570 555 581 q 545 549 551 559 l 551 549 q 555 523 553 535 q 558 500 557 512 q 561 481 560 489 q 559 469 559 475 q 561 461 559 465 q 566 456 562 457 l 561 450 l 561 397 q 567 391 568 396 q 566 382 566 386 q 564 368 566 374 q 561 354 561 361 q 570 351 568 354 q 572 340 572 348 q 569 313 572 326 q 566 286 566 299 l 566 267 q 573 259 570 264 q 575 250 575 254 l 566 250 q 569 241 566 245 q 572 229 572 237 q 571 220 572 227 q 570 205 571 213 q 566 190 568 197 q 561 182 564 183 q 566 178 565 180 q 566 175 566 176 l 566 172 l 561 161 q 562 157 561 161 q 564 149 563 153 q 568 141 566 145 q 572 137 570 138 l 566 132 q 570 130 569 132 q 572 126 572 127 q 569 115 572 123 q 566 105 566 106 l 566 79 q 561 70 566 76 q 556 63 556 64 q 557 47 555 56 q 560 30 558 39 q 564 13 562 22 q 566 -3 566 5 q 555 -92 566 -47 q 521 -174 543 -136 q 467 -243 499 -213 q 395 -290 435 -273 q 361 -303 377 -297 q 332 -312 347 -309 q 306 -316 317 -316 q 288 -314 298 -315 q 267 -310 277 -312 q 242 -305 254 -307 l 242 -300 m 264 106 q 303 114 283 106 q 341 133 323 121 q 371 160 358 144 q 389 192 384 176 l 395 186 q 407 214 400 202 q 421 235 414 225 l 421 256 q 424 266 421 258 q 429 284 426 275 q 434 303 432 294 q 437 313 437 311 l 437 371 q 433 382 433 375 q 433 395 433 389 q 433 407 434 402 q 426 414 432 412 l 426 460 l 421 471 l 426 481 q 424 486 426 484 q 421 487 422 487 l 421 534 q 419 543 421 537 q 416 549 417 548 q 398 559 412 553 q 366 571 383 566 q 336 583 349 577 q 323 591 323 588 q 296 583 311 591 q 270 562 282 574 q 247 536 257 550 q 232 513 237 523 q 228 500 229 507 q 227 489 228 494 q 224 477 226 483 q 216 466 222 471 l 213 462 q 211 456 211 458 q 207 444 210 452 q 202 427 205 436 q 198 409 200 417 q 195 397 196 400 q 187 390 190 395 q 181 378 184 385 q 176 366 179 372 q 169 355 174 359 q 175 352 170 355 q 179 345 179 348 l 174 334 l 174 282 q 167 277 170 281 q 164 270 164 274 q 178 235 172 251 q 189 208 184 221 q 195 192 194 195 q 196 182 196 188 q 197 171 197 177 q 198 159 197 165 q 201 151 199 154 l 211 145 q 213 142 212 144 q 215 136 214 139 q 218 130 217 133 q 221 126 220 127 q 232 116 228 119 q 241 114 237 114 q 251 116 245 115 q 264 117 256 117 l 264 106 z "},"h":{"ha":637,"x_min":65,"x_max":589,"o":"m 474 -3 q 465 0 471 -3 q 459 10 460 3 l 452 10 l 454 16 q 451 19 454 17 q 446 23 449 21 q 441 28 444 26 q 437 32 438 31 q 432 44 434 36 q 427 60 429 52 q 424 77 425 69 q 422 90 423 85 l 422 92 q 426 111 422 101 q 433 130 429 120 q 440 149 437 139 q 444 168 444 158 q 441 172 444 170 q 437 174 439 174 q 441 201 438 187 q 446 228 444 214 q 451 255 449 241 q 454 282 454 269 q 452 286 454 285 q 449 287 450 287 l 449 340 q 445 342 446 340 q 444 345 444 344 q 446 356 444 348 q 449 366 449 364 l 449 371 l 454 382 q 449 388 454 385 q 444 392 444 391 q 444 397 444 393 q 446 406 445 401 q 448 414 447 410 q 449 418 449 418 l 449 429 q 447 439 449 432 q 443 455 446 447 q 438 469 441 463 q 433 476 435 475 q 436 478 434 476 q 437 481 437 479 q 433 513 437 497 q 418 541 428 528 q 395 562 409 554 q 363 570 382 570 q 309 560 335 570 q 261 538 283 551 q 249 524 256 534 q 235 501 241 513 q 222 478 228 489 q 212 460 216 467 l 212 402 q 211 397 212 401 q 209 387 210 393 q 208 377 208 382 q 207 371 207 372 q 208 368 207 370 q 209 361 208 365 q 211 355 210 358 q 212 351 212 352 l 212 277 q 208 268 208 273 q 207 256 207 262 q 211 217 207 237 q 220 176 215 197 q 229 136 225 156 q 233 96 233 116 q 232 76 233 86 q 228 57 231 66 q 220 41 224 47 q 210 31 216 34 q 207 24 208 28 q 207 18 207 20 q 199 7 207 12 q 180 0 191 3 q 161 -4 170 -3 q 149 -5 151 -5 q 132 -3 141 -5 q 118 5 123 0 l 111 14 q 97 22 102 16 q 87 35 92 28 q 78 50 83 43 q 65 63 73 58 l 65 126 q 75 146 72 134 q 78 171 77 158 q 80 198 79 184 q 81 220 80 211 q 87 240 83 231 q 92 260 92 249 l 86 272 q 87 279 86 273 q 89 291 87 284 q 91 302 90 297 q 92 309 92 308 l 92 340 l 86 345 q 87 354 86 348 q 92 361 89 359 l 92 581 q 87 592 89 584 q 86 602 86 601 q 89 642 86 622 q 94 684 91 663 q 99 725 97 705 q 102 765 102 745 q 101 770 102 766 q 100 779 100 774 q 98 789 99 785 q 97 796 98 794 l 92 806 q 93 810 92 808 q 97 812 94 812 q 94 820 96 812 q 90 838 92 828 q 87 855 88 847 q 86 865 86 863 q 89 873 86 867 q 92 882 92 879 q 89 896 92 888 q 83 912 86 904 q 78 926 80 920 q 75 935 75 932 q 76 950 75 943 q 81 965 77 958 q 74 968 77 965 q 68 975 71 970 q 66 982 66 979 q 65 988 65 986 q 69 1002 65 997 q 77 1011 73 1008 q 86 1019 81 1015 q 92 1029 90 1023 l 144 1040 q 205 1017 188 1036 q 222 965 222 998 q 221 958 222 964 q 219 946 220 953 q 218 935 218 940 q 217 928 217 929 q 220 920 217 926 q 222 912 222 914 q 221 903 222 907 q 217 898 219 900 q 214 893 216 895 q 212 887 212 891 l 212 882 l 222 887 q 217 871 219 881 q 214 850 215 861 q 213 830 213 840 q 212 814 212 820 q 215 793 212 802 q 217 775 217 785 l 212 775 q 214 753 212 765 q 222 733 216 741 l 222 653 q 238 653 233 653 q 248 656 243 654 q 256 661 252 658 q 270 671 260 665 q 296 688 283 681 q 326 699 310 694 q 361 704 342 703 q 406 706 381 706 q 422 703 414 706 q 437 696 431 700 q 455 689 444 692 q 477 680 466 685 q 497 669 488 675 q 509 654 506 663 q 513 646 511 652 q 518 633 515 640 q 525 621 521 627 q 534 616 529 616 q 538 602 534 609 q 548 586 543 594 q 557 571 553 578 q 562 555 562 563 q 566 528 564 545 q 569 490 568 511 q 572 448 571 469 q 572 408 572 426 l 576 392 l 580 383 l 572 377 l 583 334 l 578 329 l 589 319 l 589 297 q 587 268 589 281 q 578 240 586 254 l 583 240 q 580 233 583 235 q 578 222 578 231 q 580 212 578 214 q 583 200 583 209 q 582 188 583 192 q 582 181 582 184 q 582 171 582 178 q 581 152 581 165 q 582 141 581 149 q 583 132 583 133 l 589 121 q 587 117 589 118 q 583 115 585 116 q 589 106 589 112 l 589 104 l 583 100 q 589 90 583 93 l 589 32 q 579 12 589 20 q 557 -3 570 3 q 531 -13 545 -9 q 509 -16 517 -16 q 501 -16 507 -16 q 489 -15 495 -16 q 478 -13 483 -14 q 474 -10 474 -12 l 474 -3 z "},"i":{"ha":303,"x_min":50,"x_max":230,"o":"m 50 78 q 53 97 50 87 q 58 115 55 106 q 63 132 61 123 q 66 148 66 140 q 61 161 66 152 q 56 174 56 170 q 61 178 56 178 l 61 216 q 63 225 61 217 q 67 243 65 234 q 73 260 70 252 q 77 267 75 267 l 71 273 q 77 314 77 291 q 77 352 78 336 l 83 362 l 83 394 l 83 585 q 72 591 72 585 q 71 609 71 597 q 78 654 71 633 q 108 688 85 675 q 113 687 111 686 q 117 691 115 688 q 121 695 119 693 q 126 698 123 698 q 151 692 135 698 q 181 676 166 686 q 207 654 196 666 q 218 630 218 642 l 213 619 l 218 609 l 218 585 l 218 562 q 212 555 214 561 q 209 541 210 549 q 208 526 208 534 q 208 514 208 518 l 208 509 q 209 504 208 509 q 211 494 210 499 q 212 484 212 488 q 213 477 213 479 q 212 469 213 475 q 209 456 210 463 q 205 444 207 450 q 203 436 203 438 q 206 430 204 432 q 208 424 208 427 l 208 420 l 203 409 l 208 404 l 203 394 l 208 389 l 203 378 l 203 372 l 203 368 q 205 360 203 366 q 208 352 208 355 l 203 347 q 200 343 201 346 q 199 336 199 340 q 198 330 199 333 q 198 326 198 327 q 203 283 198 308 q 208 232 209 259 l 213 227 l 208 221 l 208 168 l 213 163 l 208 158 l 208 123 l 203 113 l 203 108 q 208 97 203 100 q 213 86 213 94 q 209 52 213 68 q 196 21 205 35 q 175 0 188 8 q 144 -8 162 -8 q 101 -2 121 -8 q 66 23 82 3 q 59 37 63 27 q 50 50 56 46 l 50 78 m 113 840 q 109 837 113 838 q 103 836 104 836 q 98 840 100 838 q 93 846 94 843 q 82 855 89 851 q 71 866 75 859 q 67 877 70 867 q 62 898 64 886 q 58 920 60 909 q 56 935 56 931 q 63 952 56 943 q 82 971 71 962 q 104 986 93 980 q 124 992 116 992 q 150 988 136 992 q 177 977 163 983 q 202 961 190 970 q 223 945 214 953 q 229 941 228 943 q 229 936 230 938 q 226 931 228 933 q 223 929 224 930 q 227 927 224 929 q 229 924 229 926 l 223 914 l 223 903 q 222 894 223 899 q 229 887 222 888 q 217 877 224 884 q 203 862 210 870 q 190 847 196 854 q 182 836 184 840 l 176 846 q 171 835 176 838 q 159 830 166 831 q 145 829 152 829 q 134 829 138 829 l 118 829 l 113 840 z "}}}
